<?xml version="1.0" standalone="no"?>
<!DOCTYPE svg PUBLIC "-//W3C//DTD SVG 20010904//EN"
 "http://www.w3.org/TR/2001/REC-SVG-20010904/DTD/svg10.dtd">
<svg version="1.0" xmlns="http://www.w3.org/2000/svg"
 width="600.000000pt" height="575.000000pt" viewBox="0 0 600.000000 575.000000"
 preserveAspectRatio="xMidYMid meet">
<g transform="translate(0.000000,575.000000) scale(0.100000,-0.100000)"
fill="#000000" stroke="none">
<path d="M2753 5453 c-39 -60 -113 -155 -164 -212 -173 -191 -209 -236 -234
-288 -55 -114 -69 -242 -38 -344 10 -36 15 -83 14 -139 -4 -141 49 -268 169
-406 30 -35 99 -114 154 -176 54 -62 107 -130 118 -151 11 -22 22 -37 24 -34
7 7 -20 59 -59 116 -16 24 -75 94 -131 155 -119 130 -163 189 -204 271 -42 84
-54 136 -51 229 1 53 -4 100 -14 135 -35 115 -11 269 58 376 40 62 141 176
149 168 3 -4 6 -15 6 -26 0 -10 17 -85 39 -166 93 -351 101 -394 101 -524 0
-67 5 -165 11 -217 6 -52 12 -115 13 -140 2 -25 9 -64 15 -88 7 -23 11 -48 9
-55 -3 -14 62 -210 68 -204 2 2 -6 37 -17 78 -26 92 -28 234 -5 339 33 151 96
288 213 467 80 123 95 165 21 61 -157 -221 -236 -400 -262 -592 -8 -56 -14
-94 -15 -86 -1 8 -8 74 -16 145 -8 72 -15 171 -15 222 0 84 4 102 44 210 74
198 199 495 216 516 9 11 67 -80 96 -151 30 -74 39 -146 25 -213 -6 -30 -13
-119 -15 -199 -5 -196 -41 -320 -143 -487 -69 -115 -104 -197 -113 -267 -4
-36 -11 -69 -14 -75 -4 -6 -2 -20 4 -31 21 -39 3 -19 -62 68 -112 150 -248
268 -408 354 -92 49 -154 72 -325 118 -82 23 -164 50 -182 61 -21 13 -31 16
-27 7 7 -16 214 -195 256 -222 l30 -19 -57 -22 c-94 -35 -170 -113 -193 -196
-7 -26 -13 -33 -28 -31 -10 2 -48 4 -84 5 -75 1 -114 -15 -173 -72 -108 -102
-110 -256 -5 -347 l33 -29 -40 -20 c-57 -29 -98 -100 -100 -170 0 -44 -5 -58
-26 -77 -15 -14 -34 -36 -43 -50 -13 -20 -27 -26 -70 -31 -101 -10 -206 -74
-253 -154 -25 -44 -28 -57 -28 -144 0 -89 2 -99 37 -170 20 -41 54 -92 75
-113 52 -53 142 -110 197 -126 44 -12 45 -13 38 -44 -13 -56 -5 -140 17 -198
26 -68 103 -157 168 -195 24 -14 42 -28 39 -31 -10 -9 -128 49 -254 125 -67
41 -150 86 -184 99 -86 33 -194 54 -248 47 -58 -8 -132 -45 -162 -82 -12 -16
-42 -38 -66 -50 -65 -33 -117 -85 -207 -206 -95 -128 -153 -183 -242 -227 -41
-20 -60 -35 -54 -41 6 -6 27 -1 58 14 38 18 64 23 128 23 71 -1 93 -6 195 -46
160 -64 228 -80 340 -81 206 -1 368 76 575 273 105 100 160 143 175 138 6 -2
-16 -22 -48 -46 -136 -99 -242 -287 -242 -429 0 -59 28 -153 57 -196 27 -39
113 -97 144 -97 14 0 16 -9 12 -63 -4 -54 -1 -69 24 -116 65 -124 261 -189
384 -127 29 15 34 14 83 -7 42 -18 69 -22 156 -22 94 0 111 3 165 28 33 15 83
45 111 67 l52 39 4 -77 c10 -169 123 -306 287 -348 121 -31 253 9 346 105 l47
49 57 -27 c104 -48 281 -29 388 43 78 53 160 145 194 220 29 63 34 84 39 181
l5 110 44 -63 c25 -38 63 -118 93 -195 131 -349 242 -456 534 -513 175 -34
239 -51 295 -80 63 -32 67 -30 31 10 -37 42 -57 103 -76 226 -14 100 -32 152
-66 200 -11 15 -20 34 -20 42 0 30 -91 147 -148 190 -94 70 -214 108 -452 143
-58 8 -134 25 -170 39 -64 23 -65 24 -81 77 -8 30 -24 70 -34 89 l-18 35 24
-20 c13 -12 44 -38 68 -59 56 -49 211 -123 276 -131 28 -4 77 -2 109 4 180 33
290 153 291 318 0 57 -4 77 -21 100 -21 28 -21 31 -6 56 11 18 28 28 56 33
130 21 206 125 193 264 -7 76 -36 136 -93 194 -73 72 -173 110 -268 99 -38 -4
-39 -3 -18 9 12 8 20 16 18 19 -3 2 20 34 50 69 133 156 217 319 218 422 1 50
-3 60 -29 88 -16 17 -39 33 -51 36 -18 5 -23 17 -32 75 -19 127 -75 210 -177
260 -58 28 -72 31 -129 27 -82 -7 -156 -47 -208 -111 -23 -30 -38 -42 -38 -32
0 9 34 48 75 87 60 56 83 87 118 156 41 83 42 89 42 181 0 89 -2 100 -31 151
-23 40 -43 60 -72 75 -34 17 -41 26 -47 60 -27 165 -136 286 -303 335 -109 33
-225 26 -314 -18 -75 -36 -139 -101 -170 -170 -22 -49 -26 -90 -15 -144 7 -35
6 -38 -15 -38 -15 1 -32 14 -49 39 -59 85 -199 117 -297 67 -59 -30 -118 -89
-134 -133 -15 -42 -25 -42 -34 2 -16 87 19 204 103 342 59 99 106 202 134 299
18 62 24 107 25 214 2 74 8 167 15 207 21 128 -10 223 -129 399 -77 115 -139
242 -147 303 -3 25 -10 55 -15 67 -4 12 -4 28 2 38 5 10 8 19 6 22 -3 2 -37
-44 -75 -103z m88 -116 c11 -28 43 -89 70 -135 l50 -83 -59 -132 c-67 -149
-159 -380 -178 -447 -12 -43 -12 -41 -13 65 -1 104 11 268 44 600 9 83 18 162
21 178 3 15 1 27 -4 27 -13 0 -38 -195 -63 -515 l-23 -280 -22 110 c-12 61
-34 153 -49 205 -15 52 -35 128 -46 169 l-19 73 66 71 c63 69 183 236 185 260
1 7 6 -16 10 -51 5 -34 19 -86 30 -115z m-781 -1159 c236 -69 394 -158 557
-312 107 -101 121 -126 39 -71 -36 24 -106 57 -158 74 -67 23 -103 42 -128 67
-50 49 -144 94 -204 96 -40 1 -58 9 -105 44 -77 59 -180 157 -156 149 11 -4
81 -25 155 -47z m1799 -137 c80 -25 138 -60 188 -114 55 -59 81 -113 96 -195
10 -54 16 -67 32 -70 41 -8 83 -51 105 -109 52 -138 2 -304 -133 -437 l-70
-69 -14 54 c-7 30 -28 83 -45 118 -39 77 -85 112 -158 119 l-50 5 20 36 c32
59 65 141 88 216 26 88 39 170 25 162 -6 -4 -14 -33 -18 -64 -4 -32 -18 -85
-31 -117 -13 -33 -24 -64 -24 -69 0 -5 -14 -39 -31 -75 -35 -77 -67 -116 -83
-103 -6 5 -30 15 -53 21 -39 12 -42 15 -35 39 12 44 7 342 -7 399 -7 28 -17
52 -21 52 -5 0 -4 -15 1 -32 13 -44 24 -319 15 -391 -5 -35 -12 -57 -20 -57
-31 0 -118 -33 -143 -54 l-28 -23 -35 60 c-39 67 -245 286 -257 273 -4 -5 -2
-11 5 -13 23 -9 228 -241 252 -287 23 -42 23 -46 7 -64 -9 -10 -17 -26 -17
-35 0 -22 -1 -22 -57 13 -72 46 -193 77 -193 50 0 -5 -14 -10 -31 -10 -28 0
-30 2 -27 32 3 31 1 33 -37 40 -22 4 -61 7 -86 7 -41 1 -51 6 -78 36 -37 43
-54 103 -49 175 17 228 294 326 427 150 31 -41 37 -45 70 -42 45 5 47 6 33 37
-19 42 -15 121 9 168 32 62 119 142 181 166 71 27 194 28 277 2z m-1593 -55
c64 -29 154 -117 188 -184 29 -57 35 -60 72 -36 37 24 106 14 152 -23 20 -17
51 -56 67 -88 28 -55 30 -66 30 -171 0 -72 -4 -117 -12 -125 -8 -8 -13 -6 -17
9 -9 28 -66 56 -104 50 -30 -4 -32 -2 -32 24 0 63 -72 153 -146 184 -58 24
-151 18 -219 -15 -58 -27 -155 -118 -155 -145 0 -6 -7 -24 -16 -41 -28 -51
-54 -176 -61 -282 l-6 -102 -29 61 c-49 105 -130 193 -331 362 -32 27 -60 47
-63 44 -2 -3 23 -30 58 -59 116 -100 230 -214 274 -275 44 -62 104 -178 104
-203 0 -7 -23 7 -50 33 -54 50 -146 99 -232 122 -66 17 -181 17 -231 0 -44
-16 -50 -9 -41 41 13 72 70 153 108 153 6 0 17 4 25 9 11 7 3 20 -36 59 -79
79 -93 173 -38 267 49 85 134 132 219 121 105 -13 99 -15 112 30 50 171 241
255 410 180z m260 -146 c28 -10 64 -25 80 -34 l29 -15 -37 6 c-40 6 -98 -12
-98 -31 0 -6 -14 13 -30 43 -35 63 -35 65 -12 56 9 -4 40 -15 68 -25z m270
-192 c39 -50 44 -62 44 -110 0 -73 15 -121 49 -157 28 -30 29 -31 8 -35 -12
-2 -44 -9 -72 -14 -27 -6 -51 -9 -53 -7 -2 2 4 24 12 49 20 59 20 167 1 233
-8 27 -29 70 -46 94 -46 63 0 21 57 -53z m-338 -44 c73 -30 132 -110 132 -178
l0 -35 49 6 c44 5 52 3 75 -20 43 -43 34 -67 -37 -102 -34 -17 -92 -59 -129
-94 -55 -51 -68 -59 -68 -43 0 48 -138 372 -148 344 -2 -6 3 -21 12 -34 21
-33 102 -235 116 -290 12 -45 11 -47 -29 -114 -23 -38 -51 -100 -63 -139 -11
-38 -23 -74 -27 -80 -3 -5 -4 -21 -3 -35 2 -14 -7 -48 -20 -75 -19 -43 -23
-67 -23 -163 0 -63 3 -116 7 -118 3 -2 11 -27 17 -55 6 -28 29 -89 52 -136 44
-92 129 -188 213 -241 l44 -28 -34 -19 -34 -18 -66 59 c-175 155 -312 256
-409 300 -49 23 -53 27 -59 67 -18 114 -82 271 -148 363 l-30 42 20 46 c27 60
63 107 100 128 38 22 43 16 65 -81 25 -107 84 -224 160 -318 70 -85 84 -99 95
-89 3 4 -13 25 -35 49 l-41 42 -5 160 c-4 141 -8 170 -32 245 -21 62 -28 103
-27 150 2 77 -12 164 -40 242 -24 72 -16 106 46 175 84 93 206 128 304 87z
m-347 -334 c16 -64 20 -100 16 -148 -5 -54 -2 -76 25 -155 28 -83 32 -106 35
-242 l4 -150 -21 25 c-31 38 -97 177 -117 250 -26 94 -25 356 1 459 22 85 25
82 57 -39z m1615 49 c33 -16 47 -18 63 -10 28 15 76 14 118 -4 59 -25 73 -42
63 -76 -5 -16 -16 -72 -25 -125 -13 -78 -14 -110 -6 -158 9 -54 8 -68 -9 -114
-26 -67 -49 -204 -53 -309 l-3 -82 -54 -60 c-29 -32 -61 -62 -71 -64 -11 -3
-19 -4 -19 -3 0 2 13 29 29 62 51 102 75 205 75 329 0 61 -6 137 -13 170 -21
100 -81 265 -96 265 -3 0 8 -36 24 -80 57 -154 74 -257 68 -393 -6 -130 -25
-219 -26 -121 -1 70 -27 146 -66 192 -20 23 -35 54 -40 80 -14 87 -82 200
-173 292 l-84 85 18 33 c24 45 75 83 132 98 68 18 100 17 148 -7z m-648 5 c19
-6 22 -11 17 -33 -10 -44 -59 -105 -103 -129 -33 -19 -43 -30 -48 -60 -18 -99
-98 -182 -225 -233 -43 -17 -76 -22 -165 -23 -104 -1 -113 -3 -153 -29 l-43
-29 7 34 c12 60 58 142 107 191 60 60 134 94 240 113 45 8 84 16 86 19 13 13
-81 3 -148 -16 -88 -24 -156 -65 -206 -123 l-35 -41 20 40 c70 141 238 270
400 310 58 14 209 19 249 9z m202 -77 c127 -52 266 -177 334 -300 21 -37 36
-70 33 -73 -3 -3 -12 7 -20 23 -29 54 -137 143 -233 192 -90 45 -102 37 -14
-9 100 -54 195 -132 247 -205 54 -76 55 -91 4 -65 -48 25 -132 40 -191 33 -44
-5 -46 -4 -64 33 -10 21 -20 64 -24 94 -5 49 -10 59 -48 93 -39 35 -92 123
-109 185 -8 29 12 29 85 -1z m-147 7 c12 -4 13 -13 6 -37 -15 -58 -20 -99 -10
-93 5 3 12 25 16 49 9 60 15 77 26 77 5 0 9 -7 9 -16 0 -35 62 -143 102 -180
32 -28 44 -48 49 -76 5 -34 3 -38 -22 -43 -37 -8 -129 9 -176 34 -26 13 -59
19 -99 19 -34 0 -71 5 -83 11 -20 11 -20 14 -6 41 8 16 15 41 15 55 0 19 11
32 48 54 26 17 58 48 72 70 26 42 29 44 53 35z m886 -76 c54 -136 55 -308 3
-468 -30 -91 -108 -240 -125 -240 -19 0 22 280 54 364 18 50 19 62 9 113 -7
31 -9 77 -6 102 12 89 30 181 37 181 4 0 16 -24 28 -52z m452 -79 c85 -54 134
-142 143 -254 4 -46 6 -50 49 -71 75 -39 90 -130 27 -167 -16 -10 -76 -63
-134 -118 -90 -86 -112 -113 -148 -185 l-43 -85 -67 -23 c-118 -42 -281 -157
-420 -299 -71 -73 -79 -78 -107 -72 -38 8 -39 16 -5 36 51 31 187 176 240 256
68 102 111 202 92 214 -7 5 -44 9 -83 10 l-70 1 70 23 c158 51 231 91 357 196
58 48 142 138 135 145 -2 2 -42 -33 -88 -78 -137 -135 -246 -198 -451 -263
-93 -29 -147 -34 -77 -6 139 54 255 152 419 352 59 71 95 127 88 134 -2 2 -33
-35 -68 -83 -137 -184 -322 -345 -458 -399 -23 -9 -40 -19 -37 -22 2 -4 -6 -8
-17 -8 -15 -2 -8 11 35 56 131 137 227 358 227 523 0 63 5 73 81 149 58 59
114 80 196 75 50 -3 73 -10 114 -37z m-2715 0 c72 -22 148 -61 199 -102 l29
-24 -30 -16 c-99 -51 -165 -256 -135 -420 8 -39 14 -81 15 -93 0 -11 6 -27 12
-35 6 -8 15 -25 19 -39 l7 -25 -23 22 c-35 32 -123 68 -204 84 -79 15 -348 17
-382 3 -15 -6 26 -8 120 -6 172 5 302 -15 397 -59 80 -37 93 -49 132 -118 44
-76 157 -192 229 -235 33 -20 94 -48 135 -62 88 -32 88 -33 -31 -92 -127 -64
-204 -84 -337 -90 -145 -6 -241 14 -332 68 -123 74 -205 218 -193 339 3 31 8
63 12 72 5 13 -2 20 -32 29 -63 20 -167 86 -212 135 -23 26 -57 76 -74 113
-28 59 -32 77 -32 152 0 74 3 91 27 131 47 79 144 137 247 146 53 5 57 8 82
48 57 91 201 121 355 74z m1241 -126 c29 -5 32 -8 27 -30 -10 -39 -53 -110
-85 -143 -25 -25 -34 -28 -55 -20 -46 18 -97 12 -138 -16 -22 -15 -37 -21 -34
-13 5 16 61 55 132 93 27 14 43 26 36 26 -22 0 -127 -61 -154 -89 l-27 -28
-39 36 -40 35 53 13 c79 20 148 58 198 107 34 34 50 43 69 39 14 -2 40 -7 57
-10z m119 -15 c27 -10 33 -18 38 -53 7 -46 37 -108 69 -143 l21 -22 -26 -28
c-14 -15 -35 -42 -46 -60 -19 -32 -22 -33 -90 -35 l-70 -3 -6 38 c-4 24 -19
50 -44 75 l-37 38 41 43 c25 25 51 66 64 102 24 64 31 68 86 48z m170 -40 c49
0 52 -2 68 -34 19 -40 18 -40 -28 -13 -19 11 -43 19 -53 17 -11 -2 4 -12 40
-27 63 -26 70 -36 32 -45 -13 -3 -40 -20 -59 -36 l-34 -31 -25 33 c-26 35 -57
108 -57 134 0 12 7 14 32 9 18 -4 55 -7 84 -7z m-674 -117 c26 -17 55 -42 64
-58 10 -15 19 -30 21 -32 1 -2 18 8 38 23 93 71 218 25 253 -93 12 -37 11 -37
-46 -97 -102 -105 -156 -248 -150 -397 2 -51 6 -99 9 -107 2 -10 -3 -15 -16
-16 -11 0 -46 -8 -79 -18 -77 -23 -97 -14 -201 88 -89 89 -129 158 -165 288
-46 166 -34 308 32 384 62 71 161 85 240 35z m998 -2 c161 -73 208 -266 111
-457 -12 -23 -27 -42 -34 -42 -26 0 -116 -50 -155 -84 -32 -29 -47 -36 -81
-36 -22 0 -41 2 -41 4 0 2 7 22 15 45 16 46 61 219 69 269 4 20 2 31 -4 27 -6
-3 -10 -14 -10 -25 0 -21 -53 -227 -74 -284 -10 -30 -21 -41 -50 -51 -20 -7
-46 -20 -58 -29 -13 -9 -33 -23 -45 -32 -22 -15 -23 -15 -22 2 0 11 4 42 9 69
4 28 4 87 -1 135 -10 87 -52 245 -69 255 -5 3 -1 -19 10 -49 30 -88 51 -247
46 -346 -4 -80 -8 -93 -36 -132 -17 -24 -41 -60 -53 -81 -11 -20 -23 -36 -26
-34 -71 39 -171 79 -223 89 -77 14 -78 15 -78 152 0 133 51 265 138 358 62 67
93 81 158 76 l53 -5 41 63 c47 73 86 108 155 140 67 32 189 33 255 3z m-1712
-142 c49 -86 77 -161 101 -271 l17 -79 82 -43 c94 -49 148 -86 287 -200 95
-77 145 -124 133 -124 -27 0 -180 35 -236 54 -94 32 -153 68 -228 139 -109
101 -181 233 -210 385 -15 75 -11 212 5 212 4 0 26 -33 49 -73z m2778 -149
c-108 -227 -346 -458 -605 -587 -88 -44 -220 -95 -227 -88 -6 6 106 111 196
182 130 104 232 162 318 180 17 3 32 12 32 18 0 25 49 114 94 174 49 64 219
218 224 203 2 -4 -13 -42 -32 -82z m-589 -192 c1 -1 -8 -24 -19 -51 -51 -121
-198 -305 -310 -389 l-38 -28 -71 17 c-52 13 -95 16 -159 13 -56 -4 -97 -1
-116 7 -49 20 -112 26 -158 14 -32 -8 -49 -8 -65 0 l-21 12 22 40 c39 68 125
155 180 183 38 19 67 26 111 26 56 0 63 3 104 41 24 22 69 51 98 64 51 23 172
51 245 58 30 2 191 -3 197 -7z m550 -211 c60 -27 132 -96 158 -152 10 -20 20
-68 23 -105 4 -59 1 -74 -22 -123 -33 -66 -87 -102 -165 -112 -37 -4 -51 -10
-51 -21 0 -9 -7 -24 -17 -34 -14 -16 -14 -20 -1 -35 47 -56 48 -156 3 -248
-54 -110 -158 -168 -305 -169 -82 -1 -89 1 -180 46 -112 56 -230 152 -279 228
-56 87 -156 186 -220 218 l-57 28 94 45 c103 48 104 48 242 85 148 41 336 44
549 9 159 -25 216 -28 129 -7 -133 32 -326 54 -438 49 -114 -5 -249 -31 -325
-62 -22 -9 -35 -13 -30 -8 47 44 105 77 167 97 151 50 272 115 418 227 41 32
91 62 110 68 50 15 136 4 197 -24z m-3592 -44 c107 -26 134 -38 291 -132 75
-44 152 -86 172 -93 l37 -13 -80 -7 c-453 -36 -794 -107 -1057 -220 l-78 -34
58 57 c31 31 75 82 97 114 l39 58 46 -5 c121 -14 298 -28 320 -24 29 4 -142
26 -273 35 l-88 6 53 54 c57 57 93 73 170 73 62 0 220 -31 377 -74 150 -41
192 -50 171 -37 -23 14 -254 78 -364 101 -54 12 -135 21 -180 21 l-81 0 35 16
c71 31 222 3 508 -92 73 -25 136 -45 140 -45 38 1 -309 120 -423 145 -38 8
-94 16 -122 18 -29 1 -53 5 -53 8 0 16 55 54 102 70 67 23 85 23 183 0z m1847
-72 c64 -13 169 -58 238 -101 39 -24 53 -29 62 -20 15 15 128 15 165 0 15 -6
81 -12 148 -12 104 -1 132 -5 209 -30 l88 -29 -53 -34 c-252 -160 -589 -235
-891 -199 -220 26 -394 83 -552 179 l-59 36 28 11 c16 6 77 19 136 28 l108 17
30 42 c49 67 157 121 248 122 23 1 66 -4 95 -10z m-344 -65 c2 -1 -23 -8 -55
-14 -66 -14 -241 -100 -293 -145 -78 -67 -182 -180 -225 -246 -49 -73 -168
-315 -204 -414 -29 -81 -50 -165 -41 -165 4 0 13 21 20 47 31 123 184 452 253
545 51 67 117 138 180 195 l48 41 49 -33 c27 -18 55 -35 62 -37 8 -3 -2 -22
-28 -54 -48 -58 -104 -150 -134 -219 -50 -116 -101 -354 -99 -458 0 -24 9 11
20 83 37 247 106 429 216 573 24 31 46 57 48 57 2 0 25 -9 52 -21 73 -32 151
-59 223 -78 l65 -17 18 -65 c11 -38 18 -99 19 -149 0 -179 -67 -346 -192 -471
-147 -147 -294 -190 -464 -135 -76 24 -80 24 -110 8 -21 -11 -55 -17 -106 -16
-97 0 -164 28 -224 95 -50 55 -62 99 -51 179 6 47 5 50 -14 50 -31 0 -92 34
-129 71 -35 36 -59 98 -68 174 -13 111 58 276 166 386 87 89 117 103 181 90
72 -16 218 -13 304 4 95 20 235 78 289 121 41 32 41 32 131 27 50 -3 91 -7 93
-9z m-28 -44 c-16 -23 -29 -30 -53 -30 -18 0 -49 -5 -70 -11 -55 -15 -69 -5
-22 16 42 18 144 54 158 54 5 1 -1 -12 -13 -29z m-920 -78 c0 -5 -10 -14 -22
-19 -13 -6 -67 -53 -122 -103 -289 -269 -554 -329 -861 -194 -16 7 -48 20 -70
30 -22 9 -78 20 -125 23 l-85 6 100 37 c199 73 446 144 471 134 6 -2 29 2 50
9 43 14 281 53 329 53 17 0 72 5 124 11 52 6 95 10 97 8 2 -1 -38 -20 -89 -42
-145 -61 -365 -201 -431 -274 -37 -41 -9 -30 45 18 30 26 97 76 149 110 177
116 440 231 440 193z m1950 -213 c126 -61 278 -252 325 -411 9 -32 15 -90 15
-152 0 -167 -32 -249 -135 -351 -139 -137 -324 -180 -470 -108 l-54 27 -53
-55 c-92 -92 -198 -129 -312 -108 -169 30 -283 165 -294 346 l-4 82 40 48 c78
92 138 242 157 390 7 57 -9 177 -31 231 -7 17 -9 32 -4 32 17 0 156 -117 207
-175 80 -90 147 -232 188 -400 19 -77 40 -176 47 -220 12 -73 13 -76 16 -36 3
45 -33 230 -70 356 -56 187 -170 348 -317 443 l-36 23 45 -5 c25 -3 72 -8 105
-12 121 -13 266 -94 372 -207 55 -59 149 -193 253 -364 25 -39 46 -70 48 -68
8 8 -51 109 -176 300 -101 153 -220 259 -347 312 -25 10 -45 20 -45 23 0 3 35
6 78 8 102 4 231 26 317 56 39 13 70 24 71 25 0 0 29 -13 64 -30z m603 -555
c368 -51 484 -119 599 -354 46 -93 59 -131 68 -198 13 -99 36 -181 58 -204 18
-21 4 -24 -23 -4 -11 7 -103 94 -205 193 -102 98 -206 199 -233 223 -26 23
-45 45 -43 47 2 3 24 -8 48 -23 73 -46 316 -154 347 -154 19 0 -30 24 -118 59
-178 71 -306 146 -452 269 -117 98 -134 111 -196 158 -35 25 -63 48 -63 49 0
2 25 -8 56 -22 34 -15 95 -31 157 -39z m4 -170 c40 -57 75 -124 178 -337 26
-54 50 -96 53 -93 10 11 -152 346 -202 416 -53 74 -52 78 9 20 83 -79 152
-177 246 -345 46 -82 84 -144 86 -138 4 11 -127 252 -164 301 -48 63 -12 45
75 -39 48 -46 132 -127 187 -180 55 -53 120 -114 145 -137 l45 -41 -35 9 c-19
5 -100 23 -179 40 -83 17 -171 42 -207 59 -132 62 -218 176 -315 418 -33 81
-70 164 -84 185 -14 21 -25 40 -25 44 0 16 149 -129 187 -182z m208 -114 c12
-19 -12 -10 -31 11 -19 22 -19 22 3 10 12 -6 25 -16 28 -21z"/>
<path d="M1920 3722 c0 -7 17 -43 37 -80 20 -36 49 -105 65 -152 27 -79 29
-81 23 -35 -6 63 -125 315 -125 267z"/>
<path d="M2211 3187 c-1 -4 6 -22 15 -38 8 -17 38 -97 65 -177 27 -81 49 -138
49 -126 0 24 -39 154 -72 240 -22 58 -56 118 -57 101z"/>
<path d="M1235 2726 c6 -2 44 -12 85 -21 175 -40 368 -132 445 -214 17 -17 38
-36 48 -42 40 -23 -3 30 -66 81 -107 88 -334 183 -465 195 -31 3 -52 3 -47 1z"/>
<path d="M2508 2637 c-26 -63 11 -299 63 -406 31 -63 153 -201 178 -201 7 0
-16 29 -51 64 -121 121 -164 231 -176 441 -4 69 -10 112 -14 102z"/>
<path d="M2757 2584 c-57 -210 -57 -359 3 -491 35 -76 48 -84 18 -10 -43 105
-52 180 -39 307 7 63 19 141 27 173 20 78 12 97 -9 21z"/>
<path d="M3051 2228 c12 -29 31 -102 44 -163 13 -60 24 -105 25 -100 8 44 -30
216 -60 275 -29 56 -34 50 -9 -12z"/>
<path d="M3730 1680 c-41 -5 -88 -14 -105 -19 -23 -8 -17 -8 25 -3 30 4 141 7
245 6 211 -1 258 -10 435 -79 52 -21 101 -40 109 -43 9 -3 12 -1 7 6 -10 16
-203 89 -298 112 -97 24 -306 33 -418 20z"/>
<path d="M1132 1736 c-45 -18 -118 -55 -163 -82 -94 -57 -239 -169 -239 -185
0 -6 10 -2 23 8 180 141 323 228 450 273 29 10 43 19 32 19 -11 0 -57 -14
-103 -33z"/>
<path d="M798 1666 c-88 -50 -162 -103 -197 -140 -39 -42 -15 -30 57 28 37 29
99 72 137 94 95 56 102 61 90 61 -6 1 -45 -19 -87 -43z"/>
<path d="M4136 970 c28 -10 96 -25 151 -34 55 -8 107 -18 116 -22 9 -3 17 -2
17 3 0 6 -55 20 -122 32 -68 13 -136 27 -152 32 -53 17 -62 8 -10 -11z"/>
<path d="M4270 844 c0 -7 117 -63 185 -89 37 -13 97 -29 133 -35 37 -6 78 -13
92 -16 16 -3 21 -2 15 4 -5 5 -50 17 -100 26 -49 10 -143 39 -207 66 -65 27
-118 47 -118 44z"/>
<path d="M2430 4971 c-1 -61 257 -895 267 -864 2 6 -35 129 -82 274 -47 145
-104 334 -127 419 -40 151 -57 202 -58 171z"/>
<path d="M2340 4783 c0 -22 71 -182 195 -438 138 -285 185 -386 185 -397 0 -6
3 -8 6 -5 10 9 -28 97 -154 362 -63 132 -139 294 -168 359 -54 120 -64 138
-64 119z"/>
<path d="M4993 2642 c-82 -29 -153 -82 -244 -183 -46 -52 -124 -134 -174 -184
l-90 -91 105 0 c92 0 122 -5 235 -38 195 -57 291 -58 350 -6 12 11 36 18 62
18 23 1 55 7 70 16 16 8 90 72 164 143 137 130 229 193 283 193 49 0 26 17
-31 23 -43 4 -88 21 -172 63 -111 56 -115 58 -190 56 -103 -3 -112 -3 -221 3
-76 4 -105 2 -147 -13z m237 -12 c8 -4 39 -3 69 3 72 14 160 -3 226 -44 27
-17 72 -39 98 -48 l48 -16 -123 -19 c-153 -22 -391 -71 -479 -97 -36 -10 -72
-19 -79 -19 -16 0 186 143 268 190 34 19 62 39 62 43 0 20 -200 -106 -308
-193 -42 -34 -90 -60 -144 -80 -45 -16 -83 -28 -85 -27 -1 2 41 34 95 71 158
109 293 209 288 213 -6 6 -100 -58 -281 -192 -102 -76 -179 -124 -243 -152
l-93 -42 113 122 c169 181 217 225 285 259 88 43 228 57 283 28z m406 -152
c-35 -20 -110 -82 -189 -156 -71 -68 -145 -130 -163 -138 -34 -14 -83 -9 -147
15 -55 21 -277 54 -369 55 -53 1 -94 4 -90 7 4 4 42 19 84 33 94 32 223 34
428 7 129 -17 150 -18 138 -6 -12 13 -327 46 -388 41 l-65 -5 60 20 c86 28
239 42 395 35 100 -4 129 -3 110 5 -29 12 -277 17 -330 6 -24 -5 -29 -4 -15 2
33 14 526 108 575 110 19 0 11 -7 -34 -31z m-601 -273 c72 -15 134 -31 139
-35 14 -14 -54 -42 -113 -47 -33 -3 -81 1 -116 10 -33 8 -105 26 -160 40 -116
30 -176 37 -223 26 -42 -9 -33 1 21 24 63 26 279 18 452 -18z"/>
</g>
</svg>
