<?xml version="1.0" standalone="no"?>
<!DOCTYPE svg PUBLIC "-//W3C//DTD SVG 20010904//EN"
 "http://www.w3.org/TR/2001/REC-SVG-20010904/DTD/svg10.dtd">
<svg version="1.0" xmlns="http://www.w3.org/2000/svg"
 width="437.000000pt" height="485.000000pt" viewBox="0 0 437.000000 485.000000"
 preserveAspectRatio="xMidYMid meet">
<g transform="translate(0.000000,485.000000) scale(0.100000,-0.100000)"
fill="#000000" stroke="none">
<path d="M374 4603 c4 -257 12 -322 55 -418 10 -22 22 -51 26 -64 13 -42 89
-154 148 -217 35 -38 94 -83 159 -123 56 -35 114 -71 128 -80 36 -25 180 -68
354 -106 38 -8 90 -26 115 -39 57 -28 184 -111 156 -101 -376 134 -613 185
-855 185 -100 0 -122 -3 -160 -22 -31 -16 -46 -30 -48 -47 -7 -48 48 -55 96
-11 54 49 69 53 192 53 195 -2 428 -54 727 -163 223 -81 316 -161 456 -389 91
-151 91 -167 -1 -41 -106 145 -164 209 -235 263 -172 130 -307 176 -592 199
-294 24 -439 -43 -469 -217 -9 -48 -40 -104 -69 -124 -12 -9 -41 -33 -64 -54
-53 -49 -62 -93 -39 -207 14 -68 15 -93 5 -166 -14 -97 -6 -148 37 -242 34
-75 173 -213 248 -248 128 -59 346 -71 526 -30 178 41 414 129 531 199 76 45
199 74 199 47 0 -24 -51 -109 -80 -133 -96 -81 -329 -139 -414 -103 -55 23
-96 21 -96 -4 0 -10 9 -24 19 -30 27 -14 113 -12 191 5 36 7 66 12 68 11 6 -7
-89 -36 -153 -47 -38 -7 -167 -13 -285 -14 -125 -1 -244 -7 -284 -15 -44 -8
-92 -10 -135 -5 -123 14 -165 6 -241 -45 -14 -10 -43 -20 -65 -24 -52 -10 -33
-20 71 -36 72 -12 88 -11 150 5 38 10 89 29 114 42 25 13 52 23 62 23 9 0 19
4 22 9 10 16 70 22 321 31 138 5 264 12 280 15 24 5 27 4 13 -5 -36 -23 -118
-41 -263 -60 -206 -26 -405 -98 -550 -199 -117 -82 -482 -423 -532 -498 -17
-26 -11 -68 10 -76 37 -14 77 34 112 134 8 25 24 55 35 67 11 12 20 25 20 29
0 5 19 24 42 43 23 19 51 45 62 57 11 13 23 23 27 23 5 0 35 26 68 58 84 80
150 136 167 140 8 2 14 8 14 13 0 5 6 9 14 9 8 0 16 4 18 8 2 5 37 25 78 45
80 39 222 94 205 79 -30 -26 -94 -72 -100 -72 -4 0 -39 -30 -77 -68 -92 -88
-118 -148 -72 -166 29 -11 54 15 94 97 68 137 208 243 338 253 31 3 72 7 91 9
l35 4 -37 -24 c-20 -14 -39 -25 -42 -25 -3 0 -18 -11 -33 -25 -15 -14 -30 -25
-35 -25 -4 0 -18 -10 -31 -22 -13 -13 -32 -30 -42 -39 -25 -20 -134 -138 -134
-144 0 -2 -20 -32 -44 -67 -24 -35 -61 -97 -82 -138 -60 -120 -146 -240 -225
-315 -41 -38 -100 -96 -131 -128 -77 -77 -132 -191 -160 -328 -19 -97 -20
-113 -8 -244 14 -152 10 -283 -9 -329 -11 -28 -12 -28 -26 -10 -13 17 -13 15
-3 -13 12 -33 38 -46 38 -20 0 16 199 183 213 179 4 -1 6 1 3 6 -3 5 6 20 20
33 30 28 144 174 144 185 0 4 6 15 13 23 14 17 58 128 78 199 7 23 15 42 18
42 3 0 6 15 7 33 0 17 10 86 21 152 12 66 26 190 33 275 14 190 34 299 67 365
41 84 130 186 223 258 30 23 66 52 80 64 44 40 139 87 335 166 44 17 112 48
152 68 40 20 70 33 67 28 -3 -5 -62 -54 -132 -108 -121 -94 -252 -220 -319
-306 -42 -55 -116 -204 -149 -300 -23 -68 -27 -97 -27 -195 0 -183 50 -328
163 -477 88 -117 143 -147 285 -159 80 -6 91 -10 119 -37 62 -60 100 -77 170
-77 84 0 158 16 221 48 216 108 394 301 440 477 10 38 15 104 15 187 l0 128
90 -100 c100 -109 226 -202 361 -264 161 -74 412 -108 524 -70 63 22 108 69
175 184 61 104 170 227 191 215 8 -5 10 -4 5 3 -4 6 7 30 23 52 70 97 44 259
-70 436 -69 105 -172 205 -294 286 -118 77 -185 111 -320 163 -55 21 -104 42
-108 45 -4 4 45 9 110 12 171 8 328 64 448 159 81 64 244 234 293 306 110 162
159 308 150 442 -8 109 -58 180 -166 235 -28 14 -53 36 -60 51 -18 40 -101
124 -152 153 -60 36 -130 34 -220 -3 -51 -22 -89 -29 -180 -36 -63 -4 -126
-11 -140 -15 -84 -25 -223 -132 -284 -218 -24 -33 -77 -126 -116 -206 -77
-156 -153 -275 -225 -355 l-45 -50 19 50 c82 217 158 366 245 482 55 73 182
201 259 260 70 54 203 126 283 153 73 24 71 24 77 0 5 -21 31 -27 42 -10 3 5
18 7 33 4 18 -4 32 0 40 9 7 8 21 13 31 10 10 -3 22 0 26 7 5 8 11 8 21 -1 11
-9 21 -9 39 -1 16 8 26 8 31 1 3 -6 18 -9 32 -8 15 1 35 -2 45 -6 9 -4 25 -4
35 0 9 4 28 8 41 9 28 1 47 26 37 51 -4 12 -14 16 -35 13 -22 -3 -27 -1 -24
12 5 21 -22 44 -42 36 -8 -3 -16 -18 -16 -33 l-1 -28 -7 30 c-5 23 -12 31 -34
33 -23 3 -27 0 -27 -22 0 -35 -18 -33 -22 2 -2 21 -8 27 -28 27 -21 0 -25 -5
-25 -27 1 -16 -3 -28 -7 -28 -4 0 -8 9 -8 19 0 10 -7 21 -15 25 -18 7 -48 -22
-41 -40 3 -8 1 -14 -4 -14 -6 0 -10 9 -10 21 0 16 -5 20 -27 17 -22 -2 -28 -8
-27 -27 1 -21 -1 -22 -11 -7 -22 30 -50 19 -46 -19 1 -9 -150 -67 -157 -60 -2
1 48 36 110 77 144 94 243 139 355 158 82 14 123 3 193 -55 60 -49 72 -52 144
-30 44 13 52 13 72 0 29 -19 34 -19 34 0 0 19 -93 88 -155 115 -91 39 -237 23
-420 -46 -11 -4 7 13 40 38 82 63 152 131 211 208 59 78 77 111 72 136 -5 28
-41 24 -50 -6 -3 -14 -12 -45 -19 -70 -13 -43 -47 -87 -139 -177 -47 -47 -152
-125 -295 -219 -66 -43 -168 -114 -227 -156 -59 -43 -110 -78 -113 -78 -3 0
-20 -16 -38 -35 -17 -19 -35 -35 -39 -35 -3 0 -34 -29 -69 -65 -34 -36 -64
-63 -67 -60 -3 2 7 23 22 45 14 22 26 41 26 44 0 16 138 238 164 262 45 42
143 114 156 114 5 0 10 4 10 8 0 4 15 16 33 27 56 33 234 172 271 212 32 34
77 113 97 168 25 72 46 195 32 195 -5 0 -22 -27 -38 -61 -38 -81 -79 -117
-178 -157 -102 -41 -140 -77 -184 -172 -19 -41 -74 -126 -121 -188 -118 -154
-148 -197 -184 -265 -35 -64 -47 -70 -24 -11 61 161 96 269 96 299 0 19 -7 56
-16 82 -16 47 -71 133 -85 133 -3 0 -10 -30 -13 -67 -4 -38 -9 -91 -12 -120
-5 -44 -2 -56 15 -75 43 -46 45 -85 7 -210 -33 -107 -82 -232 -71 -178 26 128
28 149 15 210 -22 104 -86 180 -234 277 -102 67 -171 128 -200 178 -31 53 -97
111 -134 118 -15 3 -45 -1 -66 -8 -22 -8 -43 -12 -48 -9 -4 3 -11 -1 -14 -9
-3 -8 -38 -29 -77 -47 -260 -116 -333 -189 -387 -389 -39 -141 -43 -199 -25
-343 9 -73 20 -151 25 -173 15 -63 12 -64 -25 -5 -59 93 -75 135 -84 212 -10
91 -51 188 -103 243 -21 22 -38 43 -38 46 0 3 -18 26 -41 50 -22 24 -52 65
-66 91 -15 27 -30 48 -34 48 -13 0 -24 -89 -24 -195 0 -96 2 -103 38 -176 45
-91 111 -160 219 -230 75 -49 111 -91 178 -204 21 -35 12 -29 -65 44 -52 48
-146 121 -220 169 -71 47 -142 93 -157 103 -15 11 -31 19 -35 19 -16 0 -146
99 -173 132 -61 74 -116 194 -179 388 -40 122 -122 228 -233 302 -29 19 -80
52 -113 74 -133 87 -208 179 -247 303 -12 41 -28 71 -35 71 -11 0 -12 -48 -9
-247z m82 40 c13 -17 24 -34 24 -37 0 -20 141 -132 256 -204 62 -38 134 -95
134 -106 0 -2 16 -20 35 -39 19 -19 35 -42 35 -51 0 -9 4 -16 9 -16 5 0 27
-55 50 -122 48 -141 111 -291 123 -296 4 -2 8 -10 8 -17 0 -8 6 -18 13 -22 6
-5 25 -23 42 -41 24 -26 26 -32 10 -26 -26 10 -186 103 -205 120 -8 7 -25 22
-37 34 -13 11 -26 20 -30 20 -13 0 -179 163 -233 230 -19 23 -40 48 -46 54
-45 48 -147 226 -187 326 -27 70 -67 252 -66 304 0 28 2 25 21 -24 11 -30 31
-69 44 -87z m26 -302 c29 -58 55 -108 58 -111 3 -3 23 -30 44 -60 46 -64 187
-233 200 -239 5 -2 27 -21 49 -43 23 -22 61 -54 84 -71 24 -17 43 -34 43 -37
0 -4 13 -13 29 -20 16 -6 37 -19 48 -28 10 -9 57 -37 105 -62 48 -24 85 -46
83 -48 -1 -2 -52 9 -111 24 -111 27 -244 80 -244 95 0 5 -4 9 -9 9 -5 0 -36
17 -68 38 -32 21 -66 41 -75 45 -10 3 -18 11 -18 17 0 5 -6 10 -13 10 -11 0
-89 78 -122 122 -35 47 -75 108 -75 115 0 4 -6 20 -14 35 -52 99 -86 253 -85
383 l0 80 19 -74 c11 -41 44 -122 72 -180z m3234 10 c-43 -108 -80 -155 -190
-239 -136 -105 -286 -209 -286 -198 0 2 61 50 136 107 74 56 165 134 201 173
67 73 152 205 154 241 2 20 2 20 6 0 2 -11 -8 -49 -21 -84z m279 -1 c-4 -12
-9 -19 -12 -17 -3 3 -2 15 2 27 4 12 9 19 12 17 3 -3 2 -15 -2 -27z m-337 -22
c-35 -63 -158 -188 -263 -267 -51 -39 -96 -71 -100 -71 -3 0 8 17 24 38 17 20
46 72 66 115 20 43 42 80 50 83 8 3 17 14 20 24 3 9 24 25 48 35 23 9 71 32
107 50 36 18 66 33 68 34 2 0 -7 -18 -20 -41z m-1226 -29 c13 -6 37 -29 55
-52 49 -65 68 -201 68 -497 0 -129 -4 -264 -8 -300 -5 -36 -11 -85 -13 -110
-2 -25 -6 -56 -10 -70 -3 -14 -8 -41 -10 -60 -6 -43 -32 -120 -46 -138 -8 -9
-8 -16 -1 -23 25 -25 68 142 94 366 7 61 12 205 12 320 0 184 -5 259 -29 404
l-6 34 26 -30 c15 -17 75 -64 134 -104 199 -134 252 -204 252 -336 0 -97 -42
-222 -132 -393 -99 -187 -133 -257 -152 -314 -9 -27 -32 -82 -50 -121 -30 -65
-36 -72 -58 -68 -15 3 -24 12 -25 25 -3 40 -56 69 -90 49 -13 -7 -22 -3 -36
15 -26 33 -88 33 -121 1 -23 -23 -25 -23 -56 -8 -24 12 -48 41 -89 111 -31 52
-62 111 -68 130 -23 72 -45 196 -47 262 0 37 -4 68 -8 68 -11 0 -10 -93 2
-170 24 -155 51 -224 138 -352 29 -43 31 -49 15 -55 -10 -3 -26 -13 -36 -21
-16 -14 -20 -13 -43 9 -63 58 -156 226 -204 369 -26 76 -46 172 -60 282 -9 74
-8 91 9 139 21 61 58 136 78 159 54 61 81 90 88 90 8 0 38 26 86 74 32 32 46
57 90 162 16 40 38 79 48 88 16 15 16 8 -6 -66 -34 -118 -44 -372 -18 -476 9
-40 20 -72 24 -72 17 0 18 13 4 41 -58 116 -27 525 46 601 16 17 82 45 113 47
9 0 27 -4 40 -10z m-242 -87 c0 -4 -4 -12 -8 -17 -5 -6 -21 -40 -36 -77 -16
-38 -32 -68 -37 -68 -5 0 -9 -6 -9 -14 0 -8 -26 -36 -57 -63 -119 -101 -163
-154 -204 -251 l-20 -47 6 61 c13 137 68 274 141 352 63 66 224 155 224 124z
m890 -164 c1 -24 1 -65 1 -93 l-1 -50 -29 48 -28 48 15 75 c15 75 15 75 28 46
7 -17 13 -50 14 -74z m38 -48 c0 -19 -3 -46 -7 -60 -5 -15 -7 5 -7 52 1 42 4
69 8 60 4 -9 6 -33 6 -52z m979 25 c41 -16 42 -17 -82 11 l-60 13 52 -5 c28
-2 69 -11 90 -19z m-39 -20 c65 -16 128 -43 119 -52 -11 -10 -80 -21 -97 -15
-22 9 -107 82 -94 82 5 0 37 -7 72 -15z m-2538 -119 c0 -3 22 -29 50 -58 27
-29 50 -59 50 -65 0 -7 3 -13 8 -13 18 -1 53 -103 65 -188 l13 -92 -23 27
c-12 16 -40 53 -60 83 -21 30 -41 57 -45 58 -5 2 -8 10 -8 17 0 8 -6 20 -14
27 -21 22 -51 85 -80 172 -37 110 -35 126 9 77 19 -21 35 -41 35 -45z m-75 -1
c32 -120 87 -224 187 -351 26 -34 48 -65 48 -69 0 -12 -64 37 -122 94 -32 30
-58 61 -58 68 0 7 -3 13 -8 13 -8 0 -33 45 -56 104 -15 35 -24 217 -11 204 3
-3 12 -31 20 -63z m2307 -60 c0 -5 -5 -11 -11 -13 -6 -2 -11 4 -11 13 0 9 5
15 11 13 6 -2 11 -8 11 -13z m206 -3 c2 -7 -3 -12 -12 -12 -9 0 -16 7 -16 16
0 17 22 14 28 -4z m-123 -2 c-3 -5 -13 -10 -21 -10 -8 0 -14 5 -14 10 0 6 9
10 21 10 11 0 17 -4 14 -10z m-10 -126 c38 -18 145 -126 145 -146 0 -9 -29
-23 -72 -37 -74 -24 -103 -36 -236 -97 -76 -35 -157 -83 -241 -144 -27 -19
-59 -42 -71 -50 -58 -39 -139 -108 -133 -114 3 -3 -1 -6 -9 -6 -20 0 -95 -83
-80 -88 6 -2 31 16 55 40 50 50 107 98 114 98 3 0 16 11 29 25 13 14 27 25 31
25 4 0 22 14 40 30 18 17 36 30 42 30 5 0 11 4 13 8 6 15 224 139 247 141 8 1
39 13 70 27 31 15 91 40 134 55 l79 29 45 -27 45 -26 -6 -56 c-4 -30 -13 -62
-21 -71 -8 -9 -15 -24 -15 -32 0 -15 -31 -46 -122 -120 -44 -36 -95 -118 -91
-148 1 -8 0 -22 -4 -30 -9 -22 -23 -72 -44 -154 -5 -21 -15 -48 -21 -60 -13
-27 -59 -76 -70 -76 -5 0 -19 -9 -31 -21 -12 -11 -50 -36 -85 -56 -34 -19 -60
-39 -56 -44 7 -12 69 21 135 72 30 23 60 47 68 53 12 9 12 8 3 -10 -21 -40
-116 -137 -192 -196 -41 -32 -81 -63 -88 -68 -41 -36 -88 -44 -232 -44 -157 1
-231 14 -420 75 -105 35 -123 45 -100 59 22 14 84 12 170 -5 110 -21 378 -15
443 11 26 10 47 22 47 26 0 11 -8 10 -75 -13 -49 -16 -86 -20 -207 -20 -81 0
-174 5 -207 12 -33 6 -91 10 -130 7 -39 -2 -71 -1 -71 3 0 18 140 54 270 69
118 13 235 28 262 34 13 3 41 8 63 11 22 3 47 8 55 10 8 3 29 7 45 9 40 5 187
55 199 67 6 5 18 9 28 9 10 0 18 5 18 10 0 6 5 10 12 10 20 0 128 74 128 88 0
15 -1 14 -80 -38 -118 -78 -286 -136 -450 -155 -25 -3 -52 -7 -60 -10 -8 -2
-37 -7 -65 -10 -77 -9 -275 -35 -308 -40 -16 -3 -45 -12 -64 -20 -20 -8 -37
-15 -38 -15 -1 0 0 11 2 23 3 16 -4 34 -20 53 l-25 28 77 27 c91 32 141 57
141 70 0 5 5 9 11 9 6 0 16 6 24 13 7 6 34 29 59 50 44 37 57 57 36 57 -6 0
-25 -14 -43 -31 -43 -42 -133 -109 -147 -109 -5 0 -10 -4 -10 -10 0 -5 -6 -10
-13 -10 -7 0 -31 -8 -53 -19 -74 -35 -79 -35 -79 4 0 26 8 41 36 67 97 88 182
215 279 414 103 210 163 283 303 368 57 34 169 63 212 55 15 -3 9 -12 -33 -42
-29 -20 -56 -37 -60 -37 -25 0 -282 -302 -263 -308 13 -4 26 9 66 63 129 172
289 309 387 331 29 6 78 21 108 32 66 26 120 27 165 6z m-3285 -109 c-44 -37
-70 -45 -70 -21 0 18 22 35 57 46 52 16 55 10 13 -25z m3641 -244 c20 -51 21
-63 11 -143 -8 -69 -20 -108 -55 -182 -67 -140 -117 -208 -261 -351 -109 -108
-144 -136 -206 -167 -88 -43 -169 -72 -225 -83 -47 -8 -49 -10 40 50 188 126
271 254 335 510 27 110 37 129 90 180 136 130 138 132 159 200 12 37 21 77 21
88 0 36 67 -39 91 -102z m-2894 85 c152 -31 289 -94 401 -184 35 -28 103 -104
150 -167 4 -5 31 -42 60 -82 61 -83 115 -134 171 -162 54 -28 57 -37 22 -70
-33 -31 -40 -66 -20 -103 10 -19 9 -20 -12 -14 -13 3 -55 13 -92 21 -63 14
-109 19 -392 45 -98 8 -151 20 -270 58 -33 11 -76 23 -95 27 -19 4 -40 12 -47
17 -7 6 -14 5 -18 -2 -9 -14 0 -23 28 -27 48 -7 153 -36 162 -44 5 -5 19 -9
32 -9 13 0 23 -5 23 -12 0 -6 3 -9 6 -6 3 4 20 2 37 -3 18 -5 93 -14 167 -19
226 -17 327 -29 416 -51 l41 -11 -19 -37 c-15 -30 -16 -44 -8 -66 9 -24 8 -26
-6 -21 -9 4 -64 9 -123 12 -98 4 -169 -4 -226 -26 -97 -39 -232 -50 -582 -50
-362 0 -447 9 -534 57 -64 34 -71 57 -67 230 1 76 -2 173 -6 215 l-9 77 64 60
c50 48 74 63 114 72 63 15 199 19 239 8 17 -5 44 -12 61 -15 36 -6 248 -76
255 -84 9 -9 75 -32 92 -32 10 1 20 -3 23 -9 4 -5 14 -9 24 -9 10 0 24 -7 31
-15 7 -9 15 -13 18 -11 2 3 23 -5 46 -16 22 -12 46 -22 51 -23 6 -1 23 -6 38
-13 16 -7 32 -12 36 -12 4 0 22 -7 40 -16 31 -16 68 -13 57 5 -3 4 -22 11 -41
14 -29 5 -179 64 -300 118 -51 23 -284 101 -354 119 -85 21 -235 27 -304 11
-28 -7 -37 -6 -33 2 3 7 10 30 16 52 6 22 16 57 22 78 10 34 84 116 105 117 5
1 31 7 58 16 62 18 343 12 452 -10z m1101 -538 c37 -37 -15 -102 -63 -80 -29
13 -43 56 -25 77 15 18 71 20 88 3z m-134 -34 c45 -45 -25 -111 -88 -83 -37
17 -43 46 -15 75 26 28 79 32 103 8z m244 4 c19 -19 15 -66 -7 -78 -11 -5 -24
-10 -30 -10 -16 0 -41 30 -41 50 0 39 52 64 78 38z m-194 -64 c17 -7 22 -34 7
-34 -22 0 -39 13 -34 26 6 16 6 16 27 8z m293 -26 c18 -14 16 -38 -4 -60 -20
-22 -51 -23 -75 -1 -23 20 -23 41 -1 65 18 20 54 18 80 -4z m-172 -8 c15 -17
16 -24 7 -45 -24 -51 -102 -40 -102 15 0 49 61 68 95 30z m-266 -11 c55 -19
54 -83 -2 -103 -60 -22 -107 62 -55 98 12 9 23 16 24 16 0 0 15 -5 33 -11z
m139 -11 c5 -7 13 -23 16 -35 10 -32 -31 -58 -69 -43 -23 9 -26 14 -20 37 11
44 52 66 73 41z m186 -4 c9 -23 8 -24 -13 -24 -14 0 -18 5 -14 20 6 24 19 26
27 4z m24 -56 c7 -7 12 -24 12 -38 0 -31 -17 -50 -44 -50 -25 0 -56 28 -56 51
0 40 60 65 88 37z m128 -33 c15 -23 15 -27 0 -50 -29 -44 -86 -28 -86 25 0 53
57 69 86 25z m-439 -19 c-9 -19 -15 -22 -25 -13 -11 8 -9 13 10 23 13 8 24 13
25 14 0 0 -4 -11 -10 -24z m197 9 c9 -25 -5 -45 -30 -45 -14 0 -27 7 -30 15
-10 25 4 45 30 45 13 0 26 -7 30 -15z m-107 -21 c10 -26 -11 -49 -43 -49 -30
0 -42 20 -30 51 8 20 65 18 73 -2z m-139 -10 c31 -22 29 -67 -4 -93 -62 -49
-123 0 -88 71 21 40 54 49 92 22z m280 -55 c4 -30 -22 -46 -44 -28 -17 14 -18
46 -1 52 25 11 42 1 45 -24z m96 8 c14 -10 15 -18 7 -40 -13 -33 -32 -42 -60
-27 -27 14 -27 45 1 64 27 19 30 19 52 3z m-180 -13 c8 -21 -1 -34 -24 -34
-20 0 -30 17 -22 38 6 17 39 15 46 -4z m-129 -33 c0 -37 -1 -38 -22 -24 -19
12 -20 18 -11 39 17 37 34 29 33 -15z m423 27 c32 -32 -1 -83 -50 -76 -30 4
-42 28 -29 61 8 21 17 27 39 27 15 0 33 -5 40 -12z m-358 -27 c5 -11 7 -27 4
-35 -13 -33 -54 -9 -54 31 0 29 35 32 50 4z m-1611 -71 c31 -6 225 -11 440
-11 415 -1 379 -4 631 55 67 16 225 20 270 7 18 -5 4 -9 -50 -13 -77 -5 -104
-15 -240 -90 -68 -38 -310 -125 -421 -152 -91 -22 -185 -36 -249 -36 -82 0
-228 28 -289 56 -58 26 -196 155 -224 210 l-16 30 47 -23 c26 -12 72 -27 101
-33z m1779 18 c4 -30 -25 -52 -52 -42 -21 8 -20 50 2 63 27 17 47 8 50 -21z
m-252 -3 c24 -36 11 -73 -31 -91 -52 -21 -85 -3 -85 47 0 28 6 42 22 53 34 24
75 20 94 -9z m152 13 c21 -21 14 -48 -12 -48 -30 0 -40 13 -31 40 7 23 25 26
43 8z m467 -33 c61 -18 140 -39 175 -45 87 -17 171 -43 315 -100 152 -60 217
-93 335 -170 272 -179 438 -477 360 -648 -11 -24 -24 -41 -28 -38 -5 3 -17 27
-27 53 -10 26 -29 65 -42 85 -12 21 -23 40 -23 44 0 22 -251 284 -272 284 -4
0 -19 11 -33 24 -14 13 -44 39 -67 58 -23 18 -46 38 -52 43 -6 6 -32 27 -58
48 -26 21 -53 43 -60 50 -38 36 -150 107 -169 107 -20 0 -7 -16 31 -38 35 -20
266 -200 310 -242 9 -8 61 -53 115 -100 171 -147 212 -194 282 -329 l54 -105
-60 -60 c-33 -34 -75 -85 -94 -114 l-35 -53 -21 44 c-47 97 -182 262 -263 322
-113 83 -176 136 -217 182 -30 33 -54 52 -61 48 -14 -9 101 -129 175 -183 74
-54 156 -123 184 -156 14 -15 29 -33 35 -40 29 -30 124 -168 145 -208 13 -25
11 -31 -20 -85 -63 -106 -160 -136 -349 -108 -256 39 -441 140 -621 338 -148
163 -165 195 -209 392 -16 72 -25 150 -29 280 -6 159 -9 185 -29 222 -12 23
-22 50 -22 60 1 15 5 13 25 -10 55 -62 100 -160 166 -360 89 -268 146 -382
241 -480 24 -25 71 -75 106 -111 34 -36 69 -66 77 -66 22 0 18 18 -6 31 -12 6
-35 27 -53 47 -17 20 -59 65 -93 101 -35 36 -63 68 -63 71 0 3 -10 16 -23 30
-41 46 -115 213 -176 395 -75 228 -88 257 -145 326 -25 31 -46 58 -46 61 0 3
20 4 45 3 42 -1 50 -6 110 -70 36 -37 67 -66 70 -63 12 12 -10 41 -69 89 -33
29 -61 54 -60 58 3 25 17 71 22 71 6 0 71 -48 90 -67 8 -7 30 -26 50 -41 21
-15 46 -35 57 -45 29 -26 174 -121 224 -146 24 -13 72 -43 107 -67 34 -24 68
-44 73 -44 6 0 11 -4 11 -9 0 -5 16 -19 35 -31 20 -12 41 -27 48 -34 6 -6 31
-26 55 -45 72 -56 242 -232 296 -306 27 -38 29 -6 2 35 -32 49 -234 254 -291
296 -22 16 -44 34 -50 40 -23 25 -364 244 -381 244 -3 0 -10 5 -17 10 -68 56
-202 160 -244 188 -49 32 -60 52 -29 52 8 0 19 7 26 15 7 9 20 13 29 10 9 -4
66 -21 126 -40z m-532 -6 c5 -3 -5 -8 -21 -11 -25 -4 -31 0 -35 18 -4 20 -2
21 22 11 14 -6 30 -14 34 -18z m275 9 c7 -7 12 -22 12 -34 0 -51 -84 -66 -96
-17 -12 45 51 84 84 51z m-501 -28 c0 -54 55 -90 106 -71 21 8 26 6 40 -25 9
-19 23 -34 32 -34 19 0 19 0 -9 -62 -30 -67 -50 -128 -66 -200 -17 -73 -7
-465 11 -482 9 -8 10 5 5 54 -17 154 -17 337 0 417 29 141 78 263 107 263 10
0 26 4 36 9 14 8 25 3 48 -18 32 -29 53 -96 53 -171 0 -60 20 -140 46 -190 13
-25 37 -103 53 -175 16 -71 44 -170 62 -220 33 -87 34 -94 33 -235 -1 -170
-13 -210 -96 -335 -55 -83 -170 -189 -258 -238 l-50 -28 29 53 c49 88 70 158
97 313 34 201 34 354 0 580 -3 17 -8 61 -11 99 -4 37 -10 64 -15 60 -4 -5 -2
-58 6 -119 39 -310 40 -391 5 -595 -13 -79 -36 -188 -46 -215 -19 -56 -93
-189 -111 -202 -34 -22 -169 -46 -220 -38 -34 5 -59 18 -99 53 -29 26 -54 51
-54 55 -1 5 10 23 23 40 54 74 120 233 154 377 20 82 34 252 23 263 -8 8 -11
4 -11 -13 -2 -112 -24 -248 -56 -347 -35 -109 -126 -291 -156 -313 -17 -13
-175 8 -214 28 -93 48 -237 252 -219 311 2 9 7 39 10 68 8 69 41 163 107 304
63 132 166 321 180 330 6 4 8 15 6 25 -6 28 -66 -69 -160 -257 -81 -163 -141
-326 -153 -418 -9 -66 -17 -55 -39 51 -37 181 -9 339 97 538 17 30 47 78 68
105 57 75 211 222 326 308 109 84 172 152 235 259 22 37 41 68 42 68 2 0 3
-13 3 -30z m310 -17 c-9 -9 -20 -13 -24 -9 -4 4 -1 11 7 16 25 16 35 11 17 -7z
m-57 -13 c22 -22 26 -60 8 -78 -19 -19 -66 -14 -88 8 -24 24 -25 47 -3 72 21
24 58 23 83 -2z m139 -22 c14 -25 14 -29 -5 -55 -28 -38 -58 -41 -79 -9 -21
32 -13 73 18 86 33 13 50 8 66 -22z m16 -144 c16 -31 20 -63 23 -159 3 -143
-13 -139 -30 8 -5 51 -16 116 -23 145 -17 64 -1 68 30 6z m-971 -19 c20 -8 36
-17 36 -20 0 -14 -71 -2 -91 15 -24 19 -24 19 -3 20 12 0 38 -7 58 -15z m-669
-109 c46 -8 63 -14 50 -18 -11 -4 -45 -16 -75 -27 -65 -25 -153 -36 -206 -26
l-38 7 63 33 c92 49 99 50 206 31z m79 -306 c-25 -49 -42 -70 -55 -70 -22 0
-23 4 -8 33 10 20 89 107 97 107 2 0 -13 -31 -34 -70z m31 -345 c-7 -60 -18
-167 -24 -236 -18 -192 -59 -417 -83 -443 -4 -6 -8 -18 -8 -27 0 -26 -48 -126
-98 -204 -43 -67 -185 -217 -250 -263 l-31 -23 38 58 c47 72 90 151 120 223
33 80 54 124 60 130 4 3 7 12 7 20 1 8 18 69 37 135 20 66 54 192 76 280 22
88 53 199 70 246 34 96 90 224 95 218 2 -2 -2 -53 -9 -114z m-631 -32 c-8 -26
-20 -51 -27 -55 -6 -4 -8 -8 -3 -8 5 0 3 -7 -4 -15 -15 -18 -50 -20 -50 -2 0
10 88 127 96 127 1 0 -4 -21 -12 -47z m510 -112 c-13 -39 -46 -159 -74 -268
-28 -109 -66 -243 -85 -298 -47 -143 -132 -327 -181 -392 -13 -17 -24 -35 -24
-40 0 -4 -6 -15 -13 -24 -10 -13 -13 4 -15 90 -2 58 -5 170 -8 249 -4 102 -2
142 6 142 6 0 9 4 5 9 -9 16 13 97 47 169 34 74 92 153 141 192 48 38 155 149
190 198 17 23 31 42 32 42 1 0 -8 -31 -21 -69z"/>
</g>
</svg>
