<?xml version="1.0" standalone="no"?>
<!DOCTYPE svg PUBLIC "-//W3C//DTD SVG 20010904//EN"
 "http://www.w3.org/TR/2001/REC-SVG-20010904/DTD/svg10.dtd">
<svg version="1.0" xmlns="http://www.w3.org/2000/svg"
 width="600.000000pt" height="1067.000000pt" viewBox="0 0 600.000000 1067.000000"
 preserveAspectRatio="xMidYMid meet">
<g transform="translate(0.000000,1067.000000) scale(0.100000,-0.100000)"
fill="#000000" stroke="none">
<path d="M3330 8273 c-71 -13 -155 -50 -184 -82 -12 -13 -23 -18 -30 -12 -6 5
-36 14 -66 20 -48 10 -66 8 -141 -12 -48 -13 -113 -39 -145 -58 -68 -40 -219
-180 -279 -259 -79 -103 -145 -244 -160 -343 -5 -32 -9 -37 -23 -31 -42 19
-137 16 -210 -7 l-73 -23 -16 25 c-9 13 -44 51 -78 85 -89 88 -144 109 -300
109 -109 0 -126 -3 -185 -28 -85 -36 -192 -117 -253 -192 -58 -72 -120 -196
-144 -285 -20 -75 -23 -263 -6 -323 11 -35 10 -38 -15 -51 -44 -23 -89 -77
-119 -141 -25 -54 -28 -71 -28 -165 0 -92 3 -112 26 -160 14 -30 38 -68 53
-83 l27 -29 -21 -59 c-49 -144 0 -269 159 -400 63 -51 123 -78 238 -105 46
-10 83 -21 83 -24 0 -3 -28 -25 -61 -49 -34 -25 -75 -63 -91 -85 -44 -61 -88
-152 -88 -183 0 -52 -12 -74 -50 -93 -112 -57 -186 -248 -178 -462 l3 -98 -26
-5 c-29 -7 -43 -37 -26 -54 6 -6 32 -11 58 -11 54 0 125 -12 229 -39 41 -11
116 -25 165 -31 50 -6 115 -15 145 -20 102 -17 379 -23 480 -10 117 15 210 35
247 55 15 8 56 26 91 39 54 21 62 22 57 8 -46 -113 -66 -275 -45 -363 13 -51
80 -147 133 -189 35 -28 128 -70 154 -70 14 0 29 -14 46 -42 30 -51 168 -187
217 -215 44 -24 170 -66 280 -93 114 -27 291 -27 412 0 199 44 361 182 438
373 29 73 32 76 100 91 40 9 148 85 156 109 4 12 25 42 47 67 45 51 53 69 72
160 11 52 12 90 4 171 -5 57 -15 115 -21 129 -6 14 -14 40 -18 58 -7 29 -6 33
8 26 65 -27 149 -46 221 -49 107 -5 294 26 367 60 29 14 55 25 58 25 3 0 28
15 54 33 181 120 239 157 249 157 4 0 19 9 33 21 58 46 128 88 173 103 55 18
107 54 107 72 0 7 -12 21 -26 31 -31 21 -161 214 -171 252 -11 46 -62 151 -95
197 -42 59 -134 118 -217 140 -99 26 -111 40 -62 71 34 21 89 90 118 148 32
64 46 141 40 217 -6 66 -4 72 27 121 43 67 86 176 87 219 0 18 6 69 13 113 17
100 8 179 -34 306 -51 156 -134 242 -282 290 -92 30 -234 33 -286 7 -33 -17
-34 -17 -84 14 -69 43 -122 42 -203 -2 -33 -18 -65 -36 -71 -41 -8 -6 -13 11
-18 60 -9 101 -52 294 -75 339 -24 47 -112 129 -161 150 -49 21 -130 42 -162
42 -18 0 -28 5 -28 15 0 44 -44 126 -102 187 -70 75 -147 117 -271 149 -67 17
-184 23 -247 12z m258 -78 c85 -25 148 -61 199 -113 50 -51 93 -132 93 -174 0
-15 4 -29 9 -33 26 -15 21 -164 -9 -320 -19 -99 -61 -217 -94 -265 -17 -24
-34 -48 -38 -54 -4 -6 -11 -6 -20 1 -7 6 -56 26 -108 43 -143 49 -238 88 -307
126 -63 35 -102 43 -104 22 -1 -7 -3 -35 -4 -63 -1 -27 -8 -70 -14 -93 -11
-39 -15 -43 -34 -37 -12 4 -41 10 -64 12 -41 5 -43 6 -36 32 3 14 17 50 30 80
68 153 85 281 64 466 -5 44 -12 123 -15 175 l-6 95 33 35 c87 93 245 117 425
65z m-503 -64 c18 -7 21 -23 32 -187 23 -354 19 -397 -56 -604 l-30 -85 -61
-8 c-69 -9 -162 -41 -180 -62 -20 -24 -27 -18 -44 31 -21 62 -64 134 -80 134
-21 0 -50 -41 -76 -105 -30 -77 -86 -171 -104 -178 -16 -6 -22 18 -32 128 -6
75 -36 183 -60 220 -39 60 51 294 169 441 67 82 150 160 226 210 86 57 234 89
296 65z m965 -297 c63 -21 90 -37 129 -74 61 -58 73 -87 101 -231 29 -147 24
-205 -18 -254 -18 -19 -32 -42 -32 -49 0 -27 -98 -162 -154 -213 -57 -53 -86
-66 -86 -39 0 23 -74 110 -147 171 -37 32 -69 64 -71 71 -2 7 12 34 31 61 75
107 127 343 127 580 0 10 51 -1 120 -23z m-2237 -247 c101 -50 138 -93 172
-196 30 -90 33 -141 20 -320 -11 -162 16 -300 82 -416 23 -40 30 -75 16 -75
-5 0 -27 22 -50 49 -42 49 -80 69 -89 47 -2 -6 5 -38 16 -70 21 -62 44 -227
55 -391 l7 -100 -39 36 c-42 41 -104 81 -233 153 -47 25 -106 61 -132 79 -26
17 -86 58 -135 89 -48 32 -126 92 -173 133 -47 42 -97 83 -111 90 -57 30 -114
133 -129 233 -20 127 16 291 91 419 47 79 152 181 225 220 91 49 156 64 252
59 71 -3 95 -9 155 -39z m504 -165 c60 -42 113 -205 113 -343 0 -56 -1 -58
-53 -105 -74 -68 -194 -218 -225 -281 -14 -29 -29 -53 -33 -53 -7 0 -51 98
-68 150 -21 69 -27 177 -17 335 8 137 7 168 -7 215 -9 30 -15 55 -14 56 1 1
36 13 77 27 95 33 180 33 227 -1z m1001 -101 c60 -30 232 -98 293 -115 101
-28 303 -201 326 -278 6 -20 9 -39 6 -42 -12 -12 -55 18 -136 99 -145 143
-231 170 -399 125 -95 -25 -89 -26 -136 34 -12 16 -22 43 -22 60 0 30 22 136
28 136 1 0 19 -8 40 -19z m1307 -8 c43 -20 79 -76 66 -101 -5 -9 -19 -38 -30
-64 -12 -27 -30 -67 -41 -91 -11 -24 -20 -47 -20 -52 0 -9 -30 -76 -73 -164
-24 -48 -55 -85 -122 -148 -78 -73 -165 -133 -193 -133 -4 0 -19 24 -33 53
-14 28 -36 71 -49 94 l-24 41 33 29 c71 62 173 236 212 365 24 80 65 129 134
163 60 29 92 31 140 8z m387 -38 c129 -44 193 -107 235 -235 36 -111 46 -169
39 -229 -3 -31 -11 -93 -16 -139 -7 -65 -18 -102 -50 -168 -49 -101 -67 -115
-194 -144 -207 -48 -408 -58 -683 -34 l-71 6 -12 47 c-7 25 -18 66 -26 90 -20
63 -19 64 33 90 81 39 217 163 266 244 25 39 48 83 52 97 3 14 12 39 20 55 7
17 23 55 35 85 12 30 30 73 41 96 10 22 19 45 19 50 1 16 60 88 83 101 38 21
148 16 229 -12z m-2322 -61 c16 -44 20 -75 18 -144 l-2 -87 -69 -49 c-61 -44
-174 -155 -249 -246 -15 -18 -40 -49 -56 -68 -41 -50 -72 -108 -72 -133 0 -29
-10 -43 -37 -49 -17 -5 -28 2 -49 29 l-26 35 17 64 c31 117 135 258 300 409
84 77 101 99 135 170 21 44 42 93 45 108 9 36 20 27 45 -39z m1585 -69 c-32
-96 -114 -246 -166 -304 l-40 -45 -24 25 c-13 13 -28 43 -33 66 -9 41 -9 42
28 68 64 44 168 173 203 250 10 22 26 48 35 59 16 18 17 17 20 -12 2 -17 -8
-65 -23 -107z m-1250 -32 c4 -43 13 -96 20 -118 27 -83 28 -102 5 -125 -18
-18 -30 -21 -59 -16 -20 3 -44 6 -53 6 -9 0 -27 19 -40 41 -13 23 -48 60 -78
83 -47 37 -55 47 -52 72 6 51 61 93 153 118 97 26 96 27 104 -61z m126 71 c29
-5 38 -12 48 -39 13 -36 82 -105 106 -105 8 0 22 -16 30 -37 14 -33 14 -38 0
-54 -29 -31 -130 -47 -216 -33 -35 6 -37 9 -52 68 -9 33 -19 94 -23 134 l-6
72 38 0 c22 0 55 -3 75 -6z m497 -100 c48 -21 202 -148 202 -166 0 -14 -95 -9
-115 6 -14 9 -59 15 -140 17 -101 3 -124 7 -147 24 -31 23 -83 111 -70 119 5
3 29 8 53 12 24 4 51 10 59 15 22 13 98 0 158 -27z m-903 -114 c4 -6 23 -21
44 -34 21 -14 49 -45 66 -77 26 -47 30 -64 30 -134 0 -70 -4 -87 -31 -140
l-31 -60 -75 3 c-48 3 -78 0 -82 -7 -4 -6 -16 -11 -26 -11 -10 0 -32 -11 -48
-25 -17 -14 -34 -25 -38 -25 -5 0 -28 -15 -51 -34 l-43 -34 -41 21 c-23 11
-66 23 -96 25 -43 4 -53 8 -49 21 2 9 7 28 10 42 5 25 86 141 127 183 11 12
64 66 117 121 92 94 185 175 203 175 4 0 11 -5 14 -10z m664 -60 c41 -29 111
-41 194 -33 l72 6 -32 -31 c-17 -18 -42 -54 -55 -80 l-23 -48 -56 -1 c-40 0
-68 -6 -93 -21 -21 -12 -45 -22 -55 -22 -20 0 -75 64 -83 98 -11 39 12 91 48
108 18 9 35 22 38 30 7 18 13 18 45 -6z m-188 -71 c-9 -30 -1 -112 13 -133 8
-11 29 -37 46 -55 38 -41 32 -62 -19 -72 -18 -4 -48 -21 -66 -39 -43 -42 -76
-39 -86 9 -9 41 -81 117 -126 132 -26 8 -33 16 -33 37 0 15 -3 37 -6 50 -6 21
-4 22 49 22 48 0 61 4 90 29 43 38 147 53 138 20z m658 -5 c24 -8 67 -31 96
-51 77 -54 160 -214 215 -416 12 -44 19 -82 15 -85 -3 -4 -35 -5 -70 -4 -35 2
-83 -2 -107 -8 -57 -14 -142 -58 -181 -93 l-32 -28 -8 43 c-23 117 -93 305
-153 408 -52 92 -53 109 -1 173 55 70 137 92 226 61z m-2735 -99 c21 -30 46
-57 56 -60 10 -3 56 -40 102 -81 46 -42 121 -101 168 -131 205 -136 251 -164
348 -214 115 -60 220 -140 226 -173 12 -58 35 -250 31 -255 -3 -2 -15 5 -28
16 -12 12 -78 50 -147 85 -133 68 -314 132 -470 168 -129 29 -245 67 -304 99
-65 34 -130 102 -164 171 -23 48 -27 67 -27 145 0 104 24 172 78 222 32 29 77
62 88 62 3 1 23 -24 43 -54z m2448 -72 c14 -8 96 -169 113 -223 10 -30 24 -67
32 -83 19 -37 53 -174 53 -214 0 -46 -30 -73 -81 -73 -43 0 -180 -52 -200 -76
-18 -21 -27 -17 -42 19 -8 18 -35 52 -61 74 -45 39 -47 45 -51 100 -2 32 -8
78 -14 103 -16 69 -13 200 5 253 20 58 79 114 131 122 21 4 43 8 48 10 10 3
54 -5 67 -12z m-568 -83 c37 -45 33 -56 -24 -70 -27 -6 -54 -18 -61 -26 -17
-20 -25 -17 -38 14 -10 24 -8 36 14 85 l25 58 29 -15 c16 -9 40 -29 55 -46z
m-932 -92 c18 -28 41 -63 50 -77 21 -30 24 -138 8 -258 -11 -87 10 -344 35
-413 9 -25 12 -40 6 -35 -5 6 -20 46 -34 91 -26 81 -46 222 -67 454 -11 117
-24 214 -37 268 -8 34 2 26 39 -30z m1184 35 c-15 -37 -17 -133 -6 -208 7 -44
13 -96 14 -115 l1 -35 -74 -2 -74 -2 -70 54 c-38 30 -89 62 -114 72 -41 17
-44 20 -39 47 3 16 6 44 6 62 0 31 3 34 52 49 55 16 125 20 144 7 21 -13 34
-85 34 -187 0 -68 3 -95 10 -85 13 20 13 137 -1 201 -10 44 -9 53 4 61 18 9
29 20 70 67 29 33 53 42 43 14z m-433 -44 c21 -26 24 -137 5 -160 -7 -9 -33
-21 -58 -28 -60 -18 -119 -48 -152 -78 l-26 -25 -25 49 c-14 27 -44 68 -67 92
l-42 43 24 25 c12 14 39 33 59 43 19 10 41 26 48 34 8 9 24 16 37 16 12 0 26
5 30 11 5 8 30 10 78 6 56 -5 75 -11 89 -28z m-486 -105 c26 -9 58 -26 69 -38
12 -11 36 -34 54 -51 59 -55 121 -206 100 -244 -20 -37 -50 -222 -56 -341 -6
-107 5 -206 32 -316 7 -26 6 -27 -27 -20 -53 10 -162 81 -204 131 -20 26 -46
70 -57 98 -11 29 -24 57 -29 63 -41 50 -87 371 -69 493 5 36 10 101 10 143 0
63 3 79 18 87 26 16 106 13 159 -5z m2807 -94 c-1 -30 -8 -80 -17 -110 -19
-66 -87 -171 -122 -190 -24 -13 -27 -11 -60 28 -66 76 -197 132 -310 132 -60
0 -122 -18 -205 -59 l-62 -31 7 42 c4 24 16 67 27 98 10 30 22 63 25 73 5 17
-2 18 -83 15 -74 -2 -89 0 -89 12 0 17 9 17 260 4 171 -8 351 8 502 45 126 31
128 30 127 -59z m-2188 -90 c107 -72 109 -75 97 -103 -12 -27 -53 -190 -77
-309 -20 -98 -21 -269 -1 -345 21 -79 19 -94 -5 -63 -32 39 -48 114 -60 270
-6 80 -12 164 -14 187 -2 23 -17 71 -34 107 -26 56 -38 69 -84 95 -29 17 -77
36 -105 42 -60 12 -67 28 -30 69 35 39 51 49 108 70 88 32 137 27 205 -20z
m1394 37 c0 -2 -20 -66 -45 -142 -25 -77 -45 -145 -45 -151 0 -7 -7 -25 -15
-40 -8 -16 -15 -37 -15 -47 0 -26 -62 -156 -101 -214 -40 -60 -151 -179 -198
-215 -41 -30 -153 -71 -184 -66 -18 3 -15 9 24 57 70 86 93 120 142 216 82
157 148 316 187 450 l38 130 98 11 c55 6 102 12 107 13 4 0 7 0 7 -2z m-3266
-52 c80 -45 147 -67 321 -110 190 -46 353 -104 493 -175 145 -73 225 -138 131
-105 -91 32 -220 12 -321 -51 l-60 -36 -116 4 c-117 5 -254 33 -315 65 -102
52 -218 182 -233 260 -11 56 11 183 32 183 3 0 34 -16 68 -35z m3036 33 c0
-17 -82 -263 -97 -293 -11 -22 -37 -80 -58 -130 -20 -49 -57 -128 -82 -173
-45 -85 -166 -254 -187 -261 -6 -2 -22 -14 -36 -27 -53 -49 -224 -114 -300
-114 -60 0 -82 10 -76 34 3 12 19 71 35 131 25 90 30 130 31 218 0 113 -1 108
59 202 82 127 182 198 280 199 l46 1 -1 -150 c-1 -165 -27 -309 -78 -435 -29
-72 -32 -87 -12 -71 23 19 63 141 92 276 22 107 25 145 23 251 l-4 125 75 78
c81 85 113 108 175 127 34 11 115 19 115 12z m-833 -135 c17 -10 57 -42 88
-72 l57 -54 -21 -26 c-70 -87 -126 -186 -162 -283 -35 -97 -156 -343 -175
-359 -40 -33 -80 81 -94 271 -7 94 -5 119 21 245 35 169 54 255 63 276 11 25
179 26 223 2z m1414 -7 c117 -25 177 -70 248 -183 34 -54 34 -73 1 -73 -55 0
-230 -92 -446 -235 -68 -45 -174 -107 -237 -140 -101 -51 -124 -59 -191 -64
-42 -4 -78 -5 -80 -4 -2 2 33 40 76 86 133 138 186 230 243 422 21 70 61 112
142 150 41 20 135 49 173 54 3 0 35 -6 71 -13z m-1973 -74 c91 -44 117 -117
126 -352 6 -174 25 -246 85 -325 23 -30 41 -57 41 -60 0 -12 -184 -4 -233 11
-79 24 -144 55 -167 79 -52 55 -71 340 -35 524 8 40 15 81 15 91 0 10 5 31 10
45 10 26 13 27 58 20 26 -4 71 -19 100 -33z m2426 -226 c95 -47 141 -106 200
-261 14 -38 42 -92 60 -120 34 -50 34 -50 11 -53 -13 -2 -63 13 -112 34 -169
70 -340 56 -828 -68 -115 -29 -126 -30 -265 -24 -80 3 -174 12 -210 21 -78 17
-80 17 -80 6 0 -15 178 -42 314 -48 123 -5 138 -3 251 25 273 69 497 112 585
112 l55 -1 -80 -38 c-44 -21 -93 -52 -109 -70 -24 -25 -38 -31 -70 -32 -73 -1
-168 -33 -241 -81 l-70 -46 -115 9 c-63 5 -151 18 -195 28 -119 28 -165 34
-165 23 0 -6 19 -13 43 -17 23 -4 78 -16 122 -26 44 -11 128 -22 188 -26 59
-3 107 -9 107 -13 0 -35 -128 -115 -212 -132 -53 -11 -61 -10 -72 3 -6 9 -31
40 -56 69 -25 29 -48 58 -53 65 -4 8 -31 30 -60 51 -28 20 -68 52 -87 70 -19
17 -55 44 -79 59 l-45 28 29 15 c16 8 74 18 129 22 144 11 251 58 506 225 168
110 316 192 381 210 73 20 157 13 223 -19z m-3106 -60 c21 -14 43 -26 50 -26
6 0 22 -21 35 -48 91 -181 229 -300 388 -333 30 -6 72 -21 94 -34 22 -13 60
-29 85 -36 88 -26 -3 -22 -138 6 -93 19 -156 39 -237 76 -171 77 -282 136
-384 203 -52 33 -126 75 -164 91 -39 17 -72 35 -74 42 -5 15 77 63 136 80 71
20 164 11 209 -21z m1272 -250 c-5 -28 -22 -90 -37 -138 l-26 -88 -36 0 c-20
0 -45 7 -55 15 -18 14 -16 20 51 152 39 76 79 161 89 188 l19 50 3 -64 c2 -35
-2 -87 -8 -115z m-1548 130 c30 -13 99 -53 154 -89 110 -71 200 -119 370 -197
138 -63 300 -99 462 -105 61 -2 112 -7 113 -11 2 -24 -221 -74 -327 -74 -104
0 -339 42 -514 91 -284 80 -295 81 -520 77 -107 -2 -203 -7 -212 -12 -53 -24
11 133 82 204 69 69 149 109 265 134 45 9 75 5 127 -18z m3535 -298 c32 -12
90 -29 128 -38 l70 -16 -46 -16 c-25 -9 -72 -36 -105 -60 -32 -25 -74 -53 -92
-62 -39 -20 -130 -79 -191 -124 -130 -95 -318 -147 -511 -140 -91 4 -126 9
-167 27 -79 35 -84 47 -22 55 65 9 175 70 225 126 78 86 155 121 299 136 52 5
63 10 95 44 78 85 202 112 317 68z m-1438 -39 c95 -54 236 -184 322 -299 84
-111 137 -323 109 -431 -21 -77 -103 -231 -146 -274 -48 -47 -112 -75 -124
-54 -5 7 -18 44 -30 83 -46 152 -124 345 -181 446 -11 19 -35 68 -54 109 -41
85 -169 307 -196 337 -19 20 -18 21 49 66 62 42 72 46 131 47 55 1 73 -4 120
-30z m-2064 -12 c33 -8 110 -29 170 -46 230 -65 483 -107 607 -99 118 8 266
45 295 74 29 29 30 12 1 -34 -13 -21 -24 -30 -26 -23 -3 8 -24 -6 -56 -37 -90
-88 -243 -134 -451 -136 -143 -1 -204 10 -301 55 -146 67 -314 76 -469 25 -75
-25 -155 -71 -182 -104 -7 -9 -36 -16 -73 -18 -82 -5 -173 -46 -227 -101 -24
-24 -43 -48 -43 -53 0 -6 -5 -10 -11 -10 -17 0 -4 106 25 210 33 119 70 178
132 212 27 15 57 39 66 55 30 47 62 53 283 48 126 -2 222 -9 260 -18z m1323
-51 c28 -17 65 -27 144 -37 106 -13 152 -8 239 26 21 8 50 -22 88 -90 15 -27
50 -88 76 -135 26 -47 59 -112 71 -144 13 -33 30 -66 38 -75 31 -37 143 -298
187 -441 44 -141 44 -134 15 -163 -14 -14 -26 -33 -26 -41 0 -43 -104 -211
-162 -262 -56 -49 -159 -101 -233 -119 -96 -22 -289 -23 -380 -1 -83 20 -233
69 -272 90 -40 21 -166 154 -193 203 -27 49 -25 54 47 180 82 144 156 331 196
498 34 137 53 418 34 493 -7 25 -5 32 6 32 20 0 41 -125 40 -240 -2 -144 -39
-364 -97 -570 -46 -162 -63 -212 -110 -322 -47 -110 -52 -128 -38 -128 16 0
123 257 147 352 9 35 29 110 45 168 63 225 88 536 55 674 -8 33 -12 63 -9 68
10 15 55 8 92 -16z m-142 -32 c3 -25 3 -94 0 -153 -19 -292 -69 -469 -218
-768 l-91 -183 -41 6 c-56 9 -132 51 -167 94 -55 66 -69 108 -69 208 0 95 29
235 58 279 8 13 46 44 86 70 39 26 94 68 121 93 28 25 71 62 96 82 79 63 189
228 189 283 0 54 27 46 36 -11z m-163 -101 c-4 -10 -26 -41 -51 -70 -74 -88
-197 -118 -391 -94 -125 16 -148 29 -51 30 136 1 320 32 341 57 6 8 22 14 34
14 13 0 45 18 72 39 57 47 54 45 46 24z m-945 -79 c42 -8 100 -26 127 -39 177
-83 305 -115 469 -117 l107 -1 -32 -26 c-44 -35 -96 -67 -139 -86 -19 -8 -53
-24 -75 -35 -157 -77 -265 -100 -494 -107 -150 -4 -220 -1 -380 16 -108 12
-232 31 -276 42 -45 10 -97 19 -117 19 -45 0 -57 15 -26 31 13 6 46 35 73 64
28 29 61 56 75 60 14 4 31 12 38 18 7 6 52 13 99 17 75 6 89 10 107 32 35 41
77 65 166 91 142 43 164 44 278 21z"/>
</g>
</svg>
