<?xml version="1.0" standalone="no"?>
<!DOCTYPE svg PUBLIC "-//W3C//DTD SVG 20010904//EN"
 "http://www.w3.org/TR/2001/REC-SVG-20010904/DTD/svg10.dtd">
<svg version="1.0" xmlns="http://www.w3.org/2000/svg"
 width="540.000000pt" height="540.000000pt" viewBox="0 0 540.000000 540.000000"
 preserveAspectRatio="xMidYMid meet">
<g transform="translate(0.000000,540.000000) scale(0.100000,-0.100000)"
fill="#000000" stroke="none">
<path d="M2316 5384 c-94 -21 -171 -53 -269 -113 -100 -62 -150 -80 -248 -91
-159 -18 -268 -77 -415 -224 -55 -56 -124 -136 -152 -178 -54 -81 -142 -244
-142 -264 0 -7 -26 -14 -63 -18 -249 -25 -494 -178 -613 -382 -45 -76 -75
-173 -85 -273 -11 -108 -16 -118 -77 -186 -248 -275 -106 -800 291 -1084 l74
-53 -72 -72 c-113 -111 -159 -222 -158 -381 2 -165 68 -304 191 -397 49 -38
87 -55 177 -84 63 -20 115 -37 115 -39 0 -1 -19 -15 -43 -30 -141 -94 -307
-318 -277 -375 6 -11 20 -20 31 -20 20 0 20 0 1 -28 -37 -51 -83 -154 -105
-231 -20 -71 -21 -95 -19 -364 2 -228 -1 -301 -13 -353 -35 -149 -23 -156 176
-108 120 29 288 64 310 64 3 0 13 -18 22 -39 10 -22 26 -41 39 -44 28 -8 110
8 253 48 225 64 209 62 252 25 34 -31 39 -32 91 -26 133 16 290 108 458 269
109 105 112 106 129 87 37 -41 85 -20 173 74 163 175 271 417 272 609 l0 57
73 -61 c169 -143 363 -234 587 -275 128 -24 370 -23 505 0 299 53 531 188 636
372 24 42 36 53 72 64 112 33 250 123 344 223 79 85 125 162 164 278 27 79 33
114 37 214 4 102 1 133 -17 205 -29 109 -79 198 -157 279 -63 64 -63 65 -41
80 59 41 209 186 267 258 85 105 127 176 164 276 29 77 30 90 30 227 1 163
-13 221 -80 333 -40 69 -43 105 -13 197 87 268 -92 556 -406 656 -105 34 -213
54 -285 54 l-58 0 -22 68 c-37 111 -90 202 -160 273 -78 79 -153 120 -288 155
-143 37 -201 72 -267 160 -103 136 -167 169 -325 168 -112 -2 -222 -33 -338
-96 l-74 -39 -37 24 c-68 45 -178 96 -253 117 -100 28 -271 35 -362 14z m389
-78 c108 -36 210 -96 281 -164 l59 -56 -120 -7 c-139 -7 -217 -21 -330 -56
-158 -50 -317 -147 -424 -258 -51 -52 -68 -64 -103 -70 -215 -33 -349 -122
-438 -289 l-35 -65 -82 -26 c-137 -42 -278 -154 -350 -276 -10 -16 -20 -29
-24 -29 -3 0 -14 28 -25 63 -29 94 -27 269 5 362 64 189 171 355 323 500 122
118 220 171 343 185 109 12 166 31 260 86 204 120 256 135 445 131 114 -3 147
-8 215 -31z m832 -24 c23 -12 61 -45 85 -73 130 -157 176 -187 353 -234 120
-31 171 -59 250 -139 201 -202 254 -673 116 -1032 -43 -112 -188 -354 -212
-354 -3 0 -14 17 -23 39 -16 35 -17 41 -3 62 30 45 85 204 101 288 20 105 20
174 0 260 -20 89 -60 152 -119 187 -125 73 -268 20 -356 -132 l-24 -41 -1 111
c-6 469 -189 751 -543 836 -32 7 -55 19 -62 32 -6 11 -27 37 -46 59 -20 22
-34 41 -32 43 19 17 127 68 179 84 90 29 103 31 205 28 70 -2 99 -7 132 -24z
m-370 -282 c271 -70 431 -276 472 -610 26 -209 2 -467 -66 -690 l-25 -85 -38
110 c-65 190 -158 418 -200 485 -85 138 -222 260 -310 275 -30 5 -50 2 -79
-12 l-39 -20 -64 50 c-76 60 -155 100 -268 139 -87 30 -242 58 -317 58 -24 0
-43 2 -43 5 0 12 100 99 160 139 150 101 316 159 515 180 72 7 226 -5 302 -24z
m-775 -375 c106 -18 240 -63 313 -105 30 -17 55 -34 55 -36 0 -3 -10 1 -22 8
-35 19 -201 15 -278 -6 -149 -41 -278 -134 -325 -233 -21 -45 -22 -45 -158
-69 -47 -8 -98 -42 -115 -76 -6 -14 -39 -151 -73 -305 -33 -153 -64 -286 -68
-297 -6 -15 -13 -5 -39 47 -115 232 -135 510 -53 728 72 191 196 305 372 344
86 18 287 18 391 0z m2288 -166 c223 -56 361 -156 438 -317 34 -71 37 -84 37
-167 0 -69 -6 -106 -24 -159 -29 -86 -25 -128 24 -207 52 -84 75 -161 82 -265
14 -214 -81 -415 -294 -626 -115 -114 -147 -140 -268 -220 -228 -152 -494
-246 -745 -263 -47 -4 -95 -8 -108 -11 -19 -4 -14 6 31 59 150 177 251 382
298 610 25 119 30 335 11 432 -11 55 -11 62 8 85 11 14 47 65 81 114 164 242
227 464 216 765 -3 86 -9 167 -13 180 l-7 24 79 -8 c43 -4 113 -16 154 -26z
m-3629 -66 c-6 -21 -11 -85 -11 -143 0 -109 14 -184 50 -269 20 -45 20 -49 4
-91 -25 -69 -31 -278 -10 -359 21 -83 63 -175 102 -227 30 -39 31 -43 37 -185
12 -271 102 -541 243 -729 30 -39 54 -72 54 -73 0 -2 -46 1 -102 5 -599 47
-1049 333 -1195 759 -43 125 -53 241 -29 342 21 89 45 134 110 206 58 66 71
100 81 219 12 142 69 257 184 373 81 80 155 129 263 172 70 29 221 59 226 46
2 -4 -1 -25 -7 -46z m1751 20 c97 -46 191 -140 212 -212 19 -64 21 -150 4
-220 -11 -47 -28 -61 -28 -22 0 30 -79 142 -145 207 -76 74 -145 110 -243 125
-175 26 -348 -48 -465 -201 l-27 -35 19 56 c58 170 141 255 304 311 74 26 93
28 192 26 99 -3 116 -6 177 -35z m278 -25 c73 -49 150 -138 204 -238 38 -71
39 -74 27 -123 -6 -27 -30 -88 -53 -136 l-42 -86 -7 85 c-12 145 -105 334
-233 477 -25 28 -43 53 -39 57 3 3 23 6 44 6 26 0 54 -11 99 -42z m-1515 -125
c-60 -156 -49 -421 26 -626 94 -260 231 -397 564 -565 191 -97 314 -180 413
-279 84 -85 108 -124 48 -78 -79 60 -283 133 -597 214 -257 66 -333 91 -464
155 -184 90 -298 190 -368 323 -49 93 -67 169 -67 278 0 166 56 308 168 426
69 74 117 107 210 145 69 28 76 29 67 7z m2503 -29 c27 -18 64 -75 83 -129 19
-56 16 -213 -6 -300 -24 -94 -81 -219 -178 -389 -226 -398 -369 -540 -812
-806 -299 -180 -528 -347 -694 -505 -88 -84 -89 -80 -10 47 120 195 252 345
505 573 249 227 376 371 495 567 95 157 138 264 214 538 78 278 146 392 252
423 52 15 110 8 151 -19z m-1453 5 c105 -19 165 -63 150 -109 -7 -23 -18 -25
-34 -6 -6 8 -35 24 -63 36 -138 59 -342 -17 -426 -158 -24 -42 -27 -56 -25
-126 1 -51 -3 -89 -12 -105 l-14 -26 -24 55 c-13 30 -30 81 -37 113 l-13 57
48 71 c56 81 109 128 187 164 94 43 166 52 263 34z m-535 -98 c0 -6 -26 -121
-86 -381 -5 -23 -7 -22 -33 20 -58 95 -81 194 -62 266 16 61 30 73 101 88 81
18 80 18 80 7z m1019 -39 c67 -132 80 -297 29 -383 -59 -100 -267 -206 -468
-238 -119 -19 -241 23 -345 120 -77 72 -95 103 -73 125 14 14 20 11 64 -33 72
-71 161 -115 245 -121 40 -3 88 1 116 8 234 63 430 307 411 511 -3 27 -4 49
-2 49 2 0 12 -17 23 -38z m-419 -2 c37 -20 80 -80 80 -113 0 -50 -14 -63 -34
-33 -27 41 -73 59 -148 58 -36 0 -83 -8 -103 -16 -48 -20 -46 -21 -38 17 13
70 47 102 118 109 34 4 99 -8 125 -22z m195 -47 c55 -58 89 -141 80 -193 -10
-53 -111 -147 -210 -196 -73 -36 -85 -39 -164 -39 -74 0 -93 4 -139 28 -129
67 -197 176 -178 281 7 39 68 112 117 140 32 19 32 19 24 0 -15 -35 -18 -141
-5 -181 27 -85 95 -143 167 -143 60 0 87 13 150 72 84 80 109 144 83 213 -10
25 4 65 22 65 4 0 28 -21 53 -47z m523 -165 c22 -57 59 -159 82 -228 l41 -124
-45 -91 c-51 -103 -154 -260 -232 -356 -56 -69 -274 -285 -410 -406 l-81 -72
-13 27 c-36 72 -106 166 -165 220 -83 78 -245 185 -398 263 l-120 61 29 24
c138 116 262 167 510 209 386 67 569 186 710 463 24 47 44 92 44 99 0 28 10
10 48 -89z m-730 55 c36 -27 39 -59 10 -90 -45 -49 -115 -66 -166 -39 -32 17
-75 87 -66 110 3 9 7 16 8 16 0 0 19 7 41 15 53 20 138 14 173 -12z m-569 -95
c22 -73 80 -174 137 -237 l55 -60 -70 29 c-62 25 -114 56 -174 104 -17 13 -17
18 4 110 12 53 25 96 29 96 4 0 12 -19 19 -42z m-204 -45 c74 -151 191 -235
428 -310 l147 -47 -82 -23 c-119 -33 -233 -93 -305 -157 -33 -31 -65 -56 -71
-56 -18 0 -148 99 -201 153 l-54 56 11 58 c17 87 86 403 87 403 1 0 19 -35 40
-77z m2195 -410 c58 -189 43 -428 -42 -673 -100 -283 -301 -524 -547 -653
-234 -124 -550 -182 -862 -157 -147 11 -271 30 -267 40 5 12 183 176 268 246
120 100 314 233 536 367 359 216 503 334 655 540 59 79 173 262 205 329 9 20
21 35 25 32 5 -3 18 -34 29 -71z m-2736 -252 c139 -105 320 -179 646 -262 326
-84 505 -150 633 -234 100 -66 96 -58 46 -112 -133 -143 -268 -335 -339 -482
l-45 -93 -45 7 c-70 11 -244 71 -333 115 -224 112 -421 313 -518 527 -74 162
-116 325 -126 492 -5 84 -4 103 7 96 7 -4 40 -29 74 -54z m3516 -765 c175
-231 153 -588 -51 -834 -82 -99 -236 -202 -354 -236 -33 -10 -47 -23 -82 -76
-111 -169 -262 -268 -508 -331 -101 -26 -145 -32 -281 -36 -101 -4 -193 -1
-245 6 -264 38 -484 140 -676 316 -35 31 -63 60 -63 63 0 4 33 27 73 52 78 48
223 181 267 246 49 70 91 163 114 246 l21 81 100 23 c191 43 347 112 488 217
l79 58 115 5 c125 4 312 38 437 79 104 34 281 120 376 182 l75 50 38 -30 c21
-16 56 -53 77 -81z m-4139 75 c183 -99 444 -164 748 -187 l95 -6 75 -63 c138
-114 269 -185 440 -242 216 -71 615 -117 826 -95 60 6 111 10 112 8 8 -8 -33
-132 -66 -201 -76 -155 -253 -312 -476 -421 -150 -74 -273 -104 -420 -104
-115 0 -126 2 -365 70 -42 12 -99 19 -163 19 -131 1 -235 23 -334 72 -97 47
-174 114 -238 209 -52 75 -74 90 -184 121 -36 10 -89 30 -117 44 -59 29 -142
112 -173 173 -69 136 -67 318 7 456 28 54 143 176 165 176 8 0 38 -13 68 -29z
m212 -998 c120 -163 294 -255 517 -276 30 -3 32 -4 15 -12 -11 -5 -42 -22 -69
-38 l-49 -28 -141 11 c-174 14 -290 3 -376 -36 -32 -14 -67 -35 -76 -45 -22
-24 -14 -24 28 0 71 41 146 56 283 54 72 -1 152 -5 179 -10 l49 -8 -54 -41
c-30 -23 -99 -84 -155 -137 -96 -92 -103 -96 -163 -107 -84 -15 -192 -52 -233
-80 -62 -43 -118 -91 -118 -102 0 -5 17 4 38 20 53 42 168 98 239 116 112 29
113 26 25 -76 -138 -163 -256 -332 -352 -508 -44 -82 -51 -90 -45 -55 21 118
24 190 18 395 -8 309 11 403 113 563 24 37 44 73 44 80 0 19 -21 37 -43 37
-13 0 -17 5 -13 16 12 30 78 124 124 176 45 49 155 138 172 138 5 0 24 -21 43
-47z m1632 -277 c9 -57 -10 -203 -36 -280 -47 -138 -134 -279 -232 -375 -75
-74 -84 -78 -111 -52 -12 12 -31 21 -42 21 -11 0 -61 -42 -119 -101 -155 -156
-291 -243 -422 -270 l-63 -13 -31 32 c-44 45 -21 47 -354 -43 -71 -19 -136
-35 -143 -35 -7 0 -19 15 -27 33 -25 61 -34 63 -153 39 -59 -11 -158 -33 -221
-47 -62 -14 -115 -24 -117 -22 -8 8 221 341 319 462 107 134 373 413 383 402
7 -7 -12 -204 -31 -310 -15 -88 -46 -189 -76 -251 -23 -49 -18 -57 10 -17 70
99 128 332 143 581 3 44 5 46 73 92 78 52 216 128 234 128 8 0 11 -57 11 -197
-1 -210 -13 -308 -49 -402 -26 -70 -20 -78 12 -14 54 106 80 270 71 445 -7
119 4 182 32 186 11 2 70 -13 131 -32 62 -19 135 -38 162 -42 48 -6 51 -8 58
-43 5 -20 8 -110 8 -201 -1 -154 -3 -171 -29 -245 -15 -44 -38 -97 -52 -117
-30 -47 -31 -58 0 -29 33 31 84 146 103 233 16 75 21 271 8 346 l-6 40 78 7
c43 3 110 13 148 21 39 8 73 14 76 14 14 0 30 -99 30 -180 0 -57 -7 -108 -20
-150 -11 -35 -18 -66 -16 -69 9 -8 45 88 56 146 11 54 7 202 -6 248 -5 17 8
26 92 61 54 23 101 42 105 43 4 1 10 -19 13 -43z"/>
</g>
</svg>
