<?xml version="1.0" standalone="no"?>
<!DOCTYPE svg PUBLIC "-//W3C//DTD SVG 20010904//EN"
 "http://www.w3.org/TR/2001/REC-SVG-20010904/DTD/svg10.dtd">
<svg version="1.0" xmlns="http://www.w3.org/2000/svg"
 width="600.000000pt" height="900.000000pt" viewBox="0 0 600.000000 900.000000"
 preserveAspectRatio="xMidYMid meet">
<g transform="translate(0.000000,900.000000) scale(0.100000,-0.100000)"
fill="#000000" stroke="none">
<path d="M2808 7160 c-15 -4 -41 -18 -58 -30 -19 -14 -37 -19 -48 -15 -107 45
-267 3 -379 -101 l-46 -43 -59 15 c-160 41 -298 -73 -368 -303 -29 -98 -39
-104 -92 -59 -93 80 -260 86 -351 13 -15 -12 -40 -44 -55 -71 -25 -46 -31 -50
-88 -66 -76 -20 -154 -69 -198 -124 -42 -52 -60 -86 -81 -158 -14 -50 -26 -66
-98 -133 -150 -139 -172 -183 -186 -361 -7 -99 -11 -117 -49 -194 -53 -108
-72 -184 -72 -286 0 -170 89 -314 235 -380 54 -25 75 -28 215 -34 175 -7 176
-7 289 -96 l73 -57 -60 -32 c-34 -18 -75 -44 -93 -59 -22 -19 -39 -26 -53 -21
-230 67 -446 81 -594 39 -71 -21 -132 -69 -161 -127 -22 -44 -23 -52 -12 -108
11 -56 10 -64 -13 -124 -29 -71 -33 -142 -12 -183 8 -15 33 -51 55 -81 29 -39
43 -68 47 -103 8 -58 41 -95 142 -154 112 -67 146 -78 256 -79 l99 -1 24 -48
c35 -69 101 -130 182 -168 39 -18 72 -38 75 -45 3 -6 -11 -46 -29 -90 -55
-124 -69 -206 -56 -315 12 -106 41 -173 102 -239 50 -54 54 -62 63 -118 10
-67 55 -151 108 -203 63 -61 126 -83 239 -82 l86 0 23 -44 c58 -109 232 -191
406 -192 121 0 218 38 309 120 52 47 59 50 108 50 l52 0 11 -57 c30 -156 130
-266 273 -299 31 -8 103 -14 159 -14 91 0 113 -4 177 -29 187 -75 293 -61 416
54 50 48 61 54 115 60 143 17 223 91 280 262 32 96 36 209 9 308 -16 56 -16
68 -4 75 34 22 89 20 196 -4 131 -30 140 -31 218 -11 112 29 197 108 245 228
15 38 33 64 54 78 53 36 116 111 149 179 30 60 32 72 32 165 0 92 -3 106 -30
162 l-31 61 63 31 c84 41 226 133 290 188 35 30 62 65 84 109 30 60 31 69 25
132 -4 37 -9 81 -12 97 -5 25 3 41 51 103 127 162 150 248 96 358 -15 32 -33
84 -40 114 -22 103 -89 204 -167 248 -18 11 -16 14 22 49 58 52 93 104 110
158 7 26 36 83 63 128 63 104 93 192 99 289 6 96 -8 156 -56 233 -33 55 -36
67 -38 142 -2 89 -15 139 -49 193 -64 102 -222 180 -363 180 l-54 0 7 49 c10
72 -9 129 -59 176 -23 22 -53 61 -65 87 -46 96 -155 155 -271 146 -30 -3 -90
-19 -132 -36 l-78 -31 -47 20 c-32 14 -71 21 -116 21 -58 1 -78 -4 -141 -35
-44 -22 -101 -63 -143 -102 l-71 -65 -50 80 c-39 61 -64 88 -106 115 -38 24
-56 42 -56 56 0 49 -69 127 -136 155 -40 17 -54 40 -54 89 0 106 -81 170 -247
195 -78 12 -141 9 -265 -12 -56 -9 -72 -8 -107 6 -44 17 -89 19 -133 6z m129
-55 l36 -15 -5 -103 c-4 -72 -13 -124 -31 -177 -14 -41 -46 -136 -71 -210 -75
-219 -99 -352 -100 -560 -1 -133 3 -195 17 -260 21 -99 65 -237 77 -245 5 -3
4 9 -2 27 -49 158 -60 226 -65 403 -4 153 -2 198 16 302 25 148 58 270 117
425 59 159 74 222 74 311 0 47 4 79 12 83 23 15 135 33 198 33 76 0 169 -18
222 -43 46 -22 80 -75 81 -124 1 -32 -7 -45 -59 -97 -52 -52 -65 -74 -103
-170 -50 -127 -90 -202 -178 -337 -107 -163 -171 -323 -161 -403 3 -24 7 -15
20 42 24 99 62 179 158 329 90 141 140 235 177 334 35 94 53 131 81 168 37 51
58 54 127 20 69 -34 101 -61 121 -101 18 -33 11 -47 -22 -47 -36 0 -97 -34
-129 -72 -52 -62 -68 -113 -69 -223 -1 -86 3 -112 28 -185 22 -64 29 -105 30
-165 1 -94 -10 -122 -129 -310 -75 -119 -107 -188 -120 -258 -6 -31 -11 -37
-32 -37 -24 0 -25 2 -19 44 4 25 18 72 31 105 13 34 20 61 15 61 -12 0 -50
-95 -57 -145 -4 -36 -10 -45 -25 -45 -11 0 -29 -5 -40 -11 -19 -10 -20 -9 -14
12 4 13 12 69 17 124 24 273 83 462 191 618 35 50 13 51 -24 1 -118 -161 -170
-331 -197 -642 -12 -130 -23 -161 -66 -180 -26 -12 -35 1 -11 15 11 6 12 20 5
64 -5 31 -10 127 -11 215 -2 87 -8 167 -13 176 -12 20 -12 -280 0 -380 5 -47
3 -61 -9 -71 -10 -8 -16 -30 -17 -55 0 -38 -1 -36 -19 31 -10 39 -28 90 -40
112 -26 51 -63 387 -55 490 12 138 70 331 190 641 29 74 38 113 41 175 5 92 1
89 -20 -12 -8 -40 -31 -112 -50 -160 -122 -306 -176 -488 -192 -645 -10 -105
28 -413 61 -500 6 -15 2 -18 -21 -18 -47 0 -92 -34 -99 -74 -9 -46 6 -88 35
-103 20 -10 28 -30 52 -130 15 -65 36 -145 47 -177 25 -71 25 -66 3 -66 -12 0
-29 24 -54 78 -20 42 -55 105 -76 140 -35 55 -40 69 -39 121 0 67 -21 111 -53
111 -21 0 -27 15 -11 24 5 4 11 0 14 -6 5 -14 -2 75 -8 107 -2 11 -14 25 -27
30 -18 8 -24 21 -30 60 -3 28 -16 79 -28 115 -60 184 -105 416 -134 695 -28
269 -64 391 -146 494 l-43 55 48 44 c90 81 207 122 290 101 24 -6 51 -20 61
-30 17 -18 18 -18 65 26 41 38 54 45 89 45 22 0 57 -7 77 -15z m-723 -166 c51
-14 127 -92 166 -170 46 -91 71 -212 101 -504 14 -134 68 -399 114 -549 35
-117 46 -176 34 -176 -16 0 -199 203 -261 291 -109 152 -200 355 -264 588 -56
202 -72 216 -34 30 39 -192 141 -436 245 -589 65 -96 113 -154 222 -271 60
-63 74 -83 62 -90 -8 -5 -19 -9 -25 -9 -21 0 -293 276 -348 354 -70 99 -74 76
-5 -30 35 -53 97 -123 190 -213 113 -109 139 -139 139 -162 0 -42 17 -78 52
-110 28 -27 29 -31 16 -47 -26 -29 -30 -59 -13 -92 11 -20 23 -30 39 -30 28 0
68 -46 149 -173 62 -95 82 -145 54 -134 -39 15 -226 180 -236 208 -7 20 -19
31 -38 35 -41 9 -96 83 -105 141 -5 37 -14 54 -40 76 -18 15 -42 27 -54 27
-27 0 -84 -52 -84 -77 0 -38 22 -93 43 -108 27 -19 71 -19 87 0 18 22 26 19
55 -19 l26 -34 -21 -34 c-29 -48 -27 -105 7 -140 16 -17 21 -28 13 -28 -22 0
-77 48 -84 72 -3 13 -37 47 -75 77 -64 49 -70 57 -73 94 -3 36 -8 44 -45 66
-50 30 -127 123 -180 219 -53 94 -88 200 -112 336 -22 123 -41 170 -98 249
-93 127 -128 303 -83 420 12 31 29 65 38 74 16 16 17 13 23 -43 7 -76 31 -148
86 -257 40 -81 109 -174 121 -163 3 3 -14 34 -36 68 -50 77 -116 217 -131 280
-17 73 -14 155 8 186 10 15 31 65 46 112 34 105 66 162 115 203 63 53 121 66
194 46z m-561 -310 c20 -6 53 -23 72 -40 l34 -30 -32 -62 c-31 -59 -32 -65
-32 -181 1 -107 4 -129 28 -190 15 -37 27 -70 27 -71 0 -2 -14 -8 -30 -14 -28
-9 -32 -8 -39 12 -17 42 -113 252 -118 257 -22 21 74 -236 99 -267 7 -9 -11
-32 -62 -81 l-71 -68 -14 33 c-8 18 -29 59 -47 90 -19 32 -47 89 -63 128 -17
39 -31 62 -33 52 -6 -29 36 -138 83 -219 54 -92 61 -119 42 -150 -8 -12 -20
-40 -27 -60 -13 -44 -23 -47 -45 -15 -9 12 -51 73 -95 135 -74 106 -124 161
-136 149 -3 -3 10 -22 29 -44 19 -21 75 -100 125 -176 83 -125 90 -140 80
-162 -6 -14 -14 -25 -17 -25 -3 0 -14 20 -24 44 -10 24 -31 61 -47 84 -31 41
-167 158 -175 150 -3 -3 34 -45 83 -94 60 -61 96 -108 116 -149 l28 -60 -21
-60 c-12 -33 -21 -75 -21 -92 0 -18 -1 -33 -2 -33 -2 0 -42 37 -89 83 -115
110 -205 161 -334 191 -50 12 -15 -13 63 -45 90 -36 147 -72 231 -145 85 -74
106 -103 182 -250 34 -66 69 -130 78 -144 20 -29 64 -130 59 -135 -2 -2 -24
10 -48 26 -83 56 -237 139 -296 161 -88 31 -334 39 -334 10 0 -4 32 -6 71 -4
83 5 204 -12 271 -39 53 -21 242 -129 305 -174 31 -23 44 -40 52 -72 23 -87
13 -97 -69 -68 -28 10 -40 11 -38 3 2 -6 31 -21 64 -34 42 -15 60 -27 62 -42
3 -22 -9 -27 -93 -37 -50 -7 -50 -7 -135 61 -125 99 -149 108 -305 110 -197 2
-276 36 -358 154 -47 67 -67 134 -67 220 0 85 20 152 81 270 48 92 49 96 49
185 0 51 6 113 15 141 16 56 74 129 154 195 67 55 95 97 120 179 39 124 129
209 248 233 72 15 86 25 103 76 18 56 59 91 122 106 52 13 67 12 141 -6z
m2133 -11 c35 -24 63 -56 99 -114 27 -45 65 -100 83 -122 18 -22 45 -67 60
-99 26 -55 27 -66 27 -203 0 -166 -10 -202 -91 -343 -71 -124 -130 -192 -304
-351 l-159 -146 -35 15 c-31 13 -40 13 -70 1 -41 -17 -70 -67 -62 -106 4 -22
-4 -38 -44 -86 -28 -33 -70 -90 -95 -127 -55 -82 -80 -81 -34 1 144 255 208
346 251 358 37 11 58 43 58 93 0 25 11 45 46 85 70 77 234 298 234 315 0 19 6
26 -145 -164 -70 -88 -130 -163 -134 -167 -4 -5 -26 -1 -49 8 -39 16 -43 16
-68 0 -14 -10 -28 -16 -30 -13 -2 2 5 33 16 68 12 41 49 110 101 189 112 171
132 216 137 317 4 73 1 94 -29 185 -65 199 -35 344 86 419 46 29 95 24 151
-13z m1040 7 c75 -38 109 -100 89 -161 -6 -19 -4 -21 19 -17 57 11 113 -60
102 -131 -3 -23 -8 -51 -12 -63 -11 -38 24 -59 109 -67 174 -16 279 -72 335
-181 22 -43 26 -63 26 -146 1 -92 3 -98 36 -150 48 -72 59 -100 66 -162 11
-95 -26 -206 -120 -362 -20 -33 -44 -84 -52 -113 -17 -57 -55 -101 -132 -152
l-44 -29 -306 1 -307 1 -93 -32 c-107 -37 -197 -52 -190 -31 2 8 38 32 79 55
41 23 103 60 139 82 102 62 165 83 310 104 74 11 143 22 154 25 10 3 51 6 92
6 41 0 74 4 74 8 0 13 -86 23 -133 16 -23 -3 -89 -12 -147 -20 -188 -26 -269
-51 -366 -114 -33 -21 -90 -55 -128 -76 l-69 -39 7 69 c6 59 12 74 38 101 36
37 157 102 238 128 96 30 302 116 390 163 126 66 310 208 310 240 0 9 -17 -1
-45 -27 -123 -114 -346 -233 -645 -346 -129 -48 -199 -83 -237 -118 -14 -12
-23 -15 -23 -8 0 29 43 93 87 128 25 21 65 54 87 74 23 20 85 55 141 79 146
61 345 173 332 186 -2 3 -80 -33 -173 -80 -93 -46 -186 -91 -208 -100 -35 -14
-38 -14 -32 0 3 9 9 33 12 55 6 33 17 47 68 88 33 27 102 91 151 141 124 126
198 183 312 241 82 41 91 48 58 43 -109 -18 -214 -85 -365 -235 -63 -63 -138
-133 -166 -156 l-50 -42 -13 48 c-19 74 -45 109 -104 136 -28 14 -46 25 -39
25 25 0 118 67 229 165 62 55 111 101 109 103 -8 8 -63 -28 -130 -85 -79 -67
-118 -96 -199 -148 -61 -40 -63 -40 -110 8 -22 21 -22 19 66 142 157 218 216
292 339 423 43 46 78 88 78 93 0 43 -196 -169 -376 -406 -158 -208 -171 -224
-216 -243 -26 -11 -29 -9 -58 34 l-31 45 15 47 c18 53 56 268 56 315 0 28 10
81 35 192 5 23 4 26 -4 15 -21 -28 -42 -115 -67 -275 -48 -307 -46 -297 -69
-291 -11 3 -34 6 -51 6 l-32 0 14 63 c7 34 13 114 14 179 0 132 -17 203 -69
288 -17 27 -31 54 -31 59 0 19 120 119 176 146 80 40 172 46 239 16 62 -28 82
-27 151 8 81 39 82 39 150 40 45 1 72 -5 110 -24z m-3018 -655 c48 -73 62
-112 83 -230 11 -58 26 -127 35 -155 36 -111 125 -264 202 -347 24 -26 25 -29
8 -47 -25 -28 -31 -82 -12 -119 18 -34 19 -34 111 -36 78 -2 91 -10 71 -42
-10 -14 -16 -46 -16 -84 0 -46 -3 -60 -15 -60 -8 0 -20 10 -26 23 -44 86 -131
92 -165 12 -21 -51 -17 -73 16 -107 26 -25 36 -29 63 -24 17 4 46 20 63 37 31
30 34 31 69 19 22 -7 58 -10 87 -7 27 4 61 1 76 -4 15 -6 59 -19 97 -29 39
-10 79 -21 90 -25 20 -7 20 -7 0 8 -11 8 -41 20 -65 27 -25 6 -66 18 -92 26
-42 14 -47 18 -38 35 6 10 16 19 24 19 20 0 306 -96 317 -107 16 -16 -1 -45
-23 -40 -10 3 -85 2 -166 -3 -136 -8 -149 -7 -178 11 -40 24 -94 24 -125 0
-13 -10 -42 -22 -64 -26 l-40 -9 38 -5 c21 -3 38 -9 37 -13 0 -5 0 -19 0 -33
0 -21 -5 -25 -30 -25 -39 0 -80 -39 -80 -76 0 -50 49 -104 95 -104 8 0 25 15
39 33 24 31 77 57 127 62 9 0 27 8 40 16 43 27 123 57 221 84 125 33 136 31
63 -8 -70 -38 -130 -78 -237 -159 -42 -32 -84 -58 -92 -58 -21 0 -21 48 -1 74
29 38 15 52 -15 17 -25 -29 -33 -33 -62 -28 l-33 7 28 -23 c15 -13 27 -30 27
-39 0 -41 -230 -55 -370 -23 -104 24 -171 58 -240 122 -85 78 -115 145 -139
308 -23 150 -63 277 -114 361 -71 115 -99 177 -104 228 -6 62 9 125 41 163 12
15 42 84 67 153 42 119 47 128 109 191 53 53 135 109 160 109 3 0 20 -23 38
-50z m2385 -227 c16 -29 35 -53 42 -53 8 0 29 9 47 20 45 27 67 25 103 -10 21
-20 47 -33 85 -40 29 -6 62 -18 73 -28 28 -25 57 -91 57 -133 0 -43 -6 -47
-170 -95 -193 -57 -311 -121 -450 -246 -46 -40 -102 -90 -126 -111 l-43 -37
-34 16 c-53 25 -82 13 -112 -46 -26 -52 -56 -69 -48 -27 3 15 -4 34 -21 54
-25 29 -25 43 -1 43 26 0 299 163 435 260 110 78 171 136 207 197 36 62 23 63
-23 1 -54 -72 -124 -126 -335 -257 -204 -127 -209 -129 -209 -108 0 24 -47 74
-75 81 -16 4 -34 0 -50 -10 -55 -36 -18 1 118 117 203 175 268 250 349 397
l40 73 57 -3 56 -3 28 -52z m-1508 -303 c10 -32 -13 -51 -54 -48 -25 2 -37 8
-39 21 -7 34 6 47 47 47 31 0 41 -4 46 -20z m233 -46 c5 -48 -13 -84 -43 -84
-18 0 -26 7 -31 25 -9 37 4 75 29 85 32 13 42 7 45 -26z m340 14 c6 -6 12 -18
12 -27 0 -10 6 -25 13 -36 12 -15 10 -26 -12 -79 -15 -34 -34 -72 -43 -86 -9
-14 -22 -37 -29 -52 -7 -16 -16 -28 -21 -28 -12 0 -1 50 23 113 36 91 19 157
-35 143 -19 -5 -28 -1 -36 13 -14 27 -14 28 18 46 28 16 86 12 110 -7z m156
16 c21 -8 21 -67 1 -84 -12 -10 -18 -9 -31 4 -9 9 -24 14 -34 11 -12 -4 -19 1
-24 17 -10 39 42 70 88 52z m1171 -42 c-12 -30 -38 -57 -102 -107 -100 -79
-127 -125 -149 -263 -39 -244 -67 -315 -151 -392 -30 -28 -76 -57 -107 -69
-53 -20 -204 -41 -248 -35 -13 1 -72 8 -133 14 -60 6 -122 13 -137 16 l-28 6
23 41 c26 46 68 65 92 41 8 -8 30 -21 50 -30 47 -19 82 -4 110 49 13 24 40 49
78 72 78 46 151 108 177 149 31 51 24 55 -18 10 -42 -47 -151 -133 -199 -158
-31 -15 -33 -15 -43 4 -13 24 -67 60 -91 60 -26 0 -60 -32 -63 -60 -6 -60 -38
-66 -79 -15 -35 44 -84 48 -123 10 -28 -29 -59 -31 -167 -12 -74 13 -93 31
-37 34 19 2 91 10 160 19 69 8 161 19 205 23 44 5 63 9 43 10 -78 2 -17 42 70
46 73 3 102 31 102 96 0 42 3 49 38 75 20 16 81 67 134 114 140 122 239 179
400 229 73 23 149 48 168 55 19 7 36 12 38 11 2 -2 -4 -21 -13 -43z m-1597
-101 c23 -91 29 -171 13 -171 -5 0 -11 12 -13 28 -3 15 -15 61 -28 103 -22 71
-22 129 -2 129 5 0 18 -40 30 -89z m-323 54 c0 -10 -5 -20 -11 -22 -13 -4 -27
24 -18 38 9 15 29 4 29 -16z m439 -9 c8 -33 45 -45 63 -20 12 16 13 13 13 -25
l0 -43 -39 7 c-31 5 -41 3 -49 -11 -9 -15 -12 -14 -26 14 -19 37 -21 73 -4 90
19 19 35 14 42 -12z m225 -38 c-7 -12 -35 -60 -64 -107 -28 -48 -64 -110 -80
-138 -15 -29 -32 -53 -37 -53 -11 0 12 55 46 108 14 23 26 46 26 51 0 5 6 16
14 23 7 8 23 33 35 57 21 39 54 81 66 81 3 0 0 -10 -6 -22z m-599 -7 c0 -34
-22 -80 -40 -86 -34 -11 -62 12 -58 48 3 29 6 32 37 32 19 0 36 6 38 13 7 19
23 14 23 -7z m-316 -7 c19 -19 19 -14 1 -58 -28 -66 -91 -39 -65 28 13 35 13
39 -2 30 -7 -4 -8 -3 -4 4 10 17 52 15 70 -4z m534 -94 c49 -154 67 -260 46
-267 -10 -3 -72 248 -82 332 -6 58 3 42 36 -65z m518 25 c37 -57 -29 -103 -76
-53 -26 28 -25 52 3 66 36 17 55 14 73 -13z m-394 -155 c-12 -137 -20 -168
-33 -134 -9 24 -11 230 -3 274 l7 32 20 -21 c20 -20 21 -25 9 -151z m88 145
c0 -13 -35 -188 -55 -272 -3 -13 -10 -23 -16 -23 -18 0 23 288 43 301 19 13
28 11 28 -6z m-353 -129 c30 -36 95 -164 91 -178 -2 -5 -17 14 -33 43 -15 30
-57 94 -92 143 -51 72 -61 92 -51 103 10 12 16 6 36 -34 14 -26 36 -61 49 -77z
m801 108 c12 -8 22 -22 22 -31 0 -25 -40 -63 -65 -63 -30 0 -43 65 -18 92 20
22 32 23 61 2z m-1374 -16 c20 -28 20 -38 2 -38 -8 0 -16 -10 -18 -22 -3 -26
-32 -35 -53 -18 -32 27 -6 100 36 100 10 0 25 -10 33 -22z m1152 -53 c4 -9
-24 -49 -77 -107 -121 -136 -131 -126 -19 17 26 33 52 70 59 83 14 25 29 29
37 7z m128 -31 c9 -24 -67 -90 -153 -130 -41 -19 -78 -33 -84 -31 -15 5 119
129 166 154 51 27 63 28 71 7z m-942 -21 c24 -21 22 -32 -7 -65 -26 -30 -44
-35 -63 -16 -18 18 -15 42 9 72 24 30 36 32 61 9z m1003 -66 c12 -19 13 -30 4
-56 -20 -58 -75 -66 -67 -9 6 38 -6 44 -40 21 -36 -25 -58 -35 -177 -83 -101
-41 -125 -47 -125 -31 0 8 200 91 220 91 17 0 85 44 103 67 24 30 62 30 82 0z
m183 -3 c15 -10 22 -25 22 -48 0 -30 -4 -34 -30 -38 -36 -5 -40 -2 -40 29 0
13 -4 23 -10 23 -14 0 -13 23 2 38 16 16 29 15 56 -4z m-1036 -82 c86 -66 108
-92 77 -92 -10 0 -195 135 -204 150 -9 15 4 32 18 23 7 -3 56 -40 109 -81z
m-350 33 c7 -16 19 -25 33 -25 33 0 36 -10 13 -41 -38 -51 -97 -31 -98 33 0
59 31 79 52 33z m290 -73 c46 -26 67 -52 31 -37 -10 4 -48 18 -85 30 -79 28
-90 33 -83 45 8 13 84 -8 137 -38z m-465 13 c22 -19 24 -24 11 -25 -12 0 -18
-8 -18 -24 0 -33 -14 -40 -47 -24 -23 11 -28 20 -26 47 2 55 35 66 80 26z
m1283 -2 c0 -23 5 -28 28 -30 15 -1 55 12 90 29 44 21 67 27 74 20 16 -16 -76
-58 -163 -77 -86 -17 -153 -20 -129 -5 27 17 -10 12 -100 -15 -80 -24 -104
-25 -84 -5 5 5 59 28 119 50 60 23 117 46 125 51 27 15 40 10 40 -18z m-500
-12 c26 -49 -6 -133 -58 -151 -15 -6 -36 -15 -46 -21 -16 -9 -22 -8 -33 7 -23
31 -15 59 30 103 23 23 50 50 60 61 22 25 34 25 47 1z m128 -29 c2 -12 12 -22
25 -24 12 -2 28 -15 35 -31 11 -23 11 -32 -2 -59 -9 -17 -16 -41 -16 -54 0
-37 -18 -74 -37 -74 -9 0 -30 12 -45 27 l-28 27 6 -30 c4 -22 1 -36 -11 -47
-22 -23 -31 -21 -61 8 -24 24 -28 25 -60 13 -43 -15 -55 -2 -44 48 4 18 6 35
3 37 -2 3 19 13 47 22 28 9 54 14 58 10 3 -3 -1 -26 -9 -50 -21 -58 -8 -49 30
21 26 48 27 54 10 49 -13 -4 -19 -2 -19 9 0 30 19 25 53 -15 20 -23 40 -38 46
-35 6 4 1 16 -12 30 -74 81 -82 112 -40 145 23 19 29 20 47 8 12 -8 22 -24 24
-35z m2186 5 c69 -30 103 -64 140 -138 26 -51 36 -85 36 -118 0 -34 8 -57 30
-91 47 -71 48 -99 6 -185 -26 -53 -59 -97 -117 -156 -46 -47 -71 -79 -60 -76
17 4 21 -3 30 -45 26 -120 5 -205 -66 -270 -57 -50 -206 -149 -292 -193 l-72
-37 -90 61 c-50 34 -97 61 -105 61 -19 0 -18 13 5 58 10 20 24 56 30 79 11 39
14 42 39 38 15 -3 54 -9 86 -15 75 -13 216 -13 236 0 11 7 3 10 -29 10 -57 0
-304 31 -313 39 -11 9 10 130 26 153 8 11 40 41 72 66 69 56 94 100 94 164 0
42 3 48 25 54 35 9 31 25 -4 18 -25 -5 -30 -2 -40 27 -6 17 -11 47 -11 65 0
30 4 34 48 47 26 9 60 18 77 22 47 10 181 77 167 82 -8 3 -30 -2 -50 -11 -36
-15 -148 -48 -204 -60 -28 -6 -28 -6 -28 42 0 160 -94 241 -345 296 l-60 13
45 11 c29 7 153 10 350 8 265 -2 310 -4 344 -19z m-572 -86 c77 -25 143 -71
173 -121 18 -31 20 -49 17 -156 -2 -84 2 -139 13 -180 21 -81 10 -108 -77
-185 -81 -72 -95 -99 -104 -201 -4 -40 -17 -104 -30 -143 -19 -58 -32 -79 -79
-122 -74 -70 -130 -94 -233 -101 -78 -4 -86 -3 -148 28 -75 37 -231 183 -304
285 -66 92 -207 226 -287 274 -77 46 -207 96 -223 86 -13 -8 -13 -4 5 39 8 20
20 36 25 36 5 0 16 13 24 29 21 40 66 47 156 22 138 -38 282 -115 423 -225
138 -106 180 -137 242 -171 69 -39 195 -89 195 -77 0 4 -44 29 -98 56 -96 47
-152 84 -348 235 -53 40 -133 93 -178 118 -54 29 -71 42 -51 39 17 -3 80 -11
140 -17 63 -6 176 -28 265 -51 138 -37 168 -41 275 -42 66 -1 128 4 137 9 12
7 -14 10 -90 11 -108 2 -188 16 -377 69 -65 18 -141 29 -275 39 -146 10 -192
17 -219 32 -18 10 -44 25 -57 32 -35 19 -29 32 14 32 147 1 475 22 562 35 58
9 173 37 255 62 187 56 186 56 159 60 -12 2 -61 -8 -110 -22 -174 -50 -200
-57 -329 -75 -126 -19 -244 -26 -233 -14 3 3 36 12 73 19 37 8 87 24 110 35
59 28 130 104 166 175 16 32 35 63 42 67 6 5 80 7 162 5 119 -3 164 -8 217
-26z m-968 -22 c30 -23 33 -45 10 -77 -10 -14 -25 -22 -45 -22 -33 0 -48 22
-29 45 10 12 10 18 0 30 -16 19 -6 45 18 45 11 0 31 -9 46 -21z m-213 -30 c8
-15 8 -28 0 -43 -5 -11 -11 -32 -13 -46 -2 -20 -8 -25 -33 -25 -29 0 -30 2
-36 50 -7 61 -4 73 24 78 42 8 46 7 58 -14z m-1143 -41 c-3 -42 -4 -43 -38
-43 -31 0 -35 3 -38 28 -5 45 4 57 43 57 l36 0 -3 -42z m882 28 c30 -7 76 -17
103 -20 31 -5 47 -12 47 -21 0 -11 -8 -13 -32 -9 -66 12 -188 47 -194 55 -7
13 13 11 76 -5z m-516 -4 c7 -12 -131 -32 -238 -35 -58 -1 -90 2 -93 9 -6 19
320 44 331 26z m-1164 -17 c0 -33 55 -128 102 -175 65 -67 113 -98 185 -120
l58 -18 -30 -12 c-88 -34 -172 -43 -415 -44 -244 -2 -285 -6 -328 -34 -12 -8
-26 -12 -30 -8 -3 4 -6 34 -5 67 2 121 75 215 224 289 110 56 239 85 239 55z
m1693 -49 c52 -24 120 -52 151 -62 31 -10 56 -20 56 -23 0 -4 -8 -11 -19 -18
-14 -9 -32 -7 -85 12 -83 29 -206 101 -206 120 0 8 2 15 4 15 2 0 46 -20 99
-44z m-831 -32 c-100 -42 -147 -53 -140 -33 3 8 21 17 41 20 20 3 45 13 54 22
19 16 48 24 98 25 22 1 9 -8 -53 -34z m318 17 c0 -11 -41 -42 -80 -60 -16 -8
-9 2 20 28 46 41 60 49 60 32z m435 -16 c31 -26 24 -32 -19 -15 -14 5 -26 16
-26 25 0 21 10 19 45 -10z m212 8 c3 -9 -4 -10 -28 -3 -45 13 -50 22 -10 18
19 -2 36 -8 38 -15z m-2464 -23 c38 -6 100 -17 139 -26 68 -16 69 -16 53 -37
-47 -64 -59 -110 -57 -207 2 -106 -11 -160 -36 -160 -26 0 -120 47 -174 86
-27 20 -52 33 -56 29 -12 -13 70 -75 150 -113 l77 -37 -6 -70 c-3 -38 -7 -72
-9 -74 -5 -5 -204 28 -239 40 -63 22 -85 27 -85 20 0 -26 186 -81 276 -81 24
0 44 -4 44 -9 0 -5 -16 -35 -36 -67 -30 -51 -35 -66 -33 -114 l3 -55 -68 -3
c-81 -4 -143 15 -237 69 -103 60 -129 88 -129 142 0 40 -6 52 -46 99 -82 95
-87 127 -36 241 23 54 25 63 14 103 -17 63 -15 94 8 132 22 37 98 77 172 91
60 12 230 12 311 1z m1311 4 c24 -9 19 -48 -9 -74 -28 -27 -46 -22 -73 18 -13
20 -12 23 20 42 36 22 39 23 62 14z m547 -41 c-13 -45 -80 -202 -97 -228 -14
-22 -84 -71 -84 -60 0 3 5 14 12 25 10 15 10 29 1 62 -11 42 -11 43 34 98 51
60 122 130 134 130 4 0 4 -12 0 -27z m359 -20 c14 -20 55 -69 93 -108 62 -67
80 -95 58 -95 -5 0 -25 21 -44 48 -20 26 -45 56 -58 67 -29 27 -99 115 -99
126 0 17 25 -2 50 -38z m-57 -88 c45 -105 54 -143 21 -80 -15 28 -35 61 -46
74 -27 35 -59 111 -51 123 9 17 39 -29 76 -117z m222 84 c59 -23 104 -43 102
-46 -3 -2 -49 10 -104 27 -54 17 -104 34 -111 36 -11 3 -9 24 3 24 2 0 52 -18
110 -41z m-668 -36 c-49 -62 -58 -68 -98 -73 -36 -4 -47 -11 -67 -40 -23 -34
-25 -55 -10 -135 2 -15 -27 -40 -141 -117 -237 -161 -287 -209 -565 -530 -32
-38 -54 -68 -50 -68 11 0 146 137 239 243 93 106 220 213 400 337 136 94 213
136 236 128 4 -2 1 -18 -8 -36 -10 -21 -43 -51 -87 -82 -79 -53 -181 -157
-231 -234 -18 -28 -61 -107 -95 -176 -73 -146 -142 -258 -217 -352 -62 -78
-68 -96 -17 -47 74 69 183 231 251 372 55 112 139 235 217 315 95 98 216 171
216 131 0 -6 -20 -43 -45 -83 -59 -96 -112 -211 -129 -285 -16 -69 -6 -83 13
-18 20 66 58 143 129 260 69 115 88 137 80 93 -3 -14 -1 -29 3 -32 5 -3 9 -14
9 -26 0 -14 5 -18 15 -14 11 4 19 -3 26 -21 5 -14 12 -23 15 -20 3 3 19 -10
36 -28 30 -34 30 -35 15 -82 -36 -117 -128 -348 -157 -396 -37 -62 -102 -135
-145 -164 -16 -11 -56 -28 -89 -37 -69 -20 -113 -15 -195 21 -79 36 -156 28
-288 -27 -164 -70 -210 -82 -283 -77 -102 7 -225 78 -302 175 -41 50 -47 72
-23 72 28 0 78 31 143 88 95 84 62 79 -57 -8 -49 -36 -60 -40 -115 -40 -111 1
-200 61 -259 175 -43 85 -43 142 2 215 29 47 35 68 42 144 14 147 43 207 122
249 40 21 54 22 282 23 243 1 306 8 435 49 31 10 91 14 195 13 95 -1 161 3
179 11 16 6 31 9 34 6 12 -12 -145 -62 -323 -105 -212 -50 -536 -171 -560
-210 -9 -14 -4 -13 72 16 108 41 393 141 453 158 30 9 111 30 180 46 69 17
154 44 189 60 75 35 81 36 81 10 0 -11 5 -20 10 -20 6 0 10 13 10 28 0 44 97
128 212 182 35 17 64 30 66 30 2 0 -21 -30 -51 -67z m184 35 c-50 -126 -112
-260 -117 -255 -3 3 15 49 39 103 25 55 52 116 60 137 17 39 33 53 18 15z m42
-45 c-13 -150 -31 -233 -54 -252 -28 -23 -31 -77 -6 -115 15 -22 25 -26 64
-26 81 0 116 60 78 134 -17 32 -22 221 -6 230 5 4 26 -64 47 -151 l38 -156
-22 -15 c-13 -8 -22 -25 -22 -39 0 -30 24 -78 49 -95 12 -8 30 -54 51 -128 54
-191 128 -382 137 -354 2 6 -13 55 -33 110 -35 98 -104 335 -104 360 0 12 48
44 64 44 9 0 41 -69 80 -169 73 -190 146 -297 245 -361 75 -48 81 -32 9 25
-118 94 -169 183 -294 514 -24 63 -53 124 -64 136 -11 11 -24 43 -30 71 -5 27
-13 60 -16 74 -11 39 2 21 45 -65 22 -44 55 -98 74 -120 19 -22 62 -95 96
-161 76 -150 144 -248 210 -303 61 -52 69 -33 10 24 -22 22 -61 68 -86 103
-53 73 -186 339 -179 357 3 8 -2 11 -15 8 -24 -7 -25 5 -1 24 16 13 16 14 -4
8 -27 -7 -40 9 -49 64 -4 26 -10 39 -15 31 -5 -8 -9 -7 -14 5 -9 24 -8 37 3
31 10 -6 -2 54 -19 98 -15 40 -13 42 16 15 48 -44 86 -108 80 -133 -9 -35 11
-82 40 -95 14 -6 43 -11 65 -11 36 0 39 -2 29 -20 -6 -11 -25 -23 -42 -28 -41
-10 -49 -32 -12 -32 15 0 38 10 51 22 13 12 23 16 23 9 0 -6 51 -66 114 -132
110 -116 142 -156 221 -283 20 -32 38 -56 41 -53 10 10 -66 145 -124 223 -70
92 -193 220 -221 229 -13 4 -20 18 -24 43 -5 45 -2 50 24 34 10 -7 39 -19 63
-27 134 -46 271 -151 395 -305 47 -58 128 -148 180 -201 119 -119 177 -150
291 -157 73 -4 78 -6 67 -22 -6 -10 -32 -28 -58 -40 -40 -19 -57 -22 -115 -16
-151 13 -274 18 -308 12 -23 -4 -56 -26 -98 -64 -83 -75 -120 -97 -195 -116
-58 -15 -68 -15 -135 0 -133 30 -161 30 -221 -5 -70 -40 -108 -39 -188 2 -110
55 -182 146 -215 272 -27 99 -14 179 55 354 12 29 19 61 16 70 -2 9 2 28 10
43 13 26 12 29 -6 38 -14 8 -19 7 -19 -1 0 -20 -73 -79 -98 -79 -29 0 -82 36
-82 56 0 8 -7 14 -15 14 -8 0 -24 14 -34 31 l-20 32 37 25 c49 33 51 37 39 83
-8 32 -6 51 11 102 37 113 84 227 92 227 5 0 6 -26 3 -57z m178 -173 c15 -63
30 -128 34 -143 3 -17 15 -31 30 -37 14 -5 25 -17 25 -25 0 -27 -20 -55 -38
-55 -10 0 -23 -5 -30 -12 -8 -8 -15 -8 -27 2 -22 18 -19 56 6 74 26 18 24 32
-37 243 -24 84 -44 158 -43 165 1 33 55 -109 80 -212z m254 185 c108 -42 106
-40 128 -89 16 -35 16 -40 2 -62 -15 -24 -16 -24 -43 -7 -78 50 -219 193 -190
193 7 0 54 -16 103 -35z m233 -14 c4 -41 -12 -61 -49 -61 -31 0 -38 17 -17 38
10 10 10 15 -2 22 -17 11 -6 25 25 33 33 8 40 2 43 -32z m140 27 c95 -13 92
-28 -6 -28 -63 0 -102 12 -102 30 0 13 7 12 108 -2z m-763 -149 c-6 -73 -14
-114 -22 -117 -16 -5 -16 7 -2 122 12 104 16 119 27 113 4 -3 3 -56 -3 -118z
m-343 14 c28 -32 30 -58 7 -86 -27 -36 -66 -36 -80 -1 -15 40 13 104 46 104 7
0 19 -8 27 -17z m806 -85 c4 -36 -32 -61 -73 -49 -25 6 -30 13 -30 37 0 25 4
30 35 35 54 10 65 6 68 -23z m-664 -59 c14 11 16 11 16 -2 0 -28 -22 -66 -42
-73 -20 -6 -68 20 -68 37 0 15 21 53 34 61 6 4 18 -2 28 -14 14 -19 19 -20 32
-9z m216 -24 c18 -21 4 -64 -25 -77 -55 -25 -98 30 -58 74 20 22 66 24 83 3z
m-23 -317 c-9 -35 -23 -81 -31 -103 -15 -40 -15 -40 -14 58 0 87 2 99 21 112
34 24 42 3 24 -67z m-78 -219 c11 -145 29 -206 90 -299 l43 -65 -6 -80 c-16
-215 -18 -292 -8 -325 9 -32 10 -28 12 40 0 41 9 134 18 207 l17 131 27 -23
c15 -13 32 -25 38 -27 17 -5 40 -84 57 -197 36 -241 -27 -449 -175 -581 -100
-89 -212 -123 -363 -110 -44 4 -48 2 -100 -51 -79 -81 -149 -111 -271 -117
-109 -5 -160 5 -250 50 -128 63 -178 139 -178 273 -1 97 -18 82 -28 -23 l-7
-67 -73 -3 c-62 -2 -82 1 -130 23 -31 14 -70 38 -85 53 -42 40 -87 134 -87
182 0 53 -12 74 -76 136 -43 41 -56 63 -73 118 -32 103 -29 205 10 319 16 50
34 96 40 103 7 8 26 -5 69 -46 85 -84 186 -132 289 -138 l79 -4 -93 -92 c-84
-83 -155 -179 -142 -192 3 -3 23 18 45 48 74 99 232 234 329 282 75 37 221 86
256 86 57 -1 48 -18 -32 -61 -160 -85 -267 -195 -347 -355 -36 -71 -47 -104
-50 -155 l-5 -64 24 70 c33 96 70 167 133 251 87 116 173 185 307 248 54 25
62 26 111 16 l52 -11 -101 -102 c-70 -69 -117 -128 -149 -182 -50 -86 -86
-188 -85 -239 0 -24 6 -16 23 41 72 225 251 425 451 503 33 13 72 32 88 42 15
11 27 15 27 11 0 -5 -34 -58 -76 -119 -210 -305 -241 -367 -251 -511 -7 -102
11 -110 20 -10 10 105 48 188 175 375 176 262 266 434 353 680 24 68 45 115
46 105 2 -10 7 -75 12 -144z m1884 -50 c23 -12 70 -44 104 -71 88 -70 126
-148 127 -261 1 -68 -3 -91 -25 -137 -33 -69 -68 -111 -136 -162 -30 -22 -56
-45 -58 -51 -49 -141 -80 -185 -165 -231 -72 -39 -138 -44 -256 -16 -137 31
-204 26 -266 -22 -104 -80 -269 -111 -374 -70 -60 22 -167 96 -228 158 -58 57
-86 109 -155 285 l-57 145 41 17 c22 9 45 17 50 17 6 0 39 -24 75 -53 75 -61
130 -135 194 -263 25 -49 45 -80 45 -69 1 35 -104 238 -150 289 -24 27 -65 66
-92 87 -36 29 -44 39 -30 41 33 2 67 -3 111 -18 51 -17 132 -18 186 -3 84 23
194 -59 310 -234 61 -91 85 -110 46 -35 -64 122 -168 247 -230 274 -22 10 -37
21 -34 25 2 4 25 19 50 33 l47 26 81 -54 c102 -68 273 -220 317 -281 35 -48
51 -47 26 2 -34 64 -268 278 -354 323 -26 14 -50 26 -52 28 -3 1 2 9 10 17 13
13 27 12 117 -10 56 -14 130 -39 164 -56 108 -54 295 -187 348 -247 54 -62 69
-51 21 14 -38 52 -58 69 -173 148 -149 103 -319 176 -407 176 -42 0 -39 16 6
31 26 8 61 9 122 3 47 -5 145 -9 216 -9 125 0 132 -1 199 -33 38 -18 95 -48
126 -67 69 -42 82 -44 49 -9 -28 30 -147 106 -201 128 l-37 16 28 27 c15 16
32 35 37 44 5 8 36 32 70 52 33 20 68 45 79 57 23 25 26 25 78 -1z m-1498
-503 c80 -176 89 -215 93 -411 3 -148 0 -202 -17 -305 -24 -146 -26 -198 -5
-130 30 96 54 277 54 411 l0 134 21 -35 c11 -19 42 -57 69 -85 36 -38 54 -69
76 -130 26 -74 123 -274 146 -303 28 -33 16 7 -30 100 -50 103 -106 247 -99
255 2 2 30 -12 62 -31 31 -19 83 -40 114 -47 78 -16 192 1 271 41 33 17 65 28
70 25 13 -8 30 -99 30 -164 0 -165 -74 -317 -176 -362 -22 -10 -73 -22 -113
-25 -71 -7 -72 -8 -103 -50 -84 -117 -220 -144 -367 -72 -64 31 -71 32 -201
33 -114 1 -144 5 -195 25 -80 30 -164 114 -194 194 -34 90 -30 102 32 116 90
21 180 76 255 154 117 124 156 238 155 456 -1 104 -6 153 -22 214 -11 44 -21
80 -21 82 0 2 14 -2 31 -8 26 -9 37 -24 64 -82z"/>
<path d="M2730 6878 c0 -139 -15 -252 -51 -388 -32 -120 -45 -328 -31 -462 7
-62 20 -144 28 -183 21 -95 93 -307 115 -336 12 -16 5 14 -22 96 -22 66 -45
140 -50 165 -18 79 -47 253 -54 320 -9 94 10 270 44 417 49 211 66 462 32 496
-8 8 -11 -24 -11 -125z"/>
<path d="M3762 6303 c-29 -76 -48 -143 -61 -226 -7 -37 -20 -95 -31 -130 -21
-66 -26 -107 -11 -91 13 14 48 137 71 249 18 87 43 179 65 238 4 9 3 17 -2 17
-4 0 -18 -26 -31 -57z"/>
<path d="M4481 6315 c-33 -42 -77 -109 -96 -150 -40 -82 -79 -226 -89 -325 -6
-57 -5 -63 7 -47 8 9 20 45 26 80 34 178 71 271 164 415 33 51 57 95 54 98 -3
3 -33 -29 -66 -71z"/>
<path d="M1760 5469 c0 -28 46 -105 161 -268 106 -151 199 -260 199 -232 0 7
-17 34 -38 60 -21 25 -54 69 -72 96 -19 28 -67 93 -107 146 -39 53 -88 123
-107 155 -20 33 -36 52 -36 43z"/>
<path d="M1806 5020 c16 -60 130 -177 231 -237 69 -40 70 -22 1 24 -59 39
-182 157 -221 213 l-18 25 7 -25z"/>
<path d="M1880 4652 c0 -6 19 -27 42 -46 47 -41 139 -79 177 -74 22 3 19 6
-19 17 -59 17 -129 53 -169 86 -17 15 -31 22 -31 17z"/>
<path d="M3842 4602 c-46 -9 -70 -18 -64 -24 12 -12 111 6 149 26 36 19 16 19
-85 -2z"/>
<path d="M3536 4281 c5 -5 45 -24 88 -42 92 -37 204 -110 284 -183 125 -115
315 -256 344 -256 18 0 -3 19 -85 76 -45 32 -134 103 -197 159 -174 152 -253
207 -344 238 -54 18 -106 23 -90 8z"/>
<path d="M2350 4241 c-296 -133 -468 -228 -565 -314 -53 -46 -38 -59 17 -14
24 19 61 46 83 59 67 42 285 154 373 193 98 43 170 84 177 102 2 7 3 13 2 12
-1 0 -40 -17 -87 -38z"/>
<path d="M1479 3864 c-18 -20 -98 -79 -176 -130 -79 -51 -143 -96 -143 -98 0
-14 105 38 203 101 68 43 167 135 167 154 0 17 -16 9 -51 -27z"/>
<path d="M1652 3659 c2 -7 10 -15 17 -17 8 -3 12 1 9 9 -2 7 -10 15 -17 17 -8
3 -12 -1 -9 -9z"/>
<path d="M2817 3460 c-3 -14 -13 -74 -22 -135 -22 -143 -43 -208 -121 -386
-71 -163 -104 -276 -103 -353 l1 -51 13 68 c16 79 62 206 117 327 76 163 97
236 118 415 12 98 10 171 -3 115z"/>
</g>
</svg>
