<?xml version="1.0" standalone="no"?>
<!DOCTYPE svg PUBLIC "-//W3C//DTD SVG 20010904//EN"
 "http://www.w3.org/TR/2001/REC-SVG-20010904/DTD/svg10.dtd">
<svg version="1.0" xmlns="http://www.w3.org/2000/svg"
 width="600.000000pt" height="857.000000pt" viewBox="0 0 600.000000 857.000000"
 preserveAspectRatio="xMidYMid meet">
<g transform="translate(0.000000,857.000000) scale(0.100000,-0.100000)"
fill="#000000" stroke="none">
<path d="M4025 7975 c12 -44 10 -120 -5 -203 -16 -93 -6 -129 54 -199 89 -105
108 -178 81 -308 -20 -100 -55 -234 -65 -255 -29 -55 -73 -158 -101 -234 -34
-90 -50 -101 -30 -20 18 70 23 228 11 339 -20 176 -50 282 -106 371 -50 79
-109 116 -206 128 -23 3 -50 16 -70 35 -37 35 -50 32 -38 -8 4 -16 11 -78 14
-137 4 -60 12 -129 18 -154 12 -45 39 -77 194 -221 48 -44 116 -147 144 -217
24 -62 -11 -289 -61 -397 -11 -23 -28 -71 -38 -107 -27 -95 -44 -118 -35 -51
9 82 -12 181 -54 254 -48 81 -144 179 -204 207 -65 30 -105 28 -185 -9 l-68
-32 -72 26 c-83 30 -131 28 -210 -8 -173 -78 -308 -373 -297 -651 4 -110 29
-269 50 -320 23 -54 -4 -32 -61 49 -73 106 -156 188 -280 280 -139 104 -175
127 -252 162 -117 52 -168 35 -237 -80 -38 -65 -84 -117 -125 -141 -64 -38
-98 -144 -87 -269 11 -114 46 -245 87 -326 88 -170 298 -331 504 -389 113 -31
327 -47 418 -32 75 13 98 9 51 -9 -69 -26 -172 -40 -369 -49 -191 -8 -218 -11
-283 -36 -87 -32 -162 -96 -162 -138 0 -40 37 -83 116 -132 39 -24 74 -44 78
-44 4 0 39 -22 79 -49 143 -97 203 -114 407 -115 130 -1 160 2 187 17 45 24
61 22 35 -5 -36 -40 -85 -168 -109 -288 -24 -120 0 -421 42 -522 4 -10 3 -18
-1 -18 -5 1 -35 44 -66 98 -54 91 -58 103 -68 192 -6 52 -16 109 -22 125 -21
51 -76 133 -150 218 -79 92 -114 143 -124 181 -9 37 -38 35 -29 -2 3 -15 -1
-59 -9 -97 -32 -158 9 -298 124 -427 45 -50 188 -158 210 -158 19 0 174 -222
168 -241 -2 -6 -17 8 -33 31 -16 23 -56 67 -90 97 -57 52 -318 231 -415 285
-203 113 -264 197 -374 518 -26 74 -57 153 -71 175 -53 92 -172 198 -282 254
-61 30 -189 141 -229 197 -42 59 -67 112 -95 206 -11 38 -23 67 -27 64 -10
-11 -12 -403 -2 -514 22 -244 160 -503 333 -625 191 -136 316 -192 522 -236
148 -32 186 -46 293 -108 114 -66 107 -61 100 -69 -4 -3 -20 2 -36 10 -43 22
-157 65 -217 81 -224 61 -324 85 -396 95 -46 6 -86 13 -90 16 -4 2 -82 4 -174
5 -160 0 -168 -1 -210 -25 -48 -29 -60 -48 -45 -77 15 -28 54 -24 92 10 60 52
92 62 191 62 117 1 305 -25 427 -58 52 -14 109 -29 125 -33 154 -40 407 -132
454 -164 141 -98 224 -192 338 -385 24 -41 57 -91 74 -112 16 -20 29 -40 29
-45 0 -15 -63 52 -108 116 -74 105 -142 191 -191 243 -187 197 -469 297 -842
297 -155 0 -226 -17 -295 -69 -62 -47 -90 -89 -99 -148 -13 -87 -33 -121 -104
-174 -36 -28 -74 -64 -83 -81 -19 -35 -18 -109 3 -203 10 -44 10 -75 -1 -156
-13 -96 -12 -104 9 -176 27 -92 69 -160 147 -236 141 -138 232 -170 484 -171
146 0 177 3 265 26 190 50 388 124 530 199 78 41 129 61 174 68 36 6 67 8 70
6 6 -7 -16 -53 -55 -112 -28 -42 -48 -60 -97 -84 -34 -16 -66 -34 -73 -39 -6
-6 -13 -8 -16 -5 -2 3 -36 -4 -74 -14 -117 -32 -165 -34 -224 -11 -28 11 -63
18 -77 15 -67 -12 -33 -66 41 -64 l41 1 -44 12 c-25 6 -46 17 -49 24 -6 20 40
13 86 -13 42 -24 45 -24 105 -10 77 17 127 31 150 40 9 4 17 5 17 2 0 -9 -56
-33 -135 -59 -39 -13 -71 -27 -72 -33 -3 -21 -138 -57 -243 -66 -121 -10 -246
-37 -363 -80 -180 -65 -294 -134 -432 -261 -44 -40 -113 -101 -152 -135 -91
-78 -267 -263 -287 -301 -13 -26 -13 -31 0 -51 8 -11 24 -21 36 -21 30 0 74
53 87 107 19 75 58 137 125 197 278 251 365 320 461 368 61 31 248 108 261
108 5 0 -13 -15 -41 -33 -135 -87 -275 -223 -275 -267 0 -22 26 -50 46 -50 21
0 44 30 91 123 24 45 60 99 80 120 51 53 156 113 228 130 63 16 185 30 185 22
0 -2 -15 -12 -32 -21 -46 -24 -174 -119 -232 -173 -89 -84 -209 -257 -285
-412 -54 -110 -134 -210 -264 -332 -127 -118 -182 -191 -221 -294 -60 -160
-70 -250 -50 -458 15 -146 13 -231 -7 -307 -5 -20 -14 -40 -19 -43 -14 -9 -12
-25 3 -25 7 0 19 11 27 24 8 13 50 51 92 85 151 121 264 249 336 381 47 86 98
253 122 400 22 132 28 187 49 435 23 273 63 361 238 525 141 133 228 187 462
287 108 46 223 100 256 120 33 20 64 38 68 41 22 11 -19 -37 -47 -56 -18 -12
-41 -30 -52 -39 -10 -10 -55 -45 -99 -77 -97 -72 -281 -257 -337 -339 -44 -64
-119 -217 -138 -282 -6 -22 -16 -53 -22 -70 -24 -75 -19 -265 11 -381 19 -75
89 -212 143 -281 108 -138 158 -167 317 -183 98 -10 108 -13 134 -41 79 -82
147 -101 277 -75 144 30 290 116 433 259 77 76 126 151 167 252 20 48 26 84
30 180 3 66 1 144 -3 174 -4 29 -6 55 -4 57 2 2 21 -20 43 -48 62 -82 196
-212 260 -254 201 -129 303 -167 529 -199 101 -13 215 -1 274 29 39 21 90 75
113 120 12 23 31 55 42 71 12 17 29 44 37 60 7 17 54 70 103 120 141 142 164
221 110 382 -33 98 -49 130 -115 222 -98 140 -229 249 -434 363 -81 45 -263
119 -322 132 -67 15 -45 27 49 26 126 -2 196 7 287 36 136 45 213 88 312 177
175 156 264 265 350 427 92 172 112 334 58 448 -30 60 -63 92 -144 138 -42 23
-70 46 -76 61 -14 37 -128 152 -173 175 -58 30 -135 26 -231 -12 -68 -27 -96
-32 -185 -35 -68 -2 -124 -9 -160 -22 -77 -26 -189 -104 -263 -182 -58 -62
-166 -235 -159 -255 2 -5 -1 -12 -6 -15 -5 -3 -26 -40 -45 -81 -58 -123 -256
-399 -265 -371 -2 7 3 22 11 34 8 12 31 65 52 117 109 276 241 475 420 636
131 118 250 191 387 238 90 31 94 31 101 6 5 -21 31 -27 42 -11 3 5 21 7 40 4
38 -6 54 12 39 45 -4 9 -6 23 -5 31 5 28 -10 61 -27 61 -30 0 -42 -19 -29 -46
8 -19 7 -28 -2 -37 -7 -6 -12 -7 -11 -2 5 23 -14 55 -31 55 -18 0 -21 -5 -23
-40 -1 -8 -17 -17 -38 -22 -21 -4 -67 -21 -103 -37 -80 -36 -76 -25 8 25 34
21 79 51 99 67 48 36 225 127 250 127 10 0 26 4 36 9 27 15 107 31 152 31 47
0 85 -17 120 -55 55 -59 112 -75 167 -47 41 21 70 22 93 2 21 -18 40 -19 40
-2 0 4 -26 28 -58 53 -148 120 -258 131 -501 49 -86 -29 -113 -33 -69 -9 69
37 230 186 273 254 11 17 22 32 26 35 4 3 16 21 28 40 25 42 28 88 4 97 -24 9
-53 -32 -53 -76 0 -49 -39 -108 -126 -193 -91 -88 -159 -141 -334 -257 -129
-85 -299 -206 -415 -294 -22 -16 -84 -74 -137 -129 -54 -54 -98 -95 -98 -91 0
5 -5 1 -10 -7 -16 -25 -11 5 8 52 11 24 29 81 42 128 54 204 -15 335 -263 496
-59 38 -107 72 -107 77 0 4 16 7 35 7 66 0 126 48 140 110 10 47 -18 90 -95
144 -113 79 -102 82 19 6 192 -121 234 -135 401 -134 206 1 266 21 430 144
181 135 211 162 256 222 54 74 60 128 19 172 -54 59 -60 102 -25 210 27 81 22
118 -22 163 -31 32 -114 69 -206 93 -47 12 -317 15 -347 4 -12 -5 -16 -3 -13
7 5 14 171 61 275 76 82 13 122 -2 181 -65 26 -28 60 -54 75 -57 30 -8 91 -3
171 15 39 8 55 7 79 -5 50 -25 54 -2 7 45 -57 57 -122 93 -206 113 -92 22
-143 21 -224 -2 -36 -10 -92 -21 -125 -26 -33 -4 -82 -15 -109 -26 -28 -10
-52 -16 -55 -14 -10 11 84 95 138 123 76 40 101 47 101 28 0 -11 12 -15 50
-14 28 1 53 5 56 10 3 4 17 5 31 2 19 -5 30 -2 39 11 11 15 16 16 29 5 13 -11
19 -11 32 3 12 12 20 13 34 4 15 -9 23 -9 38 0 15 9 22 8 35 -5 24 -24 52 -4
48 34 l-2 29 20 -23 c26 -32 60 -22 60 18 0 30 -26 48 -44 30 -14 -14 -26 -12
-20 3 8 23 -21 40 -45 27 -15 -8 -21 -21 -21 -47 0 -20 -3 -33 -7 -29 -4 4 -6
22 -5 41 4 43 -23 62 -51 37 -18 -16 -20 -16 -32 1 -16 23 -30 22 -55 -5 -11
-12 -20 -16 -20 -10 0 14 -46 16 -55 2 -3 -5 -12 -7 -20 -4 -7 3 -22 -3 -33
-14 -13 -13 -23 -17 -30 -10 -14 14 -52 -13 -52 -37 0 -15 -15 -28 -55 -48
-57 -28 -82 -35 -55 -16 11 8 12 12 3 15 -9 4 -9 12 -2 32 17 43 12 100 -15
205 -18 66 -26 123 -26 178 0 80 -1 82 -35 115 -25 23 -49 35 -82 40 -83 12
-234 -28 -283 -75 -8 -9 -34 -31 -57 -50 -23 -19 -56 -54 -73 -78 -17 -24 -41
-48 -52 -54 -23 -12 -10 7 111 171 125 168 287 292 486 371 44 18 94 38 112
46 59 25 88 26 138 4 73 -32 95 -26 95 28 0 19 -70 48 -88 37 -6 -4 -44 -15
-84 -25 -114 -30 -222 -75 -341 -143 -124 -71 -218 -152 -302 -263 -32 -41
-59 -75 -61 -75 -7 0 16 50 34 78 10 15 36 54 57 87 21 33 63 94 94 135 30 41
57 77 58 79 2 2 12 -4 23 -14 19 -17 21 -17 40 0 24 21 26 41 5 49 -8 3 -15
11 -15 17 0 7 8 5 20 -6 16 -15 22 -15 35 -5 8 7 15 19 15 27 0 21 -61 83 -82
83 -24 0 -35 -40 -14 -55 17 -13 22 -35 6 -35 -5 0 -13 8 -19 18 -8 13 -14 15
-28 6 -24 -14 -30 -54 -9 -54 23 0 20 -13 -10 -41 -24 -22 -114 -152 -143
-207 -7 -13 -15 -22 -17 -19 -6 6 22 71 55 125 16 26 46 88 66 137 62 150 143
303 217 412 15 23 28 45 28 49 0 10 162 224 186 246 27 24 130 73 194 93 30 9
103 20 162 24 174 14 270 72 353 214 30 51 47 69 68 74 46 10 33 33 -20 35
-115 4 -242 -6 -295 -22 -84 -26 -191 -97 -288 -192 -89 -87 -211 -220 -245
-268 -11 -15 -48 -66 -83 -114 -34 -47 -83 -125 -108 -172 -26 -47 -48 -83
-51 -80 -5 5 29 126 64 221 35 98 44 285 18 383 -27 100 -50 140 -133 222 -66
66 -74 71 -67 45z m1139 -44 c3 -5 -20 -15 -52 -24 -149 -40 -372 -134 -452
-192 -101 -72 -95 -56 13 32 155 129 217 159 367 178 58 7 108 13 112 14 4 1
9 -3 12 -8z m-1018 -92 c12 -20 33 -70 46 -110 19 -62 23 -95 23 -204 -1 -188
-20 -206 -29 -28 -8 173 -23 238 -72 333 -21 41 -41 80 -43 85 -8 20 52 -41
75 -76z m982 -4 c-81 -123 -163 -168 -328 -178 -94 -6 -201 -36 -256 -71 -33
-22 -41 -20 -18 5 31 35 182 131 269 171 44 21 139 59 210 84 72 25 137 50
145 55 30 17 27 7 -22 -66z m-1022 -42 c24 -54 37 -105 44 -164 5 -47 13 -100
16 -117 9 -43 -1 -40 -26 8 -11 22 -34 55 -50 74 -53 59 -59 88 -42 194 8 51
17 91 19 88 3 -3 21 -40 39 -83z m-403 -340 c59 -97 144 -281 182 -393 19 -57
33 -105 30 -108 -2 -2 -16 21 -31 52 -31 66 -92 137 -165 192 -96 74 -125 141
-132 315 l-4 96 42 -47 c23 -26 58 -74 78 -107z m16 100 c67 -23 87 -40 126
-102 55 -92 94 -258 110 -476 8 -101 -8 -91 -31 20 -32 155 -146 406 -241 529
-30 39 -39 57 -27 52 11 -4 39 -14 63 -23z m449 -661 c2 -7 -6 -12 -17 -12
-21 0 -27 11 -14 24 9 9 26 2 31 -12z m540 -31 c4 -11 -3 -13 -33 -8 -58 10
-70 29 -16 25 27 -2 46 -9 49 -17z m-513 -9 c0 -18 -20 -15 -23 4 -3 10 1 15
10 12 7 -3 13 -10 13 -16z m-85 -10 c0 -13 -12 -22 -22 -16 -10 6 -1 24 13 24
5 0 9 -4 9 -8z m40 -48 c0 -8 -7 -14 -15 -14 -15 0 -21 21 -9 33 10 9 24 -2
24 -19z m-666 -64 l31 -55 -1 -175 c-1 -98 -7 -204 -14 -240 -7 -36 -14 -76
-16 -90 -9 -69 -37 -170 -64 -228 -32 -68 -35 -82 -21 -82 9 0 61 104 80 161
6 19 16 67 22 105 54 366 52 560 -7 625 -26 29 -11 33 34 10 53 -27 142 -127
181 -204 45 -89 53 -148 41 -292 -13 -166 -82 -384 -149 -475 -22 -30 -131
-158 -169 -198 -18 -20 -82 -24 -89 -6 -3 8 -18 21 -32 29 -22 11 -32 11 -52
1 -21 -11 -27 -9 -47 12 -18 19 -29 22 -50 17 -31 -8 -72 -43 -72 -62 0 -60
-81 77 -110 187 -7 25 -16 50 -20 55 -12 15 -40 261 -40 354 0 91 14 176 41
249 22 60 24 85 7 80 -29 -10 -68 -207 -68 -346 1 -210 38 -391 107 -524 l35
-68 -23 -20 c-13 -10 -27 -19 -30 -20 -12 0 -76 53 -117 98 -58 62 -87 128
-107 237 -8 50 -20 112 -25 138 -24 118 1 352 50 477 28 71 82 153 138 208
103 103 261 110 306 15 30 -64 16 -346 -23 -447 -7 -16 -9 -31 -7 -33 12 -12
26 14 46 89 31 111 35 348 8 391 -10 14 -18 28 -18 29 0 2 17 4 38 4 20 0 62
12 92 27 30 14 61 25 69 24 7 -1 28 -27 45 -57z m827 -283 c10 -12 20 -28 20
-36 10 -124 10 -122 -34 -205 -34 -66 -64 -102 -157 -195 -118 -116 -254 -226
-302 -245 -32 -12 -37 -26 -10 -26 32 0 191 122 319 244 102 98 128 128 155
186 18 38 35 69 38 69 4 1 15 -34 25 -76 27 -104 25 -195 -4 -251 -49 -96
-195 -205 -311 -232 -45 -11 -99 -30 -155 -55 -341 -151 -442 -187 -452 -159
-2 7 16 16 42 23 51 13 152 59 161 73 12 20 -5 17 -47 -6 -45 -25 -138 -60
-144 -54 -2 2 -6 15 -10 30 -6 24 -2 30 42 57 133 83 211 153 314 287 54 70
149 228 149 249 0 31 -16 12 -59 -67 -62 -115 -158 -239 -259 -334 -115 -110
-169 -142 -88 -53 94 104 132 167 175 295 22 66 45 141 51 169 22 100 185 267
308 316 69 27 206 25 233 -4z m-2153 -191 c85 -43 231 -145 355 -248 26 -22
75 -77 110 -122 182 -241 268 -337 334 -373 39 -21 47 -46 22 -69 -23 -21 -25
-71 -2 -96 15 -17 14 -18 -23 -19 -21 -1 -43 0 -49 1 -5 1 -41 6 -79 11 -115
15 -196 39 -304 91 -152 74 -312 176 -312 199 0 5 -4 9 -10 9 -5 0 -10 -6 -10
-13 0 -50 335 -244 492 -286 99 -27 238 -42 278 -31 27 8 31 7 28 -8 -4 -23
-125 -81 -217 -105 -139 -35 -240 -22 -326 43 -19 14 -61 22 -170 30 -60 5
-121 11 -135 13 -43 8 -113 39 -165 73 -107 70 -131 92 -157 139 -57 106 -95
363 -68 460 10 36 26 57 77 103 59 51 66 55 78 39 30 -42 123 -133 179 -177
77 -59 185 -122 197 -114 14 8 3 20 -43 44 -90 47 -156 98 -245 188 l-91 94
38 59 c30 46 40 56 47 45 12 -22 178 -153 203 -161 44 -14 29 5 -47 59 -43 31
-96 72 -118 91 -39 35 -40 36 -20 51 26 21 89 12 153 -20z m2622 -222 c0 -8
-9 -14 -20 -14 -19 0 -27 19 -14 33 10 9 34 -4 34 -19z m70 1 c0 -8 -7 -15
-15 -15 -8 0 -15 7 -15 15 0 8 7 15 15 15 8 0 15 -7 15 -15z m-147 -2 c9 -9
-13 -34 -24 -27 -14 8 -11 34 4 34 8 0 17 -3 20 -7z m127 -46 c11 3 20 1 20
-5 0 -18 -18 -23 -39 -10 -22 13 -30 35 -23 58 4 10 9 3 14 -17 6 -25 12 -30
28 -26z m100 44 c0 -14 -18 -23 -30 -16 -6 4 -8 11 -5 16 8 12 35 12 35 0z
m-282 -19 c2 -6 -8 -14 -22 -18 -14 -3 -26 -11 -26 -17 0 -6 -3 -8 -6 -5 -3 4
2 18 12 33 17 26 34 29 42 7z m79 -14 c-3 -8 -6 -5 -6 6 -1 11 2 17 5 13 3 -3
4 -12 1 -19z m-160 -13 c-4 -8 -11 -15 -17 -15 -14 0 -13 27 3 33 16 6 21 1
14 -18z m421 14 c-2 -6 -8 -10 -13 -10 -5 0 -11 4 -13 10 -2 6 4 11 13 11 9 0
15 -5 13 -11z m-208 -24 c0 -8 -9 -15 -20 -15 -11 0 -20 7 -20 15 0 8 9 15 20
15 11 0 20 -7 20 -15z m138 -2 c-4 -22 -22 -20 -26 1 -2 10 3 16 13 16 10 0
15 -7 13 -17z m-208 -7 c0 -8 -5 -18 -10 -21 -13 -8 -42 14 -34 26 9 15 44 10
44 -5z m-64 -7 c8 -14 -18 -31 -30 -19 -9 9 0 30 14 30 5 0 12 -5 16 -11z
m-61 -10 c10 -15 -1 -23 -20 -15 -9 3 -13 10 -10 16 8 13 22 13 30 -1z m260
-139 c66 -21 162 -76 151 -87 -3 -3 -26 6 -52 21 -68 38 -197 76 -260 76 -34
0 -54 4 -54 11 0 18 132 4 215 -21z m-7 -47 c61 -20 112 -39 112 -43 0 -4 -14
-7 -32 -8 -17 0 -52 -6 -78 -12 -30 -7 -54 -8 -70 -1 -23 9 -120 94 -120 105
0 11 81 -7 188 -41z m-234 -93 c91 -23 162 -56 182 -85 19 -26 18 -67 -4 -145
-26 -91 -21 -125 35 -231 5 -9 -97 -37 -202 -55 -92 -15 -229 -16 -300 -1 -63
13 -115 17 -115 9 0 -13 25 -22 61 -22 17 0 39 -5 50 -11 26 -14 263 -14 314
-1 22 6 63 16 90 23 28 7 67 20 89 30 l39 18 -6 -33 c-6 -39 -52 -106 -99
-146 -18 -15 -97 -75 -174 -132 -138 -102 -194 -130 -289 -143 -173 -24 -272
-9 -430 69 -119 58 -280 172 -376 266 -70 68 -89 97 -93 144 -2 33 0 36 24 36
43 0 77 54 56 88 -8 14 10 60 28 74 6 4 39 16 75 28 37 12 85 30 108 41 24 10
45 19 48 19 2 0 35 14 72 31 159 73 306 124 388 135 21 2 41 7 44 9 2 3 72 5
155 5 117 0 169 -5 230 -20z m-1403 -66 c23 -21 13 -51 -23 -70 -27 -14 -32
-14 -54 1 -30 20 -30 30 1 60 28 29 51 32 76 9z m113 -19 c27 -21 8 -61 -31
-67 -51 -7 -72 38 -31 66 27 19 38 20 62 1z m-226 -63 c4 -30 -26 -64 -52 -60
-27 4 -32 37 -9 66 23 28 57 25 61 -6z m333 1 c6 -18 3 -28 -14 -43 -42 -39
-92 -6 -69 45 10 21 18 26 43 23 22 -2 34 -10 40 -25z m-285 -24 c8 -14 -18
-31 -30 -19 -9 9 0 30 14 30 5 0 12 -5 16 -11z m83 -3 c19 -22 -5 -65 -37 -66
-21 0 -37 47 -22 65 16 19 44 19 59 1z m96 -26 c8 -27 -12 -52 -39 -48 -21 3
-32 28 -22 54 8 22 54 18 61 -6z m-173 -35 c13 -29 -3 -55 -33 -55 -22 0 -45
41 -36 64 10 26 56 20 69 -9z m308 -13 c0 -19 -29 -52 -45 -52 -20 0 -37 27
-31 48 14 42 76 45 76 4z m-90 13 c0 -8 -7 -15 -15 -15 -16 0 -20 12 -8 23 11
12 23 8 23 -8z m-322 -8 c19 -22 24 -63 10 -74 -16 -13 -56 0 -65 22 -8 21 13
65 31 65 7 0 18 -6 24 -13z m207 -32 c0 -15 -8 -21 -32 -23 -35 -3 -44 13 -21
36 19 19 53 10 53 -13z m99 -1 c12 -31 6 -55 -16 -63 -40 -16 -65 39 -30 65
23 18 39 17 46 -2z m-1394 -42 c25 -19 72 -48 105 -64 52 -25 76 -30 190 -38
125 -8 133 -10 220 -52 88 -42 92 -43 185 -42 117 2 229 37 317 100 21 15 23
15 30 -2 11 -29 -89 -115 -162 -138 -136 -43 -197 -46 -370 -21 -226 34 -336
79 -480 199 -67 56 -105 92 -105 101 0 8 14 -1 70 -43z m1220 33 c0 -8 -4 -15
-10 -15 -5 0 -7 7 -4 15 4 8 8 15 10 15 2 0 4 -7 4 -15z m-73 -60 l1 -35 -20
25 c-20 25 -17 45 6 45 7 0 12 -14 13 -35z m72 21 c15 -18 4 -46 -18 -46 -27
0 -42 20 -30 42 12 21 32 23 48 4z m96 -31 c0 -27 -3 -30 -30 -30 -21 0 -31 5
-33 18 -5 25 17 49 42 45 16 -2 21 -10 21 -33z m170 25 c11 -19 -6 -50 -31
-56 -33 -8 -48 8 -40 40 5 21 13 26 36 26 16 0 32 -5 35 -10z m-365 -35 c20
-25 8 -50 -25 -50 -27 0 -30 4 -33 33 -3 28 0 32 21 32 14 0 30 -7 37 -15z
m120 -25 c0 -5 -2 -10 -4 -10 -3 0 -8 5 -11 10 -3 6 -1 10 4 10 6 0 11 -4 11
-10z m152 -7 c35 -32 18 -70 -27 -59 -28 7 -42 41 -25 61 16 19 29 19 52 -2z
m-2112 -16 c0 -37 54 -136 107 -196 52 -59 165 -146 262 -200 85 -48 184 -150
226 -235 19 -38 35 -74 35 -81 0 -22 100 -276 131 -336 17 -31 51 -77 76 -102
47 -48 55 -72 12 -39 -13 11 -46 31 -72 45 -280 156 -534 424 -678 717 -52
106 -83 205 -104 337 -18 106 -18 113 -5 113 6 0 10 -11 10 -23z m1915 13 c19
-7 26 -16 23 -32 -4 -29 -34 -35 -58 -13 -15 14 -17 22 -9 36 11 22 10 22 44
9z m115 -34 c0 -28 -24 -40 -51 -26 -36 20 -22 50 23 50 23 0 28 -4 28 -24z
m-170 -25 c11 -22 51 -32 75 -18 11 6 21 5 28 -2 16 -16 67 -13 74 4 5 14 8
14 29 0 12 -8 30 -12 38 -9 10 4 20 -5 30 -29 17 -43 287 -314 339 -342 20
-11 37 -26 37 -34 0 -28 -44 -79 -87 -100 -68 -33 -93 -28 -129 27 -56 86
-135 115 -208 77 -16 -9 -30 -14 -32 -12 -2 2 1 19 6 38 10 38 0 102 -15 97
-5 -2 -8 -32 -6 -69 2 -61 1 -68 -24 -87 -14 -11 -43 -26 -63 -33 -20 -6 -83
-34 -139 -60 l-103 -49 -106 0 c-95 0 -118 4 -208 34 -84 29 -120 35 -211 39
-90 4 -125 10 -191 35 -121 45 -168 74 -193 119 -19 37 -13 49 37 70 95 42
147 51 352 62 113 6 229 18 258 25 106 29 229 98 289 164 12 13 26 21 32 18
11 -7 41 20 41 36 0 6 -9 3 -20 -7 -11 -10 -20 -14 -20 -9 0 33 74 45 90 15z
m-1860 -170 c0 -71 57 -203 161 -372 156 -255 466 -533 689 -619 38 -14 63
-31 57 -37 -3 -3 -148 37 -277 77 -14 4 -50 20 -80 35 -52 26 -71 38 -190 114
-210 134 -344 379 -369 674 -13 157 -14 170 -1 162 6 -3 10 -19 10 -34z m788
-223 c43 -84 254 -168 422 -168 71 0 101 -5 175 -32 81 -29 102 -32 202 -33
62 0 113 -3 113 -6 0 -11 -45 -28 -118 -45 -58 -13 -103 -16 -225 -12 -142 5
-156 7 -218 36 -37 16 -93 47 -125 69 -33 21 -80 50 -106 63 -112 58 -166 110
-153 150 8 25 11 23 33 -22z m3112 10 c0 -17 -18 -44 -24 -37 -8 7 5 49 15 49
5 0 9 -6 9 -12z m-1677 -89 c21 -17 45 -45 54 -62 34 -66 94 -123 228 -216
183 -126 222 -170 250 -280 15 -58 15 -67 -4 -160 -21 -106 -41 -156 -112
-296 -80 -154 -141 -270 -149 -280 -4 -5 -15 -35 -24 -65 -9 -30 -21 -62 -26
-71 -5 -9 -23 -53 -41 -98 -23 -59 -36 -80 -46 -76 -8 3 -21 5 -29 5 -8 0 -14
10 -14 24 0 43 -85 88 -105 56 -9 -15 -25 -12 -25 4 0 21 -22 34 -65 41 -31 5
-45 3 -62 -13 -13 -11 -23 -25 -23 -32 0 -8 -6 -9 -17 -5 -10 4 -27 10 -38 12
-11 2 -31 23 -44 46 -13 23 -37 62 -53 85 -65 98 -118 290 -118 427 0 60 -3
75 -15 75 -12 0 -15 -13 -15 -56 0 -69 19 -196 31 -209 5 -5 9 -19 9 -32 0
-56 96 -252 152 -313 18 -19 18 -20 -7 -26 -14 -3 -32 -16 -40 -28 -15 -21
-16 -20 -51 19 -134 147 -237 399 -278 677 -16 111 -13 133 37 240 45 97 81
142 185 230 87 73 92 80 159 228 24 52 50 101 59 110 19 18 18 13 -15 -82 -30
-81 -44 -230 -38 -382 5 -135 20 -206 44 -206 16 0 17 -4 -8 87 -22 78 -22
132 -4 358 13 165 67 275 134 275 11 0 23 5 26 10 12 20 61 10 98 -21z m327
-32 c0 -28 -7 -44 -26 -62 -30 -28 -130 -53 -153 -38 -28 18 -22 30 19 36 51
7 102 45 125 93 20 43 35 32 35 -29z m-612 -44 c-9 -10 -27 -45 -40 -78 -38
-92 -71 -138 -150 -206 -40 -34 -87 -79 -105 -99 -34 -39 -85 -136 -99 -185
-7 -29 -8 -29 -12 -6 -5 31 13 124 43 226 29 95 81 187 135 235 37 33 230 141
239 134 2 -2 -3 -12 -11 -21z m2057 -200 c27 -8 58 -22 70 -30 19 -15 19 -15
0 -8 -52 21 -154 44 -195 45 -29 0 -40 3 -32 9 18 11 95 3 157 -16z m44 -52
c11 -6 29 -11 40 -11 39 0 21 -18 -28 -30 -40 -9 -54 -9 -74 2 -40 22 -107 75
-101 80 6 7 135 -27 163 -41z m-2787 -154 c94 -110 128 -177 139 -276 5 -42
14 -89 19 -105 15 -45 6 -41 -28 11 -17 27 -56 84 -87 128 -69 97 -117 197
-150 315 -31 112 -31 114 4 59 16 -24 62 -84 103 -132z m-107 -11 c33 -100
105 -223 199 -339 62 -77 64 -84 15 -49 -175 126 -259 269 -259 441 0 90 12
114 22 45 4 -26 14 -70 23 -98z m2335 27 c0 -13 -3 -13 -15 -3 -8 7 -12 16 -9
21 8 13 24 1 24 -18z m-70 -19 c0 -8 -4 -12 -10 -9 -5 3 -10 10 -10 16 0 5 5
9 10 9 6 0 10 -7 10 -16z m77 -29 c7 -20 -2 -29 -21 -22 -9 4 -13 13 -10 22 8
19 23 19 31 0z m-67 -9 c0 -8 -4 -17 -9 -21 -12 -7 -24 12 -16 25 9 15 25 12
25 -4z m276 -111 c67 -28 204 -170 172 -179 -7 -2 -33 -9 -57 -16 -24 -6 -67
-22 -95 -35 -28 -12 -62 -26 -76 -30 -52 -15 -300 -144 -356 -185 -207 -151
-375 -310 -327 -310 4 0 25 20 48 44 58 63 225 200 319 261 73 48 303 165 324
165 4 0 26 8 48 19 21 10 73 30 115 45 l76 27 41 -27 c38 -25 42 -31 42 -68
-1 -65 -43 -156 -91 -196 -24 -19 -68 -60 -99 -90 -55 -55 -57 -58 -89 -175
-60 -222 -62 -228 -105 -270 -70 -69 -106 -96 -167 -127 -32 -17 -59 -37 -59
-44 0 -8 3 -14 6 -14 14 0 125 73 161 105 64 60 80 63 42 9 -94 -134 -295
-288 -397 -305 -68 -11 -236 -11 -312 1 -60 10 -203 47 -275 71 -16 6 -51 18
-77 27 -32 10 -48 21 -48 33 0 9 -10 19 -22 22 -31 8 -21 15 58 37 86 25 153
36 339 55 81 9 168 20 193 26 26 6 67 14 92 19 80 15 174 40 230 62 110 44
249 125 250 146 0 17 -25 15 -40 -3 -28 -33 -229 -131 -312 -152 -90 -22 -285
-55 -404 -68 -179 -20 -323 -47 -376 -70 -15 -6 -18 -2 -18 24 0 30 -29 71
-51 71 -5 0 -8 4 -4 9 3 5 18 9 33 9 36 -1 138 42 204 86 77 51 173 140 165
153 -7 11 -13 6 -122 -92 -36 -33 -187 -114 -241 -129 -18 -6 -22 -2 -27 26
-4 29 1 38 38 73 107 100 192 226 300 444 46 91 102 191 125 221 101 134 248
226 384 239 42 4 76 4 76 1 0 -3 -26 -21 -57 -40 -78 -47 -180 -145 -272 -260
-91 -113 -94 -117 -82 -125 5 -3 52 48 104 112 108 134 129 155 250 247 57 43
97 66 115 66 15 1 43 7 62 14 162 63 185 67 246 41z m-3531 -110 c-48 -40 -83
-57 -91 -43 -8 13 40 55 71 61 45 9 49 6 20 -18z m3874 -180 c50 -58 64 -94
69 -181 6 -103 -8 -166 -60 -273 -74 -151 -125 -219 -277 -372 -152 -151 -185
-174 -350 -239 -129 -51 -246 -68 -144 -20 98 45 218 148 290 247 49 69 106
200 128 296 43 189 59 217 177 307 74 56 118 143 118 233 0 20 4 37 9 37 5 0
23 -16 40 -35z m-3167 6 c333 -50 516 -158 701 -415 101 -140 167 -209 226
-235 63 -27 82 -64 38 -75 -24 -6 -47 -43 -47 -74 0 -10 7 -28 16 -40 15 -21
14 -24 -9 -43 -37 -28 -53 -83 -34 -113 8 -12 12 -27 9 -33 -4 -5 -46 -13 -94
-16 -80 -5 -94 -10 -185 -58 -54 -29 -102 -55 -108 -59 -5 -4 -39 -17 -75 -29
-36 -12 -74 -26 -85 -31 -18 -8 -117 -40 -268 -86 -92 -28 -254 -39 -368 -25
-158 20 -216 44 -322 135 -56 47 -155 172 -144 182 2 3 24 -8 48 -24 76 -52
164 -61 569 -63 228 -2 376 2 415 9 33 6 78 14 100 16 90 11 131 19 140 26 25
18 130 33 243 34 130 1 134 8 13 23 -83 10 -133 5 -241 -25 -179 -50 -371 -62
-805 -51 -327 7 -371 13 -452 60 -30 17 -44 33 -52 60 -14 46 -14 143 -1 206
8 38 7 66 -9 139 -10 50 -17 105 -15 123 4 31 30 81 43 81 3 0 30 20 60 44 43
35 65 46 114 54 69 11 214 8 267 -7 144 -39 190 -53 305 -95 72 -25 139 -50
150 -55 11 -5 41 -18 67 -30 26 -12 50 -21 53 -21 2 0 28 -11 57 -24 53 -24
144 -56 160 -56 4 0 8 6 8 13 0 6 -35 23 -77 37 -42 13 -88 31 -102 38 -32 17
-256 107 -256 103 0 -1 -31 11 -70 25 -127 48 -299 95 -374 103 -82 8 -196 -2
-217 -20 -22 -18 -27 -4 -11 28 8 15 20 53 26 83 22 104 81 155 216 189 62 16
242 12 377 -8z m1283 -605 c20 -30 7 -62 -32 -77 -30 -11 -68 8 -78 41 -17 54
79 84 110 36z m-157 -22 c63 -44 -27 -131 -92 -89 -44 29 -43 65 3 90 34 19
62 19 89 -1z m268 -2 c21 -14 25 -45 9 -69 -22 -32 -64 -28 -84 9 -14 24 -14
28 3 47 19 21 52 27 72 13z m-187 -94 c-7 -13 -15 -16 -27 -9 -9 4 -23 6 -30
3 -10 -3 -10 2 2 21 15 21 20 23 41 14 18 -9 21 -15 14 -29z m300 -3 c20 -19
6 -63 -24 -77 -33 -15 -73 5 -82 41 -12 50 63 76 106 36z m-185 -6 c19 -28 7
-60 -29 -78 -55 -27 -110 35 -70 79 25 27 79 27 99 -1z m-276 -19 c20 -13 32
-28 32 -42 0 -31 -38 -68 -70 -68 -57 0 -84 76 -40 112 28 23 37 23 78 -2z
m342 -22 c0 -11 -8 -18 -20 -18 -14 0 -20 7 -20 24 0 26 20 40 32 22 4 -6 8
-19 8 -28z m-280 23 c0 -5 -7 -11 -15 -15 -9 -3 -15 0 -15 9 0 8 7 15 15 15 8
0 15 -4 15 -9z m84 -31 c14 -28 13 -32 -6 -50 -33 -30 -88 -16 -88 22 0 58 69
78 94 28z m236 -77 c0 -28 -33 -63 -60 -63 -22 0 -60 33 -60 53 0 24 30 56 58
59 34 4 62 -18 62 -49z m-200 27 c0 -5 -4 -10 -9 -10 -5 0 -13 -9 -16 -20 -7
-21 -25 -28 -25 -10 0 12 31 48 43 49 4 1 7 -3 7 -9z m67 -12 c-3 -8 -6 -5 -6
6 -1 11 2 17 5 13 3 -3 4 -12 1 -19z m247 -7 c25 -27 17 -63 -17 -79 -24 -12
-31 -11 -52 2 -15 10 -26 12 -30 6 -8 -13 -25 -13 -25 0 0 6 7 10 15 10 9 0
15 9 15 22 0 51 61 76 94 39z m-462 -13 c-7 -7 -12 -23 -12 -37 l0 -25 -20 22
c-24 25 -25 32 -6 32 7 0 19 7 26 15 7 9 15 13 18 10 3 -3 0 -11 -6 -17z m207
-7 c12 -21 -13 -51 -42 -51 -23 0 -38 30 -26 52 13 24 56 23 68 -1z m-119 -20
c14 -27 3 -50 -28 -58 -45 -11 -79 30 -52 62 18 22 67 19 80 -4z m-145 -17
c28 -31 29 -34 14 -68 -10 -22 -26 -32 -82 -50 -22 -7 -57 46 -50 75 7 27 53
69 75 69 10 0 30 -12 43 -26z m185 -10 c0 -8 -5 -12 -10 -9 -6 4 -8 11 -5 16
9 14 15 11 15 -7z m118 -24 c23 -38 -25 -79 -56 -48 -17 17 -15 39 6 54 24 19
35 17 50 -6z m-238 -45 c-19 -23 15 -82 51 -90 38 -8 37 -22 -1 -27 -24 -4
-30 -1 -30 13 0 10 -16 34 -35 53 -29 29 -32 36 -20 46 8 7 15 21 15 32 0 18
1 18 16 3 12 -12 13 -19 4 -30z m143 23 c11 -42 -33 -66 -53 -29 -7 15 -6 23
6 35 22 22 41 20 47 -6z m213 10 c18 -2 -16 -77 -38 -84 -25 -8 -69 31 -61 55
10 27 36 43 63 36 14 -3 30 -6 36 -7z m114 -28 c15 -28 5 -55 -26 -68 -35 -16
-48 -15 -68 7 -16 18 -16 21 -1 50 13 26 22 31 50 31 24 0 37 -6 45 -20z
m-397 -20 c21 -25 21 -36 0 -49 -27 -15 -53 5 -53 39 0 36 26 41 53 10z m106
-26 c-9 -11 -15 -12 -26 -3 -17 14 1 31 24 22 10 -4 11 -9 2 -19z m77 -46 c1
-30 -3 -45 -10 -43 -6 2 -23 6 -38 9 -36 8 -38 48 -5 71 37 26 52 15 53 -37z
m-289 27 c29 -20 38 -62 19 -91 -19 -27 -75 -41 -104 -25 -46 25 -40 94 11
116 41 18 48 18 74 0z m559 6 c12 -12 205 -71 267 -82 26 -4 56 -10 65 -13 9
-3 35 -8 58 -11 23 -3 99 -28 170 -56 71 -28 152 -59 179 -69 118 -44 321
-169 431 -265 60 -52 158 -179 202 -260 66 -121 83 -251 44 -337 -20 -46 -42
-63 -42 -34 0 24 -47 122 -96 197 -43 68 -143 176 -239 259 -103 89 -167 143
-320 269 -121 99 -201 149 -216 134 -6 -6 15 -24 57 -49 103 -60 562 -446 634
-534 46 -55 112 -164 134 -220 10 -25 25 -53 34 -63 15 -17 11 -23 -60 -92
-42 -41 -90 -98 -106 -127 l-31 -53 -10 28 c-6 16 -11 31 -11 34 0 12 -116
171 -168 231 -30 35 -113 109 -184 164 -71 55 -150 124 -176 154 -48 55 -62
64 -62 41 0 -17 141 -154 220 -212 156 -116 270 -247 360 -412 l23 -41 -28
-47 c-40 -69 -55 -84 -110 -112 -61 -32 -155 -40 -251 -23 -38 6 -87 14 -109
17 -74 8 -293 95 -315 124 -3 3 -21 14 -40 24 -80 41 -216 168 -342 320 -47
56 -81 139 -116 280 -31 127 -34 155 -37 310 -3 175 -12 236 -46 294 -13 21
-17 37 -11 43 14 14 89 -100 133 -202 20 -47 51 -135 69 -195 17 -60 37 -123
45 -140 7 -16 17 -41 20 -55 8 -29 72 -159 102 -207 39 -64 279 -323 300 -323
22 0 16 9 -45 68 -234 229 -295 334 -416 711 -26 79 -60 172 -77 205 -29 57
-94 147 -111 154 -5 2 -8 11 -8 19 0 11 4 13 13 5 6 -5 26 -8 43 -6 25 3 40
-6 90 -54 34 -31 68 -68 77 -82 13 -19 19 -22 29 -12 10 10 -5 29 -71 93 -61
59 -80 84 -72 92 6 6 11 24 11 40 0 23 7 31 35 43 20 8 38 21 42 29 6 17 24
20 39 6z m-378 -13 c17 -17 15 -45 -5 -52 -10 -4 -24 1 -35 12 -11 11 -16 25
-12 35 7 20 35 22 52 5z m152 -8 c0 -5 -4 -10 -10 -10 -5 0 -10 5 -10 10 0 6
5 10 10 10 6 0 10 -4 10 -10z m-465 -42 c-5 -35 -3 -47 15 -65 27 -29 58 -37
94 -23 16 6 29 9 30 8 1 -2 7 -16 14 -31 7 -16 21 -31 32 -34 11 -3 20 -6 20
-8 0 -1 -15 -35 -34 -76 -56 -122 -81 -243 -81 -389 1 -194 15 -340 33 -340
11 0 13 8 8 32 -3 17 -9 117 -12 222 -5 154 -3 206 10 266 22 104 87 270 106
270 8 0 26 6 40 13 22 12 29 11 57 -10 36 -28 48 -67 62 -214 9 -96 38 -186
67 -210 8 -6 14 -24 14 -40 0 -46 59 -280 85 -336 35 -77 49 -184 42 -326 -3
-67 -11 -138 -18 -157 -49 -138 -188 -305 -338 -405 -81 -54 -111 -64 -79 -28
24 27 77 136 93 190 7 26 18 82 25 123 6 41 15 84 20 95 14 31 30 179 30 271
0 95 -19 284 -30 299 -4 6 -11 54 -15 108 -4 53 -11 97 -16 97 -14 0 -10 -106
8 -210 10 -63 16 -157 17 -275 1 -155 -3 -202 -27 -338 -15 -87 -31 -166 -36
-175 -5 -9 -29 -60 -52 -112 -24 -52 -47 -100 -52 -107 -18 -24 -137 -55 -214
-55 -78 0 -117 16 -151 64 -7 10 -27 25 -44 34 l-30 16 20 21 c55 60 140 240
172 366 35 139 56 351 34 358 -7 2 -13 -33 -18 -104 -4 -59 -13 -135 -21 -168
-8 -33 -19 -82 -25 -110 -13 -52 -126 -293 -157 -332 -17 -22 -21 -22 -118
-14 -116 11 -150 25 -216 92 -52 53 -132 169 -146 213 -18 56 12 193 80 366
28 73 168 347 212 416 33 52 44 84 28 84 -18 -1 -169 -278 -252 -462 -37 -83
-81 -230 -88 -297 l-6 -65 -18 64 c-63 223 -45 379 69 607 83 165 227 324 434
481 129 98 214 190 268 290 46 84 51 92 56 92 3 0 2 -19 -1 -42z m549 9 c15
-23 -8 -65 -40 -73 -58 -15 -86 47 -39 84 29 23 61 18 79 -11z m-204 -27 c0
-5 -9 -14 -20 -20 -21 -11 -40 -6 -40 10 0 7 10 11 53 19 4 0 7 -3 7 -9z m-73
-22 c43 -40 21 -97 -37 -97 -29 0 -52 15 -69 47 -10 19 -8 25 13 47 31 31 62
32 93 3z m143 -10 c26 -28 25 -51 -3 -84 -29 -33 -66 -28 -87 11 -17 31 -1 71
32 85 33 13 35 12 58 -12z m10 -121 c0 -1 9 -28 20 -59 15 -43 20 -87 22 -177
1 -66 -1 -123 -4 -127 -11 -11 -27 66 -38 185 -6 62 -15 122 -20 132 -15 26
-12 49 5 49 8 0 15 -1 15 -3z m-1667 -503 c-47 -89 -62 -107 -79 -93 -11 9
-11 16 -1 34 15 28 108 137 113 132 2 -2 -13 -35 -33 -73z m33 -310 c-8 -32
-22 -147 -31 -254 -23 -259 -50 -426 -92 -555 -34 -107 -74 -192 -124 -268
-41 -62 -288 -312 -297 -302 -3 3 4 18 16 33 37 47 109 173 150 262 72 158
122 312 188 585 35 145 102 361 134 430 10 22 28 62 39 89 12 27 24 47 26 44
3 -3 -1 -32 -9 -64z m-697 -124 c-25 -67 -39 -87 -64 -92 -35 -6 -26 26 26 90
29 34 53 61 55 59 2 -1 -6 -27 -17 -57z m565 -86 c-9 -21 -20 -52 -25 -69 -4
-16 -17 -64 -28 -105 -27 -94 -36 -130 -55 -205 -40 -160 -75 -275 -106 -350
-61 -146 -98 -223 -135 -285 -24 -41 -55 -95 -67 -120 l-23 -46 0 131 c0 71
-4 180 -9 240 -20 250 61 458 241 618 118 106 132 120 174 178 24 32 44 57 46
55 2 -2 -4 -20 -13 -42z"/>
<path d="M3366 5933 c-6 -14 -5 -15 5 -6 7 7 10 15 7 18 -3 3 -9 -2 -12 -12z"/>
<path d="M2470 5780 c0 -20 79 -96 157 -152 132 -94 334 -191 349 -167 3 6 -5
13 -17 16 -13 4 -73 31 -134 61 -121 60 -233 138 -296 207 -41 44 -59 55 -59
35z"/>
<path d="M4215 5560 c-34 -6 -211 -41 -280 -54 -11 -2 -33 -9 -50 -16 -16 -6
-52 -17 -80 -25 -208 -55 -255 -69 -292 -86 -24 -11 -43 -24 -43 -29 0 -14 17
-12 43 4 12 8 85 31 162 52 77 20 190 50 250 66 121 32 232 55 313 65 34 4 52
10 52 19 0 15 -13 16 -75 4z"/>
<path d="M4205 5393 c-70 -6 -215 -35 -221 -45 -11 -18 5 -21 48 -9 24 6 61
14 83 17 21 3 42 7 46 10 19 11 281 4 335 -10 81 -20 242 -41 250 -33 14 14
-9 21 -124 39 -234 37 -297 41 -417 31z"/>
<path d="M3395 5210 c11 -17 90 -68 164 -105 40 -20 120 -50 179 -66 164 -47
367 -63 367 -31 0 9 -34 13 -130 15 -72 2 -137 7 -145 12 -8 5 -17 10 -20 11
-7 1 -115 32 -164 46 -21 7 -84 38 -140 70 -100 57 -123 67 -111 48z"/>
<path d="M3096 5164 c-3 -9 -6 -22 -6 -30 0 -31 -68 -161 -118 -226 -55 -71
-59 -78 -41 -78 40 0 189 260 189 329 0 25 -15 28 -24 5z"/>
<path d="M2940 5114 c-54 -55 -192 -141 -270 -169 -79 -28 -235 -62 -319 -70
-59 -5 -66 -9 -57 -23 7 -12 31 -9 171 20 243 49 397 127 509 255 47 55 24 46
-34 -13z"/>
<path d="M3537 4543 c23 -109 28 -576 9 -743 -20 -172 -40 -283 -60 -325 -20
-41 -24 -69 -11 -75 5 -3 17 18 27 45 79 216 109 734 62 1049 -15 102 -19 116
-33 116 -4 0 -2 -30 6 -67z"/>
<path d="M4345 2877 c-45 -19 -69 -21 -240 -21 -104 1 -203 4 -220 8 -64 14
-153 18 -171 8 -15 -8 -11 -11 26 -15 25 -3 54 -6 65 -6 11 0 61 -7 110 -15
50 -8 133 -15 185 -15 161 -1 320 34 320 70 0 13 -19 9 -75 -14z"/>
<path d="M2030 3131 c0 -16 6 -21 25 -21 24 0 55 -8 245 -64 47 -14 106 -26
132 -26 26 0 80 -4 120 -10 40 -5 98 -12 128 -14 52 -4 219 -28 303 -42 25 -5
37 -3 37 5 0 15 -8 18 -115 36 -84 14 -175 24 -425 44 -67 6 -132 18 -180 34
-41 14 -111 35 -155 47 -44 11 -88 23 -97 26 -13 4 -18 0 -18 -15z"/>
<path d="M3620 2721 c0 -12 241 -197 335 -257 44 -29 112 -70 152 -93 39 -22
91 -56 115 -73 24 -18 66 -48 93 -67 120 -83 352 -304 415 -396 30 -44 50 -57
50 -34 0 21 -110 147 -222 254 -114 110 -205 182 -343 275 -44 29 -92 62 -107
72 -15 10 -31 18 -35 18 -10 0 -188 114 -208 133 -7 6 -57 46 -111 88 -97 74
-134 96 -134 80z"/>
<path d="M4966 2103 c-6 -14 -5 -15 5 -6 7 7 10 15 7 18 -3 3 -9 -2 -12 -12z"/>
<path d="M4505 7173 c-8 -10 -21 -27 -29 -38 -13 -17 -15 -17 -16 -4 0 27 -25
42 -49 29 -23 -12 -27 -40 -10 -57 8 -8 7 -13 -1 -18 -7 -4 -18 2 -26 14 -19
26 -36 27 -59 1 -18 -20 -18 -22 7 -68 27 -49 49 -62 73 -42 18 15 20 66 3 73
-8 3 -7 6 4 6 9 1 20 -8 23 -19 8 -26 29 -25 55 2 23 25 25 39 8 56 -16 16 -3
15 22 0 22 -14 46 -5 64 26 9 14 6 21 -13 37 -29 23 -37 24 -56 2z m48 -20 c9
-9 -12 -33 -29 -33 -8 0 -14 9 -14 20 0 19 28 28 43 13z m-115 -30 c-4 -22
-22 -20 -26 1 -2 10 3 16 13 16 10 0 15 -7 13 -17z m30 -50 c-11 -14 -38 -18
-38 -6 0 3 8 15 17 25 12 14 18 15 24 6 4 -7 3 -18 -3 -25z m-108 3 c0 -14
-24 -29 -33 -19 -3 3 -3 11 0 19 7 18 33 18 33 0z m30 -40 c0 -7 -6 -19 -14
-25 -19 -16 -32 5 -16 24 16 19 30 19 30 1z"/>
<path d="M4240 7035 c-11 -13 -10 -21 1 -43 32 -61 63 -78 89 -47 15 19 5 50
-28 80 -31 29 -45 31 -62 10z m40 -19 c0 -8 -4 -17 -9 -21 -12 -7 -24 12 -16
25 9 15 25 12 25 -4z m40 -40 c0 -8 -5 -18 -11 -22 -14 -8 -33 11 -25 25 10
16 36 13 36 -3z"/>
<path d="M4182 6988 c-7 -7 -12 -17 -12 -23 0 -21 25 -65 38 -65 6 0 12 -4 12
-10 0 -5 11 -10 25 -10 20 0 25 5 25 25 0 14 -4 25 -10 25 -5 0 -10 5 -10 11
0 10 -45 59 -54 59 -1 0 -7 -5 -14 -12z m36 -42 c3 -12 -1 -17 -10 -14 -7 3
-15 13 -16 22 -3 12 1 17 10 14 7 -3 15 -13 16 -22z m32 -37 c0 -11 -4 -17
-10 -14 -5 3 -10 13 -10 21 0 8 5 14 10 14 6 0 10 -9 10 -21z"/>
<path d="M5280 6666 c-185 -52 -293 -99 -390 -172 -55 -41 -102 -94 -218 -246
-49 -65 -118 -149 -154 -187 -37 -38 -74 -80 -83 -95 -32 -49 3 -26 72 47 37
40 86 87 108 104 70 55 247 102 385 103 53 0 142 22 205 51 59 27 111 70 191
156 98 107 227 202 281 209 84 12 88 13 69 32 -14 15 -43 17 -199 19 -165 2
-190 0 -267 -21z m380 -6 c0 -5 -8 -10 -17 -10 -64 -2 -345 -85 -468 -140 -22
-10 -85 -37 -140 -60 -116 -49 -214 -104 -275 -155 -63 -52 -65 -44 -6 25 126
146 214 210 376 271 140 52 180 61 305 68 187 12 225 12 225 1z m-136 -82
c-32 -24 -97 -83 -144 -132 -147 -152 -204 -180 -425 -202 -151 -16 -184 -23
-259 -60 -27 -14 -51 -23 -53 -21 -6 7 92 92 153 132 77 52 198 112 339 169
133 55 412 154 434 155 8 1 -12 -18 -45 -41z"/>
<path d="M4841 4960 c-38 -79 -72 -113 -151 -147 -30 -14 -77 -34 -104 -46
-60 -27 -103 -78 -149 -177 -19 -41 -53 -100 -75 -130 -23 -30 -53 -72 -69
-93 -15 -21 -48 -62 -73 -91 -25 -30 -67 -96 -94 -147 -56 -108 -54 -104 -62
-96 -4 4 -2 12 3 19 6 7 30 65 53 128 23 63 48 133 57 155 34 87 13 188 -60
292 -28 41 -49 43 -41 5 3 -15 -2 -58 -10 -95 -22 -95 -20 -116 15 -171 20
-32 30 -62 31 -87 1 -55 -113 -406 -136 -421 -6 -4 -8 -10 -4 -13 4 -4 17 10
31 32 47 76 91 150 136 229 71 126 110 164 312 300 257 175 319 234 378 365
16 36 36 101 45 145 8 43 18 87 21 97 5 11 2 17 -6 17 -8 0 -29 -32 -48 -70z
m-11 -123 c-17 -45 -46 -105 -65 -134 -41 -62 -149 -156 -305 -266 -63 -44
-131 -92 -150 -106 l-35 -26 30 35 c17 20 81 71 142 114 187 130 318 277 374
416 35 89 43 61 9 -33z m-51 -19 c-13 -25 -11 -22 -78 -103 -27 -33 -71 -81
-97 -107 -56 -53 -237 -198 -242 -193 -2 2 14 27 35 57 22 29 48 73 58 98 46
110 101 166 189 193 29 10 73 31 97 47 53 36 53 36 38 8z m-650 -365 c3 -63 4
-117 2 -119 -3 -2 -18 21 -34 53 l-29 57 18 78 c23 102 35 83 43 -69z m42 -27
c0 -28 -6 -68 -13 -88 -12 -34 -13 -28 -13 83 0 109 1 117 13 88 7 -18 13 -55
13 -83z"/>
<path d="M4821 4332 c-6 -11 -6 -24 0 -33 13 -20 11 -29 -6 -29 -9 0 -15 9
-15 25 0 27 -25 44 -41 28 -15 -15 -15 -89 0 -107 10 -12 17 -13 34 -4 16 8
22 8 25 -1 5 -16 37 -14 52 4 11 14 14 13 25 -1 8 -12 20 -15 38 -10 15 3 35
1 46 -5 11 -8 26 -9 37 -4 11 5 32 9 48 9 35 1 56 28 40 54 -12 18 -54 30 -54
14 0 -6 -6 -12 -14 -15 -11 -5 -12 0 -2 25 9 25 8 32 -7 43 -30 21 -47 8 -47
-37 0 -32 4 -41 20 -45 21 -6 23 -24 2 -31 -13 -4 -42 60 -42 93 0 25 -21 38
-45 29 -10 -4 -15 -20 -15 -45 0 -21 -4 -39 -9 -39 -13 0 -23 34 -15 54 7 19
-12 46 -32 46 -7 0 -18 -8 -23 -18z m39 -27 c0 -8 -7 -15 -15 -15 -8 0 -15 7
-15 15 0 8 7 15 15 15 8 0 15 -7 15 -15z m80 -10 c0 -8 -4 -15 -10 -15 -5 0
-10 7 -10 15 0 8 5 15 10 15 6 0 10 -7 10 -15z m80 -6 c0 -5 -7 -9 -15 -9 -15
0 -20 12 -9 23 8 8 24 -1 24 -14z m-230 -5 c0 -17 -22 -14 -28 4 -2 7 3 12 12
12 9 0 16 -7 16 -16z m0 -54 c-18 -11 -24 -6 -16 16 5 14 9 15 19 5 9 -9 9
-14 -3 -21z m80 21 c0 -12 -29 -35 -36 -28 -11 10 5 37 21 37 8 0 15 -4 15 -9z
m206 -19 c-18 -18 -31 -10 -23 12 4 10 13 13 22 9 15 -5 15 -7 1 -21z m-128 2
c-9 -10 -24 -14 -33 -10 -23 9 -9 26 23 26 24 0 25 -1 10 -16z"/>
<path d="M2355 2408 c-55 -4 -156 -6 -225 -2 -108 5 -239 -6 -360 -29 -3 0
-51 3 -107 7 -116 9 -142 3 -231 -50 -43 -26 -64 -33 -84 -28 -34 7 -38 -13
-5 -25 12 -4 52 -14 88 -21 95 -17 176 1 344 76 82 37 165 46 416 48 181 1
240 4 252 14 9 8 21 11 27 7 5 -3 10 -1 10 4 0 6 -6 10 -12 10 -7 -1 -58 -6
-113 -11z m-610 -50 c35 1 30 -3 -50 -34 -74 -29 -108 -36 -192 -41 -57 -3
-103 -3 -103 0 0 8 105 67 138 78 15 4 59 5 97 1 39 -3 88 -5 110 -4z"/>
</g>
</svg>
