<?xml version="1.0" standalone="no"?>
<!DOCTYPE svg PUBLIC "-//W3C//DTD SVG 20010904//EN"
 "http://www.w3.org/TR/2001/REC-SVG-20010904/DTD/svg10.dtd">
<svg version="1.0" xmlns="http://www.w3.org/2000/svg"
 width="600.000000pt" height="410.000000pt" viewBox="0 0 600.000000 410.000000"
 preserveAspectRatio="xMidYMid meet">
<g transform="translate(0.000000,410.000000) scale(0.100000,-0.100000)"
fill="#000000" stroke="none">
<path d="M4233 4003 c-91 -92 -156 -176 -214 -281 l-24 -42 -70 6 c-72 6 -163
-9 -236 -40 l-37 -15 14 -68 c18 -84 65 -188 105 -229 l29 -30 -36 -71 c-20
-38 -38 -91 -41 -116 -5 -43 -4 -46 28 -62 68 -35 225 4 326 81 17 13 34 24
37 24 3 0 6 -15 6 -33 0 -18 9 -98 20 -177 23 -169 25 -239 6 -283 -17 -41
-35 -52 -171 -106 -139 -55 -289 -131 -338 -172 -48 -40 -140 -150 -302 -364
-190 -251 -284 -363 -389 -461 -202 -191 -345 -234 -550 -166 -84 28 -88 30
-65 42 94 50 209 177 279 307 l34 61 21 -46 c37 -79 103 -126 233 -166 19 -6
25 -2 37 28 8 19 15 65 15 100 l0 66 38 19 c89 45 201 193 188 247 -11 42 -63
90 -134 122 l-69 32 -6 103 c-8 124 -42 255 -99 380 -23 51 -43 94 -44 96 -2
2 -23 -13 -48 -34 -79 -64 -205 -234 -270 -362 l-26 -53 -44 6 c-91 13 -286
-43 -286 -81 0 -27 50 -168 73 -205 12 -19 36 -51 54 -71 l33 -36 -31 -59
c-18 -36 -32 -82 -36 -116 -6 -55 -5 -58 21 -68 72 -27 189 0 287 66 28 19 53
34 55 34 11 0 -54 -113 -101 -176 -59 -78 -116 -129 -184 -165 -42 -21 -58
-23 -225 -24 -201 -2 -270 -15 -471 -90 -163 -61 -468 -221 -614 -323 -24 -17
-25 -16 -18 8 17 61 46 252 49 323 1 42 4 77 5 77 2 0 20 -11 41 -24 54 -35
108 -49 161 -43 49 6 140 34 155 47 12 12 -11 73 -50 130 l-34 50 19 39 c33
63 46 161 33 234 -13 68 -25 82 -86 98 -32 9 -58 7 -121 -5 l-80 -17 -15 23
c-38 58 -117 144 -178 194 -65 54 -240 164 -260 164 -6 0 -18 -43 -27 -96 -14
-76 -16 -125 -11 -237 3 -78 9 -161 12 -184 6 -40 4 -42 -34 -67 -57 -36 -134
-117 -165 -175 l-28 -50 58 -46 c70 -55 147 -94 216 -110 l52 -11 7 -59 c10
-78 52 -165 80 -165 59 0 130 62 183 160 l35 65 0 -37 c0 -39 -34 -243 -49
-295 -5 -17 -38 -65 -73 -106 -68 -81 -117 -158 -229 -367 -102 -191 -152
-265 -233 -346 -50 -50 -93 -82 -146 -108 -72 -35 -184 -65 -242 -66 -19 0
-28 -5 -28 -16 0 -14 8 -15 58 -9 82 9 256 61 330 98 115 57 240 177 341 326
77 113 180 340 224 491 16 54 19 57 109 116 146 96 333 195 377 201 61 8 136
-33 244 -136 148 -140 185 -173 245 -218 67 -51 201 -119 255 -128 20 -4 37
-10 37 -14 0 -3 -20 -26 -45 -50 -58 -58 -77 -114 -73 -217 l3 -79 34 -3 c19
-2 63 6 98 18 60 20 66 20 86 6 106 -78 174 -106 258 -106 42 0 51 4 72 33 34
45 47 90 47 162 l0 62 58 21 c113 42 221 113 329 216 57 54 103 101 103 105 0
12 -130 71 -209 96 -78 24 -200 50 -283 60 -43 6 -47 9 -54 38 -11 52 -62 145
-105 191 l-39 43 81 6 c93 6 181 43 279 117 77 58 116 77 191 90 148 27 418
-36 664 -155 l70 -33 -40 -1 c-68 -2 -123 -37 -209 -129 l-30 -32 34 -35 c18
-19 57 -44 87 -57 50 -20 53 -24 53 -57 0 -105 101 -281 160 -280 46 0 98 26
158 78 l59 51 56 -25 c115 -50 201 -67 374 -72 l163 -5 -24 68 c-44 129 -130
279 -223 388 -31 37 -32 41 -18 62 35 53 57 132 62 220 l6 91 -78 12 c-88 15
-188 8 -249 -17 -37 -14 -40 -14 -53 4 -33 46 -99 106 -134 124 l-37 20 -31
-35 c-42 -49 -54 -102 -48 -215 4 -52 9 -107 13 -122 6 -27 6 -27 -142 38
-256 113 -498 168 -639 144 -33 -5 -62 -10 -64 -10 -2 0 22 27 53 60 57 63
161 191 313 390 75 96 97 119 143 142 152 76 331 60 733 -67 111 -35 235 -73
275 -85 l73 -21 -38 -28 c-87 -63 -115 -122 -117 -246 l-1 -70 48 -3 c27 -2
71 4 99 14 l50 16 36 -34 c70 -66 141 -100 232 -113 40 -6 48 -4 72 22 36 38
55 85 63 163 l7 65 87 27 c50 16 124 50 174 80 100 60 250 184 244 201 -2 7
-53 37 -115 68 -109 55 -251 102 -345 115 -53 8 -50 4 -82 104 -21 65 -53 120
-99 174 l-33 39 -62 -38 c-72 -43 -162 -132 -186 -182 -13 -26 -21 -33 -33
-27 -31 13 -176 16 -206 5 -28 -11 -29 -13 -23 -65 7 -69 24 -101 93 -175 50
-54 53 -60 27 -51 -505 164 -670 200 -832 180 -46 -6 -99 -17 -118 -25 l-34
-14 21 29 c12 16 51 60 88 98 127 130 305 206 862 368 346 100 508 151 590
183 41 16 76 28 77 27 1 -1 -8 -22 -20 -47 -33 -66 -31 -174 5 -251 15 -32 30
-58 33 -58 19 0 85 36 122 66 l44 36 42 -16 c97 -39 284 -28 309 18 25 45 26
98 7 177 l-20 77 94 93 c60 60 112 124 145 177 51 84 109 208 101 217 -3 2
-44 9 -93 15 -100 12 -270 1 -390 -27 l-70 -16 -15 24 c-29 48 -130 136 -189
166 l-60 31 -33 -46 c-64 -89 -109 -195 -109 -258 0 -32 -2 -33 -57 -44 -61
-13 -100 -30 -145 -63 -24 -18 -25 -22 -14 -54 25 -73 128 -146 248 -177 l52
-13 -80 -30 c-98 -38 -239 -82 -554 -172 -135 -38 -265 -77 -289 -85 -40 -15
-43 -15 -36 2 26 59 28 114 12 244 -10 73 -17 139 -17 146 0 8 23 -7 50 -32
46 -40 138 -86 174 -86 21 0 46 74 46 135 l0 55 52 26 c63 32 141 110 174 176
l25 49 -20 32 c-30 49 -71 83 -131 111 l-55 25 -1 108 c-1 60 -9 144 -19 188
-24 113 -87 279 -108 283 -10 2 -54 -34 -114 -95z m145 -30 c50 -138 65 -215
66 -350 l0 -121 68 -33 c66 -32 104 -64 126 -104 22 -42 -82 -171 -177 -220
-55 -27 -57 -30 -60 -104 -4 -78 -16 -104 -44 -95 -48 15 -119 56 -145 85 -85
95 -79 272 13 400 49 68 32 90 -19 24 -41 -55 -72 -132 -82 -205 -6 -46 -12
-56 -48 -82 -97 -72 -211 -109 -290 -94 -30 6 -36 11 -36 31 0 32 26 98 61
155 l28 45 -33 35 c-46 49 -82 114 -100 185 -24 89 -23 91 37 112 37 13 82 18
160 18 l108 0 45 75 c25 41 64 100 87 130 46 62 180 200 194 200 5 0 23 -39
41 -87z m960 -531 c26 -26 59 -63 73 -82 l26 -35 69 17 c114 27 270 42 367 34
48 -4 87 -12 87 -17 0 -16 -78 -167 -112 -217 -33 -49 -167 -189 -205 -213
l-21 -15 24 -84 c23 -78 24 -104 8 -162 -12 -41 -189 -49 -291 -12 l-51 18
-42 -38 c-23 -21 -56 -44 -73 -51 -31 -13 -31 -13 -50 29 -11 23 -21 72 -24
111 -4 65 -2 74 30 130 29 51 44 66 104 100 117 67 212 150 193 169 -5 5 -36
-16 -72 -49 -35 -31 -96 -74 -137 -95 l-73 -38 -62 15 c-134 31 -256 114 -256
173 0 24 65 56 145 73 l70 14 6 59 c8 70 22 111 62 179 51 88 52 88 109 59 27
-14 70 -46 96 -72z m-2485 -785 c51 -117 78 -233 86 -359 l6 -109 60 -24 c68
-28 100 -50 128 -87 17 -22 18 -31 9 -58 -21 -58 -82 -128 -153 -175 l-69 -47
0 -71 c0 -90 -7 -101 -51 -92 -90 20 -157 77 -189 161 l-20 55 20 72 c24 86
28 227 6 227 -10 0 -15 -25 -19 -102 -7 -142 -16 -164 -91 -220 -83 -64 -168
-100 -232 -101 -28 0 -56 3 -63 7 -26 16 -4 108 45 187 l23 37 -31 28 c-48 47
-87 111 -113 189 -14 41 -25 77 -25 82 0 11 75 40 140 54 29 6 82 9 117 6 l63
-6 35 69 c44 87 92 163 151 237 46 59 111 123 124 123 4 0 24 -37 43 -83z
m2043 -144 c34 -37 84 -142 98 -206 10 -45 15 -52 41 -58 17 -4 73 -17 125
-29 103 -24 235 -74 308 -116 l45 -27 -49 -43 c-110 -98 -265 -186 -387 -219
l-64 -17 -6 -69 c-6 -71 -32 -144 -60 -167 -37 -31 -187 25 -262 99 l-41 39
-74 -19 c-107 -27 -114 -23 -107 60 8 100 42 155 134 218 28 19 37 20 75 11
48 -11 180 -13 216 -4 12 4 22 12 22 18 0 9 -23 11 -87 8 -134 -7 -211 11
-280 64 -96 74 -160 174 -151 235 3 23 6 24 88 24 47 -1 99 -4 116 -9 28 -7
31 -5 48 32 23 50 101 133 163 172 26 17 51 30 55 30 5 0 20 -12 34 -27z
m-4164 -270 c133 -80 230 -168 323 -297 l20 -28 81 17 c86 19 142 15 168 -10
38 -38 29 -197 -16 -290 l-21 -43 32 -40 c17 -22 38 -57 46 -77 l16 -36 -38
-16 c-54 -22 -145 -28 -185 -13 -18 8 -52 27 -74 43 -40 28 -42 31 -48 99 -8
75 -35 157 -66 198 -17 22 -19 23 -26 7 -4 -10 0 -25 8 -35 49 -57 71 -214 43
-307 -33 -114 -95 -209 -157 -241 -54 -28 -69 -7 -98 131 l-16 80 -49 6 c-28
4 -70 16 -95 27 -50 22 -160 100 -160 114 0 15 47 82 84 121 20 20 61 52 90
71 l53 34 -13 78 c-16 99 -18 294 -3 385 7 38 14 69 17 69 2 0 40 -21 84 -47z
m3273 -575 c34 -35 66 -71 72 -81 9 -17 11 -17 56 3 53 24 180 35 247 23 l45
-9 -1 -79 c-1 -70 -6 -90 -37 -159 l-37 -79 53 -66 c82 -103 155 -226 193
-327 l25 -67 -143 6 c-158 6 -233 21 -343 72 l-71 32 -54 -50 c-55 -50 -120
-86 -153 -87 -39 0 -122 131 -132 209 -13 98 -12 96 -74 125 -32 15 -66 35
-76 46 -16 18 -16 20 4 46 11 14 42 43 67 63 44 34 52 36 130 40 78 3 86 1
141 -30 98 -55 195 -120 250 -166 36 -30 54 -40 59 -31 13 20 -130 130 -271
208 -33 19 -61 35 -63 36 -11 8 -33 141 -34 204 0 98 31 180 70 180 8 0 43
-28 77 -62z m-1765 -258 c36 -6 101 -22 145 -37 l80 -26 -30 -21 c-54 -37
-157 -149 -176 -190 l-18 -40 -85 3 c-47 1 -101 -3 -121 -9 -32 -11 -35 -15
-35 -52 0 -59 36 -122 108 -189 34 -32 60 -59 57 -59 -3 0 -33 13 -68 29 -90
41 -169 101 -307 230 -170 160 -214 193 -280 211 -24 6 -22 8 21 27 126 56
309 112 414 126 62 8 232 6 295 -3z m284 -127 c44 -46 90 -132 106 -194 l12
-47 66 -7 c139 -14 375 -80 428 -120 18 -13 15 -18 -46 -80 -85 -87 -218 -176
-325 -216 l-85 -32 0 -77 c0 -59 -5 -86 -22 -120 l-23 -45 -60 0 c-69 1 -150
33 -218 88 l-42 34 -45 -19 c-24 -10 -63 -22 -87 -25 l-43 -6 0 75 c0 90 29
155 89 205 38 32 43 33 148 37 67 2 134 12 176 24 74 21 82 26 73 40 -4 6 -31
2 -68 -10 -36 -11 -106 -22 -164 -25 -98 -6 -103 -5 -155 23 -68 37 -165 126
-190 175 -10 21 -19 52 -19 68 0 25 5 32 28 38 32 9 116 8 166 -1 34 -6 35 -5
56 40 11 26 37 67 57 92 36 44 128 122 143 122 5 0 25 -17 44 -37z m-1619
-450 c-46 -131 -160 -352 -230 -444 -68 -91 -179 -200 -236 -233 -30 -17 -27
-12 24 43 79 86 117 145 246 381 103 190 206 348 219 336 2 -3 -7 -41 -23 -83z"/>
</g>
</svg>
