<?xml version="1.0" standalone="no"?>
<!DOCTYPE svg PUBLIC "-//W3C//DTD SVG 20010904//EN"
 "http://www.w3.org/TR/2001/REC-SVG-20010904/DTD/svg10.dtd">
<svg version="1.0" xmlns="http://www.w3.org/2000/svg"
 width="600.000000pt" height="600.000000pt" viewBox="0 0 600.000000 600.000000"
 preserveAspectRatio="xMidYMid meet">
<g transform="translate(0.000000,600.000000) scale(0.100000,-0.100000)"
fill="#000000" stroke="none">
<path d="M4855 5109 c-285 -32 -487 -139 -608 -321 -112 -170 -151 -300 -150
-503 1 -118 14 -202 72 -475 12 -52 21 -122 21 -155 0 -112 -44 -330 -106
-520 -58 -177 -93 -249 -54 -109 28 101 50 237 50 314 0 107 -25 214 -115 489
-97 298 -125 411 -132 539 -4 57 -9 88 -15 80 -17 -27 -87 -256 -104 -343 -13
-64 -18 -137 -19 -255 0 -179 6 -208 80 -440 90 -278 126 -448 129 -600 1
-105 10 -83 -103 -260 -65 -103 -281 -372 -260 -325 3 6 17 36 32 68 39 86 73
200 87 298 18 125 8 360 -24 539 -56 313 -60 350 -61 550 0 107 4 224 8 260
l8 65 -20 -32 c-34 -55 -165 -313 -208 -413 -122 -282 -131 -459 -47 -919 46
-249 58 -377 45 -477 -16 -130 -33 -162 -131 -241 -76 -62 -240 -184 -280
-208 -18 -11 -13 -3 71 107 146 191 172 325 144 756 -15 240 -15 323 1 432 4
22 -28 -31 -88 -150 -51 -102 -110 -211 -131 -242 -49 -73 -92 -175 -114 -269
-14 -60 -17 -129 -18 -359 -1 -312 -10 -373 -57 -396 -13 -7 -116 -60 -231
-118 -114 -58 -210 -106 -213 -106 -2 0 23 40 56 89 185 272 260 599 195 846
-50 188 -174 332 -319 370 -33 8 -61 14 -62 12 -2 -2 8 -25 21 -52 35 -68 35
-202 -1 -380 -33 -165 -30 -314 10 -510 35 -167 42 -265 26 -348 l-12 -66
-102 -40 c-282 -111 -457 -171 -716 -245 -157 -44 -451 -115 -570 -136 -92
-17 -112 -33 -30 -25 384 36 859 152 1278 312 122 46 150 54 185 48 90 -14
295 -91 355 -134 44 -30 113 -70 172 -97 30 -13 63 -29 72 -34 9 -5 54 -19
100 -32 72 -20 105 -23 253 -22 l170 1 175 51 c207 59 268 73 375 81 l80 6
-69 28 c-98 40 -223 64 -431 82 -236 20 -272 26 -526 90 -119 30 -249 59 -290
64 -76 10 -247 7 -296 -5 -41 -10 -33 -5 137 83 85 45 173 91 196 104 l41 23
50 -37 c28 -20 53 -37 56 -37 3 0 33 -16 67 -35 83 -47 227 -100 329 -120 101
-21 304 -16 391 9 90 26 224 31 300 11 36 -9 80 -25 98 -36 41 -24 41 -24 35
2 -4 12 -45 61 -92 109 -72 73 -100 94 -171 128 -47 22 -119 48 -160 57 -106
24 -293 22 -453 -4 -127 -21 -398 -30 -397 -13 1 4 26 23 57 42 31 19 109 73
172 119 l116 84 175 2 c142 2 191 6 260 24 134 34 224 64 305 101 11 5 49 22
85 38 36 16 124 64 195 107 183 110 301 162 435 190 l55 12 -48 8 c-27 4 -126
5 -220 2 -195 -5 -324 -27 -499 -84 -104 -33 -305 -128 -370 -174 -41 -30
-270 -159 -281 -159 -5 0 63 71 151 158 136 134 241 249 269 296 5 7 67 27
138 45 244 62 411 124 501 185 21 14 83 70 139 124 107 104 199 161 320 199
l60 18 -63 3 c-120 6 -371 -39 -502 -89 -49 -18 -167 -83 -180 -99 -3 -3 -18
-14 -33 -23 -16 -10 -38 -27 -50 -37 -12 -10 -69 -58 -127 -106 -86 -73 -101
-83 -83 -54 11 19 35 58 52 85 17 28 54 96 82 152 28 56 56 107 63 112 42 34
164 81 306 116 183 46 306 112 408 219 175 182 231 224 346 263 41 13 41 13
-24 7 -235 -21 -522 -118 -702 -237 -87 -58 -189 -148 -248 -219 -30 -36 -56
-65 -57 -64 -1 1 17 57 41 125 49 145 67 168 200 251 290 182 393 286 578 590
88 142 184 225 313 266 l70 23 -75 1 c-152 0 -378 -54 -488 -117 -74 -42 -155
-107 -193 -155 -89 -109 -196 -294 -288 -498 -23 -52 -40 -84 -37 -70 3 14 13
77 22 140 16 110 18 117 54 155 47 49 109 164 143 265 14 41 42 156 62 254 51
247 96 390 164 522 32 61 67 121 77 134 92 112 145 167 216 220 46 34 85 66
86 71 4 10 -22 10 -133 -2z"/>
</g>
</svg>
