<?xml version="1.0" standalone="no"?>
<!DOCTYPE svg PUBLIC "-//W3C//DTD SVG 20010904//EN"
 "http://www.w3.org/TR/2001/REC-SVG-20010904/DTD/svg10.dtd">
<svg version="1.0" xmlns="http://www.w3.org/2000/svg"
 width="356.000000pt" height="574.000000pt" viewBox="0 0 356.000000 574.000000"
 preserveAspectRatio="xMidYMid meet">
<g transform="translate(0.000000,574.000000) scale(0.100000,-0.100000)"
fill="#000000" stroke="none">
<path d="M1451 5588 c-193 -403 -222 -926 -85 -1543 31 -140 34 -146 44 -118
26 67 50 489 50 898 0 160 5 358 10 440 10 147 35 373 46 408 3 9 1 17 -5 17
-6 0 -33 -46 -60 -102z"/>
<path d="M835 5193 c3 -16 14 -84 25 -153 87 -529 223 -990 355 -1200 28 -45
65 -113 150 -275 77 -147 73 -140 81 -132 10 9 -34 206 -73 329 -40 129 -93
263 -153 393 -114 246 -270 677 -347 961 -15 57 -31 104 -35 104 -4 0 -5 -12
-3 -27z"/>
<path d="M2225 4961 c-105 -211 -253 -443 -374 -589 -254 -306 -366 -643 -299
-897 l10 -40 19 75 c11 41 34 107 52 145 41 86 161 265 246 365 34 41 81 102
102 135 92 138 196 385 248 591 26 102 64 314 57 321 -2 3 -30 -45 -61 -106z"/>
<path d="M2368 4705 c-3 -6 -9 -30 -13 -55 -13 -84 -67 -235 -125 -355 -62
-127 -113 -205 -251 -387 -136 -179 -215 -300 -274 -421 -70 -144 -86 -205
-94 -352 l-6 -120 -28 115 c-45 189 -56 245 -87 465 -16 116 -30 213 -30 218
0 4 -4 7 -10 7 -5 0 -10 -18 -10 -41 0 -41 34 -272 50 -344 5 -22 21 -105 35
-185 50 -283 120 -571 202 -830 39 -126 167 -479 189 -522 7 -14 23 -50 34
-80 l21 -53 -33 36 c-18 20 -40 47 -48 59 -78 117 -293 332 -450 449 -41 31
-77 58 -80 61 -3 3 -16 13 -30 22 -14 10 -50 35 -80 57 -30 23 -68 48 -85 57
-16 9 -32 20 -35 23 -3 4 -34 27 -70 52 -36 24 -67 47 -70 50 -3 3 -48 35
-100 72 -100 70 -218 155 -260 187 -14 10 -61 45 -105 78 -44 32 -111 84 -149
116 -100 82 -100 65 0 -50 27 -31 63 -71 79 -89 17 -18 50 -56 75 -86 145
-172 401 -421 595 -581 102 -85 223 -167 375 -258 104 -62 247 -157 326 -215
22 -16 53 -39 68 -50 15 -11 38 -29 50 -40 13 -11 37 -31 53 -45 30 -26 189
-320 172 -320 -5 0 -9 4 -9 9 0 31 -278 277 -415 368 -133 88 -426 236 -835
420 -342 154 -478 217 -529 245 -51 28 -85 31 -47 3 10 -8 32 -27 50 -42 17
-16 65 -55 106 -88 41 -33 77 -62 80 -65 3 -3 23 -19 45 -35 22 -16 47 -35 55
-42 49 -41 217 -160 355 -252 246 -165 441 -278 710 -414 190 -96 271 -141
415 -228 143 -86 159 -100 206 -174 20 -33 40 -62 43 -65 3 -3 20 -25 36 -50
17 -25 57 -82 88 -127 62 -88 64 -104 7 -50 -83 78 -314 242 -430 304 -30 16
-67 37 -81 46 -14 10 -84 44 -155 76 -124 56 -210 87 -469 166 -296 91 -639
232 -819 337 -61 36 -72 28 -21 -15 281 -234 609 -457 865 -586 173 -88 288
-131 480 -180 282 -73 545 -173 716 -274 56 -33 100 -69 149 -124 39 -43 111
-118 160 -167 l90 -89 -75 56 c-200 148 -412 247 -826 385 -425 142 -883 339
-1225 527 -66 37 -123 64 -126 61 -14 -13 282 -270 457 -398 182 -132 394
-251 575 -323 83 -33 339 -98 590 -150 226 -46 451 -102 489 -121 16 -7 33
-14 38 -14 4 0 38 -18 73 -39 42 -26 65 -35 65 -26 0 7 -6 16 -12 18 -7 3 -8
6 -3 6 6 0 33 -20 60 -45 28 -26 68 -58 90 -72 22 -14 46 -31 53 -39 20 -20
29 -16 40 16 10 27 8 31 -26 54 -20 14 -70 52 -109 86 -40 33 -76 61 -79 61
-3 0 -64 57 -134 127 -162 161 -165 170 -164 408 1 151 3 165 32 255 58 177
101 292 147 395 15 33 33 74 41 92 8 17 14 36 14 42 0 6 4 19 9 29 35 64 83
277 106 472 15 126 20 335 9 364 -12 31 -20 15 -33 -61 -14 -84 -63 -228 -134
-393 -25 -58 -57 -134 -72 -170 -225 -536 -242 -588 -252 -761 -7 -113 8 -230
43 -336 22 -68 25 -105 6 -77 -4 6 -28 37 -53 70 -26 34 -49 74 -52 94 -3 19
-18 78 -33 130 -25 88 -27 110 -27 285 -1 176 1 197 26 290 28 105 68 207 104
263 25 41 102 196 137 277 58 134 105 356 131 615 8 85 18 177 22 204 8 64 -9
55 -33 -17 -23 -73 -124 -292 -221 -485 -188 -370 -258 -601 -270 -883 -9
-218 16 -359 100 -562 25 -59 43 -107 41 -107 -3 0 -52 73 -110 162 -59 90
-114 175 -124 189 -35 50 -181 327 -256 485 -73 154 -75 161 -69 214 14 114
106 345 208 525 165 289 276 558 307 745 18 104 18 110 26 223 8 118 -5 145
-26 55 -41 -172 -202 -489 -392 -768 -178 -263 -214 -357 -206 -545 l5 -110
-17 40 c-9 22 -25 65 -35 95 -10 30 -24 69 -31 85 -52 124 -55 230 -11 360 35
102 74 174 179 330 231 345 341 580 383 819 16 94 20 196 8 196 -5 0 -24 -30
-43 -67 -41 -79 -196 -361 -209 -383 -6 -8 -22 -37 -37 -65 -26 -49 -68 -119
-195 -325 -111 -180 -166 -301 -193 -422 l-11 -53 -38 137 -38 137 16 63 c45
173 178 411 354 633 31 38 60 74 64 80 185 233 294 526 316 847 7 114 3 185
-11 163z"/>
<path d="M475 4486 c13 -64 227 -500 314 -639 65 -105 131 -208 141 -220 5 -7
27 -34 48 -62 21 -27 81 -95 133 -151 52 -55 112 -123 135 -150 96 -116 238
-327 322 -479 42 -78 43 -79 38 -37 -8 54 -104 345 -145 437 -92 208 -150 300
-305 489 -50 61 -147 181 -216 266 -69 85 -128 157 -131 160 -3 3 -72 87 -153
188 -81 100 -151 182 -155 182 -4 0 -13 10 -20 23 -11 21 -11 20 -6 -7z"/>
<path d="M400 3981 c0 -21 108 -279 164 -392 80 -159 176 -330 205 -364 9 -11
30 -40 46 -65 91 -144 274 -345 460 -505 87 -75 391 -377 433 -429 17 -22 34
-37 37 -34 7 7 -107 211 -168 303 -49 73 -214 292 -242 321 -189 197 -310 326
-328 349 -12 16 -31 38 -42 49 -19 20 -125 149 -190 232 -76 97 -203 279 -268
384 -81 131 -107 168 -107 151z"/>
<path d="M2680 3200 c0 -13 -101 -269 -128 -325 -11 -22 -41 -87 -68 -145 -27
-58 -84 -170 -128 -250 -173 -319 -215 -442 -216 -626 0 -102 12 -180 42 -274
36 -114 79 -220 89 -220 5 0 6 11 2 28 -14 49 -7 283 10 373 26 133 82 300
157 464 203 449 249 597 257 833 4 110 3 152 -6 152 -6 0 -11 -5 -11 -10z"/>
</g>
</svg>
