<?xml version="1.0" standalone="no"?>
<!DOCTYPE svg PUBLIC "-//W3C//DTD SVG 20010904//EN"
 "http://www.w3.org/TR/2001/REC-SVG-20010904/DTD/svg10.dtd">
<svg version="1.0" xmlns="http://www.w3.org/2000/svg"
 width="600.000000pt" height="600.000000pt" viewBox="0 0 600.000000 600.000000"
 preserveAspectRatio="xMidYMid meet">
<g transform="translate(0.000000,600.000000) scale(0.100000,-0.100000)"
fill="#000000" stroke="none">
<path d="M3180 5709 c-173 -47 -342 -134 -445 -230 -76 -72 -113 -125 -154
-223 -69 -165 -97 -300 -136 -656 -31 -283 -38 -324 -87 -545 -22 -99 -48
-230 -57 -291 l-16 -112 -75 -58 c-103 -79 -191 -155 -282 -243 -43 -41 -78
-71 -78 -67 0 24 95 198 201 366 133 211 215 372 251 490 21 72 22 91 24 430
1 377 4 431 35 551 33 131 85 241 164 345 36 47 43 68 25 79 -15 9 -188 -108
-285 -192 -86 -75 -197 -201 -262 -298 -128 -191 -203 -425 -233 -724 -14
-141 -13 -793 2 -972 11 -139 10 -148 -8 -172 -10 -13 -62 -78 -115 -143 -94
-116 -134 -170 -439 -593 -80 -110 -146 -197 -148 -191 -7 20 41 169 83 258
24 51 99 184 166 295 197 325 252 457 284 687 17 125 20 389 5 495 -6 39 -24
133 -41 210 -66 297 -29 505 137 771 24 40 44 77 44 83 0 51 -172 -69 -335
-234 -221 -223 -316 -414 -356 -720 -15 -114 -6 -504 16 -705 9 -80 18 -251
21 -380 6 -226 5 -243 -25 -445 -17 -115 -35 -253 -40 -305 l-9 -95 -117 -175
c-64 -96 -164 -255 -223 -353 -59 -98 -108 -174 -110 -168 -3 10 83 628 124
886 14 88 50 274 80 414 88 413 116 598 130 876 7 141 -3 242 -38 385 -15 60
-21 119 -22 200 0 140 12 176 115 329 85 127 81 147 -17 79 -482 -331 -683
-888 -555 -1540 43 -220 49 -263 61 -438 6 -85 27 -279 47 -430 56 -442 57
-816 1 -908 -11 -18 -66 -123 -124 -235 -57 -111 -104 -199 -104 -195 0 4 11
37 25 73 40 107 95 300 116 406 25 128 24 243 -2 416 -16 106 -19 155 -13 213
5 41 9 81 9 89 0 36 -28 14 -93 -71 -192 -252 -215 -352 -157 -683 25 -145 27
-175 22 -320 -8 -241 -43 -437 -108 -603 -39 -99 -49 -136 -40 -145 17 -17 22
-6 86 158 105 272 219 517 377 811 69 128 72 132 132 167 208 122 558 201 886
201 159 0 196 -4 395 -39 191 -33 240 -38 370 -38 120 0 165 4 227 21 117 32
217 77 318 144 141 92 357 315 331 341 -5 5 -45 -6 -100 -27 -213 -86 -442
-104 -826 -66 -424 41 -593 38 -815 -17 -257 -63 -526 -212 -744 -412 l-39
-36 28 50 c47 84 203 332 297 473 99 148 125 170 258 221 111 43 213 61 347
61 134 0 223 -12 508 -69 274 -54 370 -64 538 -58 115 4 159 10 232 31 161 49
320 132 485 257 178 134 199 170 84 147 -76 -15 -290 -15 -374 1 -36 7 -148
34 -250 61 -246 65 -339 81 -495 81 -396 0 -771 -146 -1090 -425 -85 -75 -87
-78 153 254 215 295 350 474 416 547 55 61 94 73 239 73 187 0 402 -53 696
-171 195 -78 287 -103 438 -118 115 -12 268 -1 367 25 125 33 347 158 331 185
-4 5 -43 9 -89 9 -106 0 -208 27 -350 92 -272 123 -340 150 -447 176 -105 24
-131 26 -324 26 -195 0 -218 -2 -330 -28 -119 -28 -246 -70 -360 -120 l-60
-26 95 93 c145 140 337 291 405 316 145 54 335 35 615 -61 450 -155 497 -166
685 -175 198 -8 355 25 557 119 62 29 88 46 88 59 0 20 -16 25 -150 39 -125
14 -176 29 -349 107 -267 119 -384 146 -646 146 -171 1 -262 -10 -418 -49 -90
-23 -133 -37 -229 -78 -21 -9 -38 -14 -38 -12 0 2 48 35 108 72 141 89 319
179 466 237 108 42 127 47 201 47 134 0 241 -32 601 -179 194 -79 318 -111
460 -118 83 -4 129 -2 185 11 92 20 301 119 294 138 -3 8 -37 21 -75 30 -39 9
-155 51 -259 92 -269 108 -450 152 -671 165 l-115 6 125 33 c69 19 189 54 267
78 78 24 153 44 166 44 32 0 67 -13 230 -82 300 -127 524 -153 729 -84 175 59
302 131 296 169 -2 17 -11 21 -49 22 -25 1 -90 16 -145 33 -201 63 -224 66
-439 67 -182 0 -318 -12 -440 -41 -11 -2 77 43 195 102 l215 106 75 -6 c41 -3
149 -24 240 -46 274 -67 399 -64 549 15 116 61 319 251 294 276 -6 6 -27 2
-57 -10 -83 -36 -156 -50 -416 -82 -222 -26 -437 -60 -562 -88 -21 -5 -38 -8
-38 -6 0 1 18 14 39 28 22 15 56 41 77 59 34 30 41 32 98 30 148 -7 423 125
586 282 41 40 112 105 158 146 92 81 96 100 15 81 -26 -6 -91 -16 -143 -21
-52 -6 -119 -15 -149 -21 -226 -46 -551 -292 -551 -418 0 -53 -190 -177 -479
-312 -105 -50 -105 -50 -76 -18 17 17 107 97 200 177 323 277 417 396 520 657
59 150 68 167 112 216 53 58 32 64 -87 24 -149 -50 -224 -90 -295 -156 -102
-96 -139 -163 -254 -459 -76 -195 -113 -257 -249 -422 -120 -146 -97 -130
-301 -205 -92 -33 -602 -176 -608 -170 -5 5 152 118 352 252 249 168 327 226
405 306 118 118 223 298 313 536 59 154 91 215 144 274 44 49 39 69 -17 69
-48 0 -185 -54 -282 -111 -227 -133 -363 -303 -673 -839 -170 -293 -250 -416
-309 -473 -34 -33 -63 -47 -166 -82 -69 -24 -162 -56 -208 -73 l-82 -31 19 27
c32 44 185 189 342 325 283 243 340 327 479 697 88 233 140 330 220 410 36 36
80 72 98 79 35 15 41 31 17 51 -40 33 -266 -28 -411 -111 -99 -57 -214 -156
-279 -242 -103 -135 -171 -274 -277 -567 -32 -91 -106 -277 -162 -415 -57
-137 -106 -257 -109 -266 -3 -9 -54 -41 -114 -71 -120 -61 -249 -138 -384
-228 -50 -34 -89 -55 -89 -47 0 23 95 179 233 384 138 204 195 306 267 478 50
122 72 205 110 426 61 357 105 459 272 635 94 98 86 110 -52 73z m-145 -141
c-174 -175 -275 -386 -330 -688 -28 -152 -42 -194 -183 -540 -44 -107 -94
-233 -110 -280 -38 -104 -39 -94 -8 42 31 129 49 253 82 538 37 332 79 512
155 662 41 81 152 192 244 244 62 35 210 103 226 104 4 0 -31 -37 -76 -82z
m101 15 c-110 -141 -157 -261 -200 -508 -45 -257 -56 -307 -87 -400 -48 -143
-168 -375 -278 -535 -55 -80 -119 -176 -142 -213 -23 -37 -43 -66 -46 -64 -6
7 100 293 205 550 120 291 124 304 157 482 31 164 59 255 116 368 75 149 170
270 269 343 25 19 46 34 48 34 2 0 -17 -26 -42 -57z m866 -13 c-139 -104 -243
-232 -332 -410 -138 -277 -205 -381 -407 -633 -80 -100 -157 -199 -171 -220
-14 -20 -26 -36 -28 -34 -2 2 20 59 50 128 29 68 88 219 131 334 165 449 293
638 526 776 59 36 272 119 303 119 5 0 -27 -27 -72 -60z m610 24 c-106 -90
-166 -166 -305 -382 -54 -86 -120 -184 -146 -217 -87 -113 -547 -588 -510
-527 12 20 78 134 147 252 343 589 489 753 782 881 36 16 67 28 69 29 3 0 -14
-16 -37 -36z m591 -7 c-93 -119 -164 -222 -252 -368 -114 -188 -185 -282 -298
-398 l-74 -76 30 52 c38 66 83 169 133 303 107 286 194 394 393 482 77 34 92
35 68 5z m-557 -41 c-18 -30 -54 -112 -80 -183 -147 -394 -259 -534 -631 -785
-99 -67 -210 -144 -247 -170 -38 -26 -68 -46 -68 -43 0 3 102 110 226 238 279
285 359 381 473 561 98 156 168 253 221 312 33 36 129 124 136 124 1 0 -12
-24 -30 -54z m530 -112 c-43 -117 -66 -160 -140 -269 -60 -89 -209 -247 -296
-315 -43 -33 -42 -31 19 35 65 72 131 168 267 387 82 134 173 263 179 256 3
-2 -11 -44 -29 -94z m-1209 44 c-40 -53 -90 -162 -157 -338 -141 -376 -195
-454 -490 -708 -80 -69 -172 -150 -204 -181 l-59 -56 46 67 c26 38 100 134
165 215 230 289 257 328 404 609 114 216 140 257 233 352 74 76 103 94 62 40z
m-1633 -154 c-97 -142 -195 -393 -249 -633 -13 -58 -38 -200 -54 -314 -36
-248 -50 -308 -134 -588 -36 -118 -71 -250 -79 -294 l-13 -80 -7 55 c-10 88
-9 632 2 785 29 406 125 664 342 923 62 73 227 227 235 218 2 -2 -18 -34 -43
-72z m56 -16 c-87 -188 -105 -318 -96 -678 5 -172 3 -295 -4 -352 -21 -171
-89 -327 -257 -591 -53 -84 -121 -197 -150 -252 l-54 -100 6 55 c9 82 50 248
100 405 74 234 94 320 130 570 53 356 111 572 210 782 36 77 139 243 151 243
1 0 -15 -37 -36 -82z m3213 -82 c-192 -95 -363 -192 -466 -265 -32 -23 -60
-41 -63 -41 -2 0 4 17 15 38 38 74 160 177 301 255 112 61 210 88 388 106 8 0
-71 -41 -175 -93z m106 -33 c-50 -49 -112 -102 -137 -120 -115 -83 -358 -184
-438 -182 l-39 0 23 17 c93 67 269 169 455 262 119 61 220 110 223 110 3 0
-36 -39 -87 -87z m-4124 -345 c-70 -148 -90 -238 -90 -398 0 -116 5 -155 32
-275 57 -248 66 -471 28 -700 -33 -204 -87 -334 -246 -596 -51 -85 -117 -197
-146 -249 -30 -52 -51 -84 -48 -70 20 99 113 454 153 590 87 289 89 309 102
840 12 463 29 568 120 750 32 64 124 200 135 200 2 0 -16 -42 -40 -92z m-53
32 c-73 -97 -136 -247 -166 -397 -26 -133 -36 -275 -36 -533 0 -395 -16 -532
-91 -775 -17 -55 -50 -173 -73 -262 l-41 -161 -1 206 c0 138 -8 287 -24 447
-30 309 -33 614 -6 759 43 238 124 407 285 594 38 44 177 172 188 172 1 0 -14
-23 -35 -50z m4199 -77 c-41 -19 -117 -47 -170 -61 -87 -23 -112 -25 -276 -24
-99 1 -196 5 -215 10 -30 7 -12 12 130 35 91 14 253 36 360 47 107 12 197 23
199 26 2 2 14 4 25 3 12 0 -10 -15 -53 -36z m89 -13 c-60 -52 -118 -90 -188
-123 -66 -32 -69 -32 -212 -31 -121 1 -160 6 -235 26 l-90 25 146 -5 c220 -7
388 25 546 107 73 38 75 38 33 1z m-5021 -334 c-70 -129 -124 -318 -153 -531
-23 -174 -35 -395 -46 -890 -14 -621 -38 -1147 -48 -1060 -1 17 -16 140 -32
275 -16 135 -36 332 -45 438 -10 127 -28 256 -52 380 -36 182 -37 193 -37 407
0 189 3 234 22 322 59 269 164 470 342 649 46 46 85 84 86 84 2 0 -15 -33 -37
-74z m4197 33 c52 -5 125 -18 162 -28 157 -43 232 -66 232 -72 0 -13 -117 -29
-209 -29 -53 0 -224 16 -381 35 -157 19 -303 35 -325 36 -88 1 -79 15 21 33
197 34 351 42 500 25z m-4187 -115 c-22 -56 -15 -199 19 -366 37 -184 41 -293
17 -544 -19 -197 -40 -322 -114 -679 -68 -323 -85 -417 -111 -610 l-19 -140 5
100 c15 343 25 632 34 1010 13 549 25 707 71 942 25 127 93 332 106 319 2 -2
-2 -16 -8 -32z m3991 -15 c160 -22 269 -31 377 -32 83 -1 151 -3 150 -4 -1 0
-38 -16 -82 -33 -90 -36 -202 -60 -278 -60 -134 0 -369 61 -527 136 l-75 35
105 -5 c58 -3 206 -20 330 -37z m-780 -184 c168 -35 240 -57 400 -122 74 -31
164 -66 200 -79 l65 -24 -145 4 c-169 5 -241 20 -535 105 -228 67 -363 96
-500 107 -66 5 -84 9 -67 15 98 36 391 33 582 -6z m-369 -61 c52 -9 180 -41
284 -71 346 -101 503 -132 668 -133 60 -1 52 -9 -41 -41 -126 -44 -286 -43
-457 1 -44 12 -186 64 -316 116 -130 52 -279 105 -330 119 l-94 24 96 1 c52 0
138 -7 190 -16z m-191 -289 c103 -23 174 -48 304 -107 160 -73 260 -108 327
-115 32 -3 59 -9 59 -13 0 -13 -188 -23 -302 -16 -131 8 -275 32 -529 90 -307
70 -383 80 -572 81 -152 0 -165 1 -135 14 52 21 249 69 330 80 107 14 427 6
518 -14z m-440 -137 c69 -11 211 -39 315 -63 338 -78 528 -100 715 -85 58 4
106 7 108 5 1 -1 -28 -14 -65 -27 -222 -82 -442 -92 -681 -32 -57 14 -191 57
-299 95 -191 68 -368 118 -428 120 -30 1 -30 1 -5 9 36 12 195 2 340 -22z
m-258 -309 c191 -21 272 -47 608 -199 63 -29 155 -63 204 -75 l91 -23 -70 -8
c-105 -13 -307 -8 -420 10 -55 9 -219 45 -365 81 -394 95 -419 99 -622 100
l-176 0 46 18 c215 85 477 120 704 96z m-312 -169 c63 -12 212 -45 330 -75
357 -89 419 -99 625 -100 99 0 205 3 235 7 l55 7 -70 -34 c-186 -92 -443 -108
-692 -44 -40 10 -139 45 -220 77 -227 92 -506 171 -608 173 -33 0 -36 2 -20
10 30 14 235 2 365 -21z m60 -525 c46 -9 159 -36 251 -61 230 -61 254 -65 419
-73 l145 -6 -111 -37 c-173 -59 -242 -71 -394 -71 -114 0 -171 7 -370 42 -492
88 -690 66 -1090 -118 -166 -77 -167 -74 -22 35 197 149 511 272 777 303 105
13 289 6 395 -14z m785 -201 c-128 -106 -348 -220 -502 -261 -84 -22 -119 -26
-243 -26 -160 -1 -203 5 -530 68 -124 24 -272 49 -330 56 -97 11 -266 8 -330
-6 -38 -9 93 52 200 91 275 104 459 111 877 37 188 -33 225 -37 383 -37 165 0
182 2 290 31 63 17 135 41 160 52 58 26 61 25 25 -5z m-2981 -531 c-8 -27 -26
-100 -40 -163 -22 -103 -24 -138 -23 -342 0 -177 -4 -252 -18 -335 l-18 -108
-6 110 c-4 61 -19 179 -33 263 -40 239 -32 329 41 462 33 61 100 160 108 160
2 0 -3 -21 -11 -47z m2725 1 c-37 -40 -193 -112 -304 -140 -149 -38 -336 -42
-695 -14 -203 16 -323 21 -415 16 -232 -10 -466 -73 -740 -196 -141 -64 -138
-56 12 46 178 120 382 208 583 251 121 26 492 25 720 -2 323 -38 597 -24 780
40 86 29 88 29 59 -1z m-2653 -335 c10 -133 -19 -280 -112 -567 -9 -29 -19
-51 -21 -49 -2 2 6 57 18 123 18 104 20 142 14 304 -7 195 -2 256 37 415 l22
90 18 -115 c9 -63 20 -154 24 -201z m2519 196 c-118 -99 -271 -180 -409 -218
-121 -33 -335 -31 -551 6 -255 44 -292 48 -445 48 -209 0 -441 -34 -620 -90
-35 -11 -66 -19 -67 -17 -5 5 187 91 277 124 290 106 538 132 928 97 273 -24
428 -28 547 -16 121 13 239 40 306 70 60 27 69 25 34 -4z"/>
</g>
</svg>
