<svg version="1.2" xmlns="http://www.w3.org/2000/svg" viewBox="0 0 467 437" width="467" height="437">
	<style>
		.s0 { fill: #000000 } 
	</style>
	<g>
		<path class="s0" d="m424.5 6.1c-28.5 3.2-48.7 13.9-60.8 32.1-11.2 17-15.1 30-15 50.3 0.1 11.8 1.4 20.2 7.2 47.5 1.2 5.2 2.1 12.2 2.1 15.5 0 11.2-4.4 33-10.6 52-5.8 17.7-9.3 24.9-5.4 10.9 2.8-10.1 5-23.7 5-31.4 0-10.7-2.5-21.4-11.5-48.9-9.7-29.8-12.5-41.1-13.2-53.9-0.4-5.7-0.9-8.8-1.5-8-1.7 2.7-8.7 25.6-10.4 34.3-1.3 6.4-1.8 13.7-1.9 25.5 0 17.9 0.6 20.8 8 44 9 27.8 12.6 44.8 12.9 60 0.1 10.5 1 8.3-10.3 26-6.5 10.3-28.1 37.2-26 32.5 0.3-0.6 1.7-3.6 3.2-6.8 3.9-8.6 7.3-20 8.7-29.8 1.8-12.5 0.8-36-2.4-53.9-5.6-31.3-6-35-6.1-55 0-10.7 0.4-22.4 0.8-26l0.8-6.5-2 3.2c-3.4 5.5-16.5 31.3-20.8 41.3-12.2 28.2-13.1 45.9-4.7 91.9 4.6 24.9 5.8 37.7 4.5 47.7-1.6 13-3.3 16.2-13.1 24.1-7.6 6.2-24 18.4-28 20.8-1.8 1.1-1.3 0.3 7.1-10.7 14.6-19.1 17.2-32.5 14.4-75.6-1.5-24-1.5-32.3 0.1-43.2 0.4-2.2-2.8 3.1-8.8 15-5.1 10.2-11 21.1-13.1 24.2-4.9 7.3-9.2 17.5-11.4 26.9-1.4 6-1.7 12.9-1.8 35.9-0.1 31.2-1 37.3-5.7 39.6-1.3 0.7-11.6 6-23.1 11.8-11.4 5.8-21 10.6-21.3 10.6-0.2 0 2.3-4 5.6-8.9 18.5-27.2 26-59.9 19.5-84.6-5-18.8-17.4-33.2-31.9-37-3.3-0.8-6.1-1.4-6.2-1.2-0.2 0.2 0.8 2.5 2.1 5.2 3.5 6.8 3.5 20.2-0.1 38-3.3 16.5-3 31.4 1 51 3.5 16.7 4.2 26.5 2.6 34.8l-1.2 6.6-10.2 4c-28.2 11.1-45.7 17.1-71.6 24.5-15.7 4.4-45.1 11.5-57 13.6-9.2 1.7-11.2 3.3-3 2.5 38.4-3.6 85.9-15.2 127.8-31.2 12.2-4.6 15-5.4 18.5-4.8 9 1.4 29.5 9.1 35.5 13.4 4.4 3 11.3 7 17.2 9.7 3 1.3 6.3 2.9 7.2 3.4 0.9 0.5 5.4 1.9 10 3.2 7.2 2 10.5 2.3 25.3 2.2l17-0.1 17.5-5.1c20.7-5.9 26.8-7.3 37.5-8.1l8-0.6-6.9-2.8c-9.8-4-22.3-6.4-43.1-8.2-23.6-2-27.2-2.6-52.6-9-11.9-3-24.9-5.9-29-6.4-7.6-1-24.7-0.7-29.6 0.5-4.1 1-3.3 0.5 13.7-8.3 8.5-4.5 17.3-9.1 19.6-10.4l4.1-2.3 5 3.7c2.8 2 5.3 3.7 5.6 3.7 0.3 0 3.3 1.6 6.7 3.5 8.3 4.7 22.7 10 32.9 12 10.1 2.1 30.4 1.6 39.1-0.9 9-2.6 22.4-3.1 30-1.1 3.6 0.9 8 2.5 9.8 3.6 4.1 2.4 4.1 2.4 3.5-0.2-0.4-1.2-4.5-6.1-9.2-10.9-7.2-7.3-10-9.4-17.1-12.8-4.7-2.2-11.9-4.8-16-5.7-10.6-2.4-29.3-2.2-45.3 0.4-12.7 2.1-39.8 3-39.7 1.3 0.1-0.4 2.6-2.3 5.7-4.2 3.1-1.9 10.9-7.3 17.2-11.9l11.6-8.4 17.5-0.2c14.2-0.2 19.1-0.6 26-2.4 13.4-3.4 22.4-6.4 30.5-10.1 1.1-0.5 4.9-2.2 8.5-3.8 3.6-1.6 12.4-6.4 19.5-10.7 18.3-11 30.1-16.2 43.5-19l5.5-1.2-4.8-0.8c-2.7-0.4-12.6-0.5-22-0.2-19.5 0.5-32.4 2.7-49.9 8.4-10.4 3.3-30.5 12.8-37 17.4-4.1 3-27 15.9-28.1 15.9-0.5 0 6.3-7.1 15.1-15.8 13.6-13.4 24.1-24.9 26.9-29.6 0.5-0.7 6.7-2.7 13.8-4.5 24.4-6.2 41.1-12.4 50.1-18.5 2.1-1.4 8.3-7 13.9-12.4 10.7-10.4 19.9-16.1 32-19.9l6-1.8-6.3-0.3c-12-0.6-37.1 3.9-50.2 8.9-4.9 1.8-16.7 8.3-18 9.9-0.3 0.3-1.8 1.4-3.3 2.3-1.6 1-3.8 2.7-5 3.7-1.2 1-6.9 5.8-12.7 10.6-8.6 7.3-10.1 8.3-8.3 5.4 1.1-1.9 3.5-5.8 5.2-8.5 1.7-2.8 5.4-9.6 8.2-15.2 2.8-5.6 5.6-10.7 6.3-11.2 4.2-3.4 16.4-8.1 30.6-11.6 18.3-4.6 30.6-11.2 40.8-21.9 17.5-18.2 23.1-22.4 34.6-26.3 4.1-1.3 4.1-1.3-2.4-0.7-23.5 2.1-52.2 11.8-70.2 23.7-8.7 5.8-18.9 14.8-24.8 21.9-3 3.6-5.6 6.5-5.7 6.4-0.1-0.1 1.7-5.7 4.1-12.5 4.9-14.5 6.7-16.8 20-25.1 29-18.2 39.3-28.6 57.8-59 8.8-14.2 18.4-22.5 31.3-26.6l7-2.3-7.5-0.1c-15.2 0-37.8 5.4-48.8 11.7-7.4 4.2-15.5 10.7-19.3 15.5-8.9 10.9-19.6 29.4-28.8 49.8-2.3 5.2-4 8.4-3.7 7 0.3-1.4 1.3-7.7 2.2-14 1.6-11 1.8-11.7 5.4-15.5 4.7-4.9 10.9-16.4 14.3-26.5 1.4-4.1 4.2-15.6 6.2-25.4 5.1-24.7 9.6-39 16.4-52.2 3.2-6.1 6.7-12.1 7.7-13.4 9.2-11.2 14.5-16.7 21.6-22 4.6-3.4 8.5-6.6 8.6-7.1 0.4-1-2.2-1-13.3 0.2z"/>
	</g>
</svg>