<?xml version="1.0" standalone="no"?>
<!DOCTYPE svg PUBLIC "-//W3C//DTD SVG 20010904//EN"
 "http://www.w3.org/TR/2001/REC-SVG-20010904/DTD/svg10.dtd">
<svg version="1.0" xmlns="http://www.w3.org/2000/svg"
 width="600.000000pt" height="960.000000pt" viewBox="0 0 600.000000 960.000000"
 preserveAspectRatio="xMidYMid meet">
<g transform="translate(0.000000,960.000000) scale(0.100000,-0.100000)"
fill="#000000" stroke="none">
<path d="M2168 9201 c-51 -55 -127 -126 -168 -159 -87 -68 -107 -90 -145 -152
-40 -65 -71 -96 -147 -146 -94 -61 -153 -125 -199 -219 -60 -123 -74 -188 -74
-345 1 -156 11 -198 85 -357 27 -56 53 -119 60 -140 7 -21 28 -78 48 -128 59
-152 63 -174 67 -385 3 -215 18 -320 81 -571 66 -265 133 -413 286 -642 59
-86 101 -154 95 -150 -194 126 -298 202 -325 235 -70 88 -69 87 -75 283 -6
252 -19 287 -162 465 -57 70 -106 169 -117 235 -2 12 -11 20 -23 20 -17 0 -21
-9 -25 -65 -3 -38 -18 -98 -37 -145 -62 -158 -63 -249 -3 -370 35 -74 94 -135
206 -215 62 -46 92 -75 118 -119 20 -32 36 -61 36 -65 0 -3 -36 12 -80 34 -44
22 -135 63 -202 91 -67 27 -129 55 -138 63 -8 7 -36 24 -61 39 -26 14 -74 57
-107 95 -65 73 -106 97 -184 107 -39 5 -58 16 -102 56 -65 60 -126 89 -186 89
-55 0 -102 -21 -206 -92 -111 -76 -192 -105 -349 -125 -52 -7 -60 -11 -63 -30
l-3 -23 138 7 c127 5 145 4 207 -17 39 -13 112 -52 174 -93 169 -111 241 -137
387 -137 50 0 128 7 175 15 180 32 294 13 484 -78 276 -134 532 -311 702 -485
56 -57 112 -114 124 -126 71 -68 149 -150 146 -153 -7 -8 -330 162 -359 189
-17 16 -42 37 -55 45 -13 9 -66 69 -118 134 -113 141 -156 179 -254 227 -73
35 -80 37 -220 43 -90 4 -163 13 -194 23 -60 20 -126 21 -169 3 -18 -8 -72
-41 -122 -74 -49 -33 -129 -78 -177 -101 -48 -22 -99 -52 -114 -67 -14 -14
-37 -30 -50 -35 -15 -6 -24 -18 -24 -31 0 -19 4 -21 37 -15 328 55 583 45 921
-35 247 -58 393 -114 701 -269 299 -150 311 -157 371 -225 30 -33 131 -139
225 -235 95 -96 177 -183 182 -193 5 -10 16 -19 25 -20 8 -2 30 -16 49 -31 70
-59 309 -280 309 -287 0 -3 -31 4 -69 17 -110 37 -284 73 -399 83 -59 5 -273
8 -477 7 -403 -2 -440 -6 -585 -65 -172 -71 -312 -215 -378 -392 -24 -64 -35
-141 -58 -404 -9 -104 -23 -205 -30 -224 -17 -40 -18 -127 -3 -137 17 -10 28
7 47 77 33 117 139 238 247 284 24 10 91 20 170 26 72 5 155 16 185 25 134 39
268 156 369 324 147 244 255 353 401 406 88 31 142 29 329 -12 253 -57 336
-100 469 -242 280 -301 414 -509 505 -782 60 -181 80 -328 81 -600 1 -211 -1
-246 -22 -338 -36 -162 -88 -323 -154 -476 -64 -150 -158 -340 -164 -333 -3 2
2 47 11 99 17 110 21 232 17 603 -3 297 -9 247 77 630 29 129 35 226 22 340
-22 185 -59 272 -165 384 -82 85 -143 125 -348 226 -95 48 -190 99 -210 116
-20 16 -44 29 -53 29 -27 0 -29 -29 -3 -54 36 -33 51 -87 44 -160 -21 -214
-18 -337 10 -410 7 -17 5 -17 -24 -2 -47 24 -160 63 -220 75 -74 15 -284 13
-364 -4 -115 -24 -294 -112 -391 -192 -16 -13 -39 -23 -53 -23 -17 0 -24 -5
-24 -20 0 -23 0 -23 85 -39 149 -27 299 -143 390 -301 65 -111 124 -171 201
-200 112 -42 227 -60 395 -60 189 0 251 -15 361 -89 97 -66 123 -94 151 -171
59 -156 86 -374 68 -545 -25 -231 -70 -389 -151 -531 -119 -210 -355 -723
-400 -871 -21 -71 -24 -142 -5 -145 14 -2 29 32 63 142 60 192 266 634 422
905 138 240 176 294 323 465 178 207 186 215 252 248 83 41 152 52 329 52 315
0 464 40 628 167 76 60 131 142 185 276 24 62 55 131 69 154 38 66 114 135
192 176 52 28 72 43 70 55 -3 14 -13 16 -53 14 -28 -2 -66 -8 -85 -14 -23 -8
-104 -10 -230 -8 -378 7 -398 6 -468 -23 -86 -36 -186 -104 -257 -176 -33 -34
-115 -146 -186 -253 -172 -262 -232 -347 -298 -423 -31 -35 -89 -103 -130
-149 -41 -47 -76 -84 -78 -83 -1 2 20 55 47 119 27 64 66 170 86 235 21 65 45
129 55 143 24 33 84 215 103 315 49 248 76 662 58 867 -10 117 -73 461 -101
551 -19 63 -22 164 -10 322 14 188 2 393 -31 519 -55 213 -183 369 -393 477
-106 55 -132 81 -189 194 -51 100 -82 131 -174 176 -47 23 -118 47 -162 56
-72 14 -83 14 -135 -1 -44 -13 -57 -21 -57 -36 0 -23 21 -25 83 -11 33 8 41 6
55 -10 56 -65 66 -186 27 -337 -54 -217 -54 -309 3 -437 31 -70 110 -174 179
-234 64 -57 211 -153 353 -230 149 -81 226 -137 289 -208 45 -50 55 -71 85
-168 32 -101 69 -265 113 -490 36 -188 12 -776 -42 -996 l-13 -54 -1 116 c-3
279 -36 513 -98 694 -50 143 -152 338 -246 470 -135 187 -420 490 -725 770
l-174 159 -64 128 c-57 113 -151 347 -176 435 -5 20 -5 40 1 50 6 12 5 38 -2
73 -16 83 3 190 57 313 24 56 69 158 99 227 68 157 87 234 87 353 0 126 -25
218 -104 386 -74 156 -101 230 -117 327 -11 69 -11 70 30 177 23 60 39 112 36
118 -17 27 -57 -10 -71 -65 -3 -15 -15 -31 -25 -37 -11 -5 -19 -18 -19 -28 0
-26 -78 -133 -234 -321 -220 -264 -256 -340 -264 -550 -5 -155 11 -262 58
-393 40 -108 77 -171 179 -306 211 -278 230 -309 302 -506 26 -71 61 -161 79
-200 l31 -70 -61 60 c-34 33 -116 121 -183 195 -67 74 -149 164 -183 200 -34
36 -125 136 -204 222 -350 387 -512 651 -599 978 -106 396 -127 711 -58 849
27 54 36 65 207 279 161 200 234 343 266 522 28 154 15 305 -44 511 -46 160
-52 193 -52 266 1 99 36 193 96 254 31 31 45 53 41 63 -12 31 -36 15 -129 -83z
m-38 -393 l13 -57 -57 -52 c-76 -70 -132 -144 -202 -267 -31 -57 -59 -101 -61
-99 -8 8 39 195 78 312 41 124 91 225 163 330 l41 60 6 -85 c3 -47 11 -111 19
-142z m-167 101 c-52 -89 -98 -203 -137 -337 l-33 -115 -7 48 c-4 26 -16 81
-27 123 -19 71 -19 76 -3 85 38 21 99 85 132 137 34 54 102 133 109 126 2 -2
-13 -32 -34 -67z m216 -283 c20 -82 21 -90 6 -99 -30 -17 -116 -98 -180 -169
-87 -99 -151 -208 -197 -341 l-40 -112 7 115 c3 63 13 141 21 174 19 72 88
213 159 322 55 84 183 220 195 207 4 -5 17 -48 29 -97z m-429 -41 c26 -109 24
-232 -4 -420 -27 -175 -24 -174 -62 -35 -21 73 -57 172 -89 239 l-55 114 30
51 c17 28 38 60 48 71 34 39 93 85 102 80 5 -3 18 -48 30 -100z m466 -152 c11
-113 -9 -275 -40 -327 -13 -23 -77 -99 -141 -170 -142 -158 -192 -225 -231
-304 -16 -34 -32 -61 -36 -62 -14 0 -9 154 7 246 30 173 84 310 177 447 47 71
220 247 242 247 11 0 16 -20 22 -77z m-571 -237 c37 -114 78 -296 73 -323 -2
-10 -14 25 -27 77 -33 135 -105 351 -141 421 -17 33 -27 65 -24 71 10 16 81
-130 119 -246z m-29 -53 c29 -90 62 -211 73 -270 21 -116 37 -355 25 -374 -8
-14 -43 64 -43 99 -1 29 -74 200 -104 246 -82 119 -110 372 -60 540 9 31 48
-56 109 -241z m506 -189 c-54 -107 -158 -249 -332 -454 l-21 -25 6 35 c9 50
67 166 119 233 52 69 258 298 264 293 2 -2 -15 -39 -36 -82z m742 -945 c-26
-86 -73 -325 -84 -421 -6 -51 -11 -171 -11 -267 l-1 -176 -19 40 c-10 22 -36
81 -58 132 -36 83 -95 183 -150 254 l-20 26 45 73 c25 41 72 106 106 145 33
38 92 109 131 158 38 48 71 87 73 87 2 0 -4 -23 -12 -51z m140 -217 c13 -25
13 -29 -4 -39 -27 -17 -109 -146 -147 -232 l-35 -76 6 87 c8 111 61 390 92
478 3 8 20 -32 39 -88 19 -56 41 -115 49 -130z m-1456 -20 c58 -71 73 -111 79
-203 7 -88 -4 -182 -17 -158 -5 8 -30 73 -55 143 -46 126 -75 238 -74 286 0
23 1 24 12 6 7 -11 32 -44 55 -74z m-92 -90 c-2 -2 -13 13 -25 32 -19 30 -20
38 -10 58 12 22 14 20 25 -32 7 -30 11 -56 10 -58z m1579 48 c4 -14 -9 -39
-49 -91 -58 -76 -105 -163 -142 -264 -18 -47 -23 -54 -23 -32 -2 70 79 253
158 360 39 52 47 56 56 27z m-1587 -67 c39 -52 48 -73 34 -73 -10 0 -82 99
-82 113 0 17 17 3 48 -40z m1676 -164 c9 -36 16 -97 16 -135 0 -83 -12 -108
-116 -246 -84 -112 -118 -168 -150 -246 -27 -68 -28 -66 -45 131 -16 194 -4
284 56 427 34 83 85 167 135 224 l33 37 27 -63 c15 -35 35 -93 44 -129z
m-1714 153 c0 -5 24 -35 53 -68 33 -37 61 -81 75 -118 12 -32 21 -61 19 -63
-8 -8 -141 134 -153 164 -16 38 -18 93 -4 93 6 0 10 -4 10 -8z m254 -40 c34
-67 48 -151 44 -272 l-3 -105 -33 53 -33 54 3 126 c1 70 -1 142 -5 160 -12 46
-1 40 27 -16z m-897 -78 c32 -31 47 -49 33 -40 -14 9 -45 29 -68 44 -78 48
-81 51 -50 52 20 0 43 -16 85 -56z m-47 -9 c58 -36 160 -121 160 -134 0 -4
-57 3 -127 15 -71 12 -176 25 -235 29 l-108 7 53 32 c28 18 72 47 97 65 54 39
76 37 160 -14z m113 -3 c29 -26 68 -54 87 -61 19 -7 44 -16 55 -21 20 -8 93
-100 78 -100 -4 1 -36 9 -71 18 -56 16 -66 23 -98 67 -19 28 -55 71 -81 98
-60 61 -39 61 30 -1z m1747 -36 c47 -71 111 -202 171 -354 52 -130 31 -120
-36 16 -67 138 -157 294 -199 347 -19 23 -22 35 -15 53 12 31 20 24 79 -62z
m-987 -153 c9 -18 13 -33 7 -33 -17 0 -146 132 -164 169 -16 30 -10 26 61 -35
43 -37 86 -82 96 -101z m954 85 c54 -83 181 -327 213 -408 12 -30 28 -102 36
-160 7 -58 16 -121 19 -140 6 -32 2 -30 -41 35 -63 94 -145 187 -209 237 -49
38 -55 48 -71 107 -29 112 -31 401 -3 401 5 0 30 -32 56 -72z m-1438 -44 c29
-30 52 -57 49 -59 -2 -3 -20 0 -39 6 -25 7 -44 25 -73 65 -36 52 -37 56 -15
49 13 -3 48 -31 78 -61z m-460 0 c2 -1 -14 -10 -35 -19 -41 -17 -57 -14 -94
15 l-25 21 75 -7 c41 -4 77 -8 79 -10z m326 -64 c86 -22 163 -44 173 -49 32
-18 -59 -25 -188 -13 -82 7 -145 7 -183 1 -58 -9 -59 -9 -115 28 -31 21 -57
42 -57 48 0 19 79 35 147 30 38 -3 138 -23 223 -45z m-5 -79 c42 -5 111 -4
158 1 59 7 92 6 118 -2 19 -7 34 -14 32 -15 -2 -2 -53 -11 -113 -21 -178 -27
-284 -22 -384 18 -24 10 -25 11 -6 18 26 11 100 11 195 1z m2129 -106 c-17
-49 -58 -147 -91 -219 -69 -149 -94 -216 -103 -281 -4 -24 -11 -43 -15 -40 -4
3 -14 43 -20 89 -15 99 -7 142 45 246 31 61 205 304 212 296 2 -2 -11 -43 -28
-91z m-468 -232 c118 -124 192 -238 213 -332 9 -41 15 -75 13 -77 -3 -4 -136
168 -205 266 -76 106 -137 230 -114 230 5 0 47 -39 93 -87z m-1205 17 c85 -30
189 -85 269 -145 66 -49 157 -135 143 -135 -4 0 -62 13 -130 30 -68 16 -163
36 -213 43 -68 11 -110 24 -172 56 -46 22 -107 46 -135 52 -29 6 -59 12 -67
15 -8 3 18 25 64 54 68 43 86 50 131 50 28 0 77 -9 110 -20z m276 -21 c69 -15
142 -50 200 -97 40 -32 224 -250 216 -257 -2 -1 -48 15 -103 36 -55 21 -107
40 -116 42 -9 3 -32 29 -51 58 -34 52 -111 130 -193 196 -45 36 -37 40 47 22z
m-71 -27 c50 -32 162 -132 155 -139 -2 -3 -33 18 -68 45 -34 27 -89 64 -120
82 -32 17 -58 34 -58 36 0 14 53 0 91 -24z m-397 -82 c35 -11 74 -28 86 -38
20 -16 16 -17 -117 -14 -76 2 -173 -1 -215 -6 -43 -4 -78 -6 -78 -3 0 3 38 25
83 47 93 47 126 49 241 14z m2333 -122 c56 -62 286 -390 353 -503 21 -37 17
-34 -51 31 -113 108 -193 159 -302 191 -39 11 -47 18 -42 31 16 38 17 197 2
245 -8 26 -12 47 -7 47 4 0 25 -19 47 -42z m155 -41 c16 -18 47 -66 69 -108
60 -115 94 -150 204 -204 l95 -48 0 -97 c0 -54 7 -134 15 -177 8 -43 15 -80
15 -83 0 -3 -33 56 -74 131 -73 136 -240 392 -368 567 l-69 93 42 -22 c23 -11
55 -35 71 -52z m-77 -291 c62 -29 161 -99 205 -145 130 -134 155 -169 222
-308 37 -78 78 -169 92 -202 l24 -59 -72 60 c-112 94 -282 167 -476 203 -91
17 -90 16 -126 92 -46 97 -50 169 -17 326 l17 79 30 -6 c17 -4 63 -21 101 -40z
m559 -177 c42 -44 76 -87 76 -95 0 -8 -7 -58 -16 -112 -11 -68 -15 -138 -12
-232 l5 -135 -25 55 c-34 78 -90 253 -106 335 -21 101 -25 265 -7 265 5 0 43
-36 85 -81z m156 -283 c28 -99 43 -298 35 -456 -4 -74 -10 -139 -13 -144 -5
-9 -62 137 -89 229 -30 102 -26 469 5 519 7 13 38 -60 62 -148z m-530 -61
c135 -45 234 -103 311 -183 l64 -65 -75 63 c-95 80 -201 130 -365 175 -178 48
-178 49 -182 61 -6 17 126 -10 247 -51z m-61 -29 c157 -44 253 -90 344 -165
96 -78 112 -97 140 -161 47 -107 47 -108 -35 -47 -40 30 -125 83 -188 117 -63
35 -159 91 -212 126 -106 70 -213 163 -187 164 8 0 71 -15 138 -34z m-1244
-376 c-100 -44 -278 -113 -355 -138 -80 -27 -285 -72 -322 -72 -37 0 117 113
208 153 60 26 157 52 224 60 72 8 265 6 245 -3z m337 -31 c-34 -22 -90 -71
-126 -110 -63 -68 -82 -95 -220 -306 -37 -57 -71 -103 -76 -103 -10 0 13 105
41 185 32 90 101 222 152 292 l46 61 68 7 c37 3 77 7 88 9 11 2 35 4 54 5 33
1 33 1 -27 -40z m-263 -60 c-87 -128 -161 -308 -184 -446 -5 -33 -16 -51 -48
-79 -46 -39 -144 -89 -194 -99 l-33 -7 0 45 c0 75 29 217 59 288 35 82 100
175 173 246 41 41 71 58 134 82 74 27 124 40 132 35 2 -2 -15 -31 -39 -65z
m-309 -115 c-34 -42 -72 -98 -85 -125 -37 -73 -74 -212 -82 -305 -5 -72 -9
-84 -24 -85 -11 -1 -24 -2 -31 -3 -18 -1 -11 81 17 190 36 140 84 224 194 337
36 37 67 67 68 67 2 0 -24 -34 -57 -76z m-125 37 c-6 -6 -48 -33 -95 -61 -75
-44 -199 -91 -303 -115 l-29 -6 23 41 c37 65 55 75 169 95 58 10 132 26 165
36 71 21 82 22 70 10z m50 -71 c-103 -128 -154 -250 -172 -415 l-8 -70 -67 -7
c-93 -11 -164 -40 -235 -97 -70 -57 -71 -56 -14 81 69 164 217 349 374 466 76
56 173 120 185 122 1 0 -27 -36 -63 -80z m-317 -153 c-98 -108 -133 -157 -193
-270 l-45 -82 6 70 c9 116 23 202 42 252 l17 47 113 32 c62 17 115 34 119 38
3 3 10 6 15 6 5 0 -28 -42 -74 -93z m1639 -174 c108 -114 247 -330 311 -487
52 -126 50 -127 -38 -33 -96 102 -221 205 -298 244 l-54 28 6 75 c14 169 19
220 23 220 2 0 24 -21 50 -47z m135 -22 c93 -43 186 -99 197 -120 16 -29 30
-171 24 -244 l-6 -68 -49 97 c-56 112 -120 212 -189 302 -27 34 -48 62 -46 62
3 0 33 -13 69 -29z m259 -232 c5 -41 7 -96 4 -124 -19 -169 -30 -151 -30 50 0
171 10 200 26 74z m55 13 c70 -86 77 -106 70 -195 -8 -112 -47 -370 -56 -380
-4 -5 -13 20 -19 54 -7 35 -23 99 -36 143 -22 77 -23 84 -9 145 10 42 14 101
12 168 -2 57 -1 103 2 103 3 0 19 -17 36 -38z m-438 -76 c37 -24 95 -68 128
-97 57 -50 216 -213 222 -227 1 -4 -37 31 -85 77 -112 107 -201 179 -282 228
-62 38 -86 63 -61 63 6 0 42 -20 78 -44z m16 -60 c131 -88 345 -292 360 -344
15 -52 47 -223 44 -237 -2 -10 -17 3 -45 39 -51 67 -167 165 -250 212 -71 40
-84 56 -141 170 -33 66 -72 178 -72 208 0 15 29 2 104 -48z m-468 -62 c74 -56
177 -159 255 -255 38 -48 69 -89 69 -93 0 -3 -29 10 -64 29 -35 20 -104 53
-153 74 -60 25 -125 65 -199 121 -60 45 -134 94 -164 109 l-55 25 50 12 c28 7
86 13 131 13 78 1 83 0 130 -35z m139 -57 c84 -85 289 -346 279 -356 -8 -8
-46 34 -124 134 -83 107 -210 240 -274 287 l-39 28 33 0 c29 0 46 -13 125 -93z
m29 63 c36 -12 98 -36 138 -55 70 -34 72 -36 111 -112 52 -102 89 -155 158
-228 57 -61 88 -128 105 -230 l6 -40 -102 100 c-63 61 -147 160 -217 255 -64
85 -154 194 -201 243 -48 48 -82 87 -75 87 6 0 41 -9 77 -20z m837 -47 c8 -38
14 -129 13 -203 0 -117 -4 -153 -33 -275 -18 -77 -34 -141 -36 -143 -4 -4 -12
34 -25 128 -12 79 -11 98 14 245 15 87 30 194 33 237 3 43 9 78 13 78 4 0 14
-30 21 -67z m-1279 13 c47 -21 218 -139 218 -151 0 -2 -17 2 -38 9 -75 27
-190 41 -338 41 l-151 0 36 25 c51 35 183 99 203 100 10 0 41 -11 70 -24z m92
-171 c140 -30 379 -131 506 -213 78 -51 222 -163 216 -169 -2 -3 -28 2 -58 11
-85 24 -277 63 -350 71 -66 6 -255 -11 -279 -26 -29 -18 3 -19 92 -3 65 11
119 14 174 10 155 -12 279 -46 170 -46 -109 0 -291 -32 -366 -64 -25 -11 -75
44 -147 161 -69 113 -150 194 -242 245 -33 18 -60 37 -60 42 0 14 256 0 344
-19z m800 -112 c77 -52 195 -164 239 -229 31 -46 52 -135 23 -100 -9 11 -85
90 -169 176 -139 140 -190 200 -171 200 3 0 38 -21 78 -47z m1662 -229 c-28
-73 -167 -215 -265 -271 -25 -15 -85 -50 -133 -80 -48 -29 -90 -53 -92 -53 -2
0 15 35 37 78 23 42 57 111 76 152 38 85 52 100 134 141 70 36 114 47 191 48
49 1 57 -2 52 -15z m21 -36 c-27 -45 -72 -96 -122 -138 -21 -18 -18 -12 11 20
22 25 59 74 83 108 47 70 68 77 28 10z m-1417 -165 c28 -60 30 -70 30 -191
l-1 -127 -26 65 c-29 70 -82 165 -122 219 -17 23 -27 52 -32 95 -4 33 -10 81
-14 106 l-6 45 71 -75 c44 -46 82 -98 100 -137z m1630 198 c20 -6 3 -16 -108
-65 -73 -32 -135 -63 -138 -67 -3 -5 -10 -9 -15 -9 -6 0 5 19 24 43 19 23 42
57 51 75 16 32 17 32 89 31 39 -1 83 -4 97 -8z m126 -67 c-30 -36 -69 -98 -87
-138 l-32 -71 -161 -1 c-139 -1 -174 -4 -256 -26 -52 -14 -88 -21 -80 -16 41
25 366 198 372 198 4 0 38 14 75 31 53 25 206 86 221 89 1 0 -22 -30 -52 -66z
m-2106 2 c65 -26 101 -61 179 -174 l23 -34 -68 36 c-104 55 -158 66 -324 66
-80 0 -173 5 -207 10 -77 13 -193 48 -193 59 0 13 121 41 240 56 153 20 270
14 350 -19z m1355 -95 c-35 -101 -141 -277 -186 -310 -18 -13 -61 -49 -96 -78
-36 -30 -66 -53 -69 -51 -9 10 249 378 302 430 32 32 59 56 61 54 2 -1 -4 -22
-12 -45z m608 -139 c16 -7 14 -14 -18 -80 -19 -40 -57 -96 -84 -125 l-50 -53
-84 17 c-201 40 -371 31 -550 -30 -48 -16 -85 -26 -82 -21 12 19 195 151 255
184 75 40 222 92 301 105 64 10 287 12 312 3z m-255 -256 c35 -8 65 -16 68
-19 2 -2 -7 -12 -21 -21 -25 -16 -31 -16 -113 5 -77 19 -105 21 -252 17 -91
-3 -174 -8 -185 -12 -11 -3 -5 1 13 9 94 44 337 54 490 21z m-55 -55 c21 -7
35 -16 32 -21 -6 -10 -142 -55 -195 -65 -19 -3 -138 -10 -265 -15 -126 -5
-243 -12 -260 -15 -30 -6 -29 -6 15 34 53 48 97 66 205 86 97 17 410 15 468
-4z"/>
</g>
</svg>
