<?xml version="1.0" standalone="no"?>
<!DOCTYPE svg PUBLIC "-//W3C//DTD SVG 20010904//EN"
 "http://www.w3.org/TR/2001/REC-SVG-20010904/DTD/svg10.dtd">
<svg version="1.0" xmlns="http://www.w3.org/2000/svg"
 width="472.000000pt" height="600.000000pt" viewBox="0 0 472.000000 600.000000"
 preserveAspectRatio="xMidYMid meet">
<g transform="translate(0.000000,600.000000) scale(0.100000,-0.100000)"
fill="#000000" stroke="none">
<path d="M2930 5763 c-11 -25 -53 -89 -94 -142 -73 -96 -170 -242 -202 -302
-55 -107 -70 -235 -39 -331 26 -77 35 -93 119 -198 42 -52 81 -110 86 -130 14
-49 12 -153 -4 -227 -12 -54 -22 -72 -72 -128 -160 -178 -214 -243 -332 -400
-70 -93 -161 -220 -202 -282 -41 -61 -77 -108 -80 -105 -3 4 -3 68 0 142 6
131 7 138 47 225 97 215 111 256 129 385 20 152 15 234 -25 390 -50 195 -93
293 -206 470 -23 36 -51 81 -63 100 -30 48 -122 237 -122 250 0 5 -7 10 -15
10 -11 0 -15 -11 -15 -39 0 -67 -28 -177 -76 -299 -90 -231 -130 -396 -140
-580 -5 -85 -2 -127 14 -204 32 -156 64 -213 201 -363 82 -89 148 -178 175
-235 18 -40 21 -63 21 -196 0 -170 8 -145 -110 -349 -92 -158 -225 -433 -305
-629 -46 -112 -55 -126 -66 -111 -18 24 -31 121 -43 325 -19 300 -64 481 -172
691 -54 104 -168 240 -269 321 -235 189 -296 251 -439 447 -48 66 -80 101 -90
99 -19 -4 -25 -40 -42 -233 -6 -77 -15 -180 -19 -230 -8 -95 3 -339 21 -440
47 -273 218 -532 480 -728 57 -43 214 -128 374 -203 62 -29 141 -112 154 -161
10 -35 9 -48 -4 -73 -22 -43 -89 -239 -141 -415 -50 -167 -130 -401 -195 -574
l-44 -113 -14 33 c-12 30 -11 57 4 211 30 294 5 384 -161 565 -83 91 -164 148
-370 263 -181 100 -348 235 -410 332 -16 25 -29 35 -39 32 -17 -7 -16 -11 11
-149 7 -38 20 -117 29 -175 16 -107 69 -334 107 -450 27 -86 98 -236 138 -297
41 -61 142 -166 197 -204 63 -44 212 -116 268 -130 104 -25 175 -82 175 -140
0 -69 -71 -230 -167 -379 -61 -94 -237 -274 -310 -317 -35 -20 -41 -28 -32
-39 6 -8 17 -14 24 -14 28 0 96 -62 120 -110 25 -50 54 -65 72 -37 8 12 44
100 124 300 41 103 75 176 128 271 30 53 54 89 150 222 30 42 103 83 209 118
87 29 110 20 221 -93 98 -100 270 -242 350 -289 24 -14 89 -38 145 -55 123
-35 319 -46 498 -28 103 11 493 77 508 86 20 12 263 35 312 30 50 -6 59 -4 65
11 4 12 -1 22 -18 33 -26 17 -167 137 -184 157 -29 34 -271 226 -340 270 -152
97 -340 177 -475 201 -172 30 -428 26 -580 -9 -139 -32 -321 -107 -396 -163
-31 -24 -285 -147 -290 -142 -9 8 200 603 239 682 13 28 32 67 42 89 12 26 43
56 91 92 40 30 78 54 84 54 6 0 26 -11 43 -24 45 -33 198 -109 285 -140 173
-62 332 -77 583 -56 91 7 147 19 265 56 203 63 257 90 493 248 217 146 261
172 325 190 54 16 55 31 4 49 -24 8 -95 39 -158 67 -173 79 -359 144 -515 181
-132 31 -151 33 -335 33 -254 1 -317 -11 -565 -111 -126 -51 -213 -111 -297
-205 -118 -131 -235 -245 -243 -236 -8 8 164 493 186 523 4 6 26 55 49 110 60
141 144 309 177 351 21 28 58 51 150 96 67 32 134 61 150 64 15 2 53 -2 83
-11 346 -96 564 -127 749 -107 175 20 327 84 437 185 31 29 75 68 98 87 23 19
112 106 199 194 115 115 155 161 145 167 -7 5 -43 9 -79 9 -36 0 -90 4 -120
10 -30 5 -103 17 -164 25 -60 9 -150 22 -200 30 -179 29 -398 14 -550 -38
-190 -66 -292 -128 -403 -248 -118 -129 -182 -189 -235 -223 -50 -32 -191
-106 -202 -106 -19 0 257 438 344 545 31 39 101 129 155 200 190 251 214 267
489 330 83 19 167 35 187 35 38 0 94 -15 285 -76 109 -35 130 -38 230 -38 195
0 288 42 511 233 23 20 69 56 102 81 34 25 61 50 61 56 1 6 -24 14 -56 18 -32
4 -123 22 -201 42 -320 78 -437 86 -582 41 -96 -30 -155 -67 -257 -160 -40
-36 -83 -73 -96 -82 -29 -19 -369 -137 -375 -130 -10 10 80 109 297 326 124
124 240 233 256 241 37 19 126 35 267 48 250 24 414 102 504 240 38 57 57 103
88 210 32 111 110 330 136 380 25 50 10 61 -41 31 -40 -23 -153 -61 -298 -101
-153 -42 -289 -92 -364 -134 -149 -83 -255 -262 -311 -526 -10 -49 -72 -127
-211 -265 -185 -184 -254 -250 -258 -244 -2 2 2 41 8 86 14 89 39 140 144 290
81 115 116 218 115 338 -1 80 -6 103 -44 205 -86 234 -102 284 -107 336 -7 68
-25 70 -53 7z m30 -53 c0 -10 21 -74 46 -142 104 -280 117 -342 94 -448 -19
-84 -54 -155 -137 -278 -82 -122 -113 -193 -113 -258 0 -18 -4 -36 -10 -39 -6
-4 -10 21 -10 69 0 75 0 75 -51 143 -29 37 -55 70 -59 73 -4 3 -23 29 -43 57
-72 106 -88 216 -49 333 26 76 129 248 227 376 37 49 72 99 78 111 13 28 27
30 27 3z m1324 -47 c-15 -38 -53 -148 -85 -247 -33 -98 -71 -201 -86 -228 -49
-90 -146 -163 -281 -209 -68 -24 -139 -36 -283 -49 -148 -13 -187 -27 -268
-98 -85 -74 -327 -314 -420 -417 -60 -67 -68 -74 -51 -40 12 24 21 62 21 95 1
33 4 43 6 25 8 -54 20 -52 90 21 38 38 115 115 173 169 169 160 245 251 261
310 60 224 94 305 161 390 89 112 210 173 513 259 88 25 185 54 215 65 30 11
56 20 57 20 1 1 -9 -29 -23 -66z m-2253 -553 c98 -156 157 -285 195 -430 43
-165 51 -248 34 -388 -14 -120 -33 -185 -95 -319 -74 -159 -79 -181 -80 -343
0 -138 1 -145 20 -145 14 0 37 25 75 82 117 173 72 85 -61 -120 -107 -166
-162 -266 -155 -283 4 -12 37 1 148 57 l143 72 155 157 c85 86 172 169 193
184 76 55 246 122 385 151 107 22 325 20 448 -5 55 -10 139 -24 187 -30 48 -6
111 -15 139 -20 28 -6 70 -10 94 -10 24 0 44 -2 44 -5 0 -3 -17 -23 -38 -44
-20 -20 -62 -65 -92 -98 -30 -33 -102 -103 -160 -154 -58 -52 -116 -104 -130
-117 -85 -79 -254 -148 -402 -165 -122 -14 -396 11 -533 49 -297 81 -290 81
-442 12 -144 -67 -181 -98 -231 -196 -48 -95 -172 -374 -222 -502 -73 -183
-165 -469 -154 -480 15 -15 174 131 298 273 80 93 143 138 266 191 220 93 362
126 550 126 273 0 510 -59 850 -210 63 -28 121 -54 128 -57 21 -9 14 -17 -41
-47 -28 -16 -131 -80 -227 -144 -96 -63 -194 -127 -218 -142 -52 -34 -161 -77
-312 -124 -177 -54 -420 -70 -608 -40 -167 26 -379 110 -477 189 -48 38 -61
36 -140 -20 -85 -61 -99 -78 -149 -187 -45 -97 -256 -705 -256 -739 0 -28 18
-32 44 -11 14 10 73 41 133 67 59 27 138 68 175 91 90 58 152 88 218 107 234
67 346 82 529 73 148 -8 242 -26 365 -71 223 -80 358 -171 666 -446 47 -41 96
-83 110 -92 24 -17 23 -17 -49 -17 -41 0 -128 -11 -195 -25 -66 -13 -218 -41
-336 -62 -193 -33 -234 -37 -400 -37 -173 -1 -192 1 -295 28 -60 16 -123 35
-140 44 -81 41 -343 258 -394 326 -47 62 -106 91 -168 81 -96 -14 -293 -110
-293 -142 0 -9 -31 -61 -68 -117 -92 -135 -191 -343 -296 -620 l-23 -58 -12
28 c-16 38 -51 78 -95 108 l-35 23 36 26 c157 112 361 385 412 552 7 22 20 55
28 74 18 41 12 110 -14 146 -21 29 -114 80 -162 89 -19 3 -82 29 -139 58 -180
88 -292 203 -383 393 -79 166 -143 398 -178 645 -12 80 -24 159 -27 175 l-6
30 30 -36 c55 -64 240 -203 361 -269 234 -129 286 -167 387 -282 90 -103 122
-162 140 -257 14 -74 14 -96 0 -234 -22 -211 -21 -256 7 -297 12 -19 26 -34
31 -34 4 -1 14 15 22 34 94 245 148 392 174 475 101 321 195 605 210 635 13
26 15 44 8 73 -21 99 -71 147 -231 227 -258 129 -332 178 -465 310 -108 107
-164 184 -222 305 -56 114 -84 211 -100 340 -16 121 -16 372 -2 467 6 42 15
126 18 187 4 61 11 111 15 111 9 0 74 -79 139 -170 59 -82 192 -211 305 -297
161 -121 265 -247 342 -411 103 -220 130 -350 153 -727 10 -167 39 -285 71
-285 15 0 63 100 129 270 12 30 30 69 40 85 10 17 43 87 74 156 31 69 84 173
118 230 34 57 79 138 102 179 l41 75 0 165 c0 160 -1 167 -27 216 -30 57 -94
139 -184 236 -123 131 -168 220 -194 378 -27 159 15 413 106 655 31 83 65 186
77 230 11 44 22 86 23 93 2 7 28 -34 58 -90 29 -57 78 -141 107 -188z m1819
-455 c52 -9 164 -34 249 -55 85 -22 164 -40 177 -40 34 0 30 -15 -13 -47 -20
-15 -55 -44 -77 -64 -81 -71 -204 -159 -250 -178 -55 -24 -190 -51 -255 -51
-50 0 -218 41 -370 90 -52 16 -107 30 -122 30 -28 0 -160 -29 -342 -75 -53
-14 -114 -35 -135 -48 -51 -33 -117 -108 -235 -267 -55 -74 -114 -151 -131
-170 -17 -19 -41 -48 -54 -65 -17 -22 -20 -24 -12 -6 29 58 236 323 374 477
88 99 101 110 114 97 19 -18 56 -13 162 21 145 47 263 95 289 118 14 13 51 46
82 74 163 151 318 196 549 159z"/>
<path d="M4713 1190 c0 -25 2 -35 4 -22 2 12 2 32 0 45 -2 12 -4 2 -4 -23z"/>
</g>
</svg>
