<?xml version="1.0" standalone="no"?>
<!DOCTYPE svg PUBLIC "-//W3C//DTD SVG 20010904//EN"
 "http://www.w3.org/TR/2001/REC-SVG-20010904/DTD/svg10.dtd">
<svg version="1.0" xmlns="http://www.w3.org/2000/svg"
 width="600.000000pt" height="738.000000pt" viewBox="0 0 600.000000 738.000000"
 preserveAspectRatio="xMidYMid meet">
<g transform="translate(0.000000,738.000000) scale(0.100000,-0.100000)"
fill="#000000" stroke="none">
<path d="M2299 6548 c-1 -2 -3 -46 -5 -98 -4 -116 -14 -155 -39 -155 -19 0
-36 -34 -49 -97 -4 -18 -13 -28 -28 -30 -19 -2 -27 -17 -48 -78 -29 -89 -29
-88 -40 -70 -7 11 -11 11 -24 1 -15 -13 -26 -40 -46 -118 -8 -33 -14 -40 -29
-36 -22 6 -26 -2 -41 -100 -9 -51 -17 -77 -26 -77 -22 0 -34 -35 -34 -102 0
-71 -8 -110 -21 -103 -18 12 -30 -40 -27 -116 3 -72 1 -79 -16 -79 -17 0 -18
-6 -13 -67 4 -38 13 -92 20 -120 13 -50 13 -53 -4 -53 -25 0 -24 -16 6 -128
29 -110 29 -102 11 -102 -8 0 -18 -5 -21 -11 -7 -11 31 -95 79 -173 26 -44 28
-50 13 -61 -15 -10 -14 -14 2 -41 10 -16 44 -58 76 -92 31 -34 52 -62 46 -62
-36 0 33 -86 120 -149 19 -15 34 -32 31 -39 -6 -20 95 -85 253 -164 113 -55
173 -96 181 -121 10 -31 6 -288 -6 -437 -24 -282 -54 -478 -110 -701 -44 -174
-44 -173 -63 -96 -32 132 -110 298 -188 404 l-38 51 25 99 c22 83 25 114 21
208 -5 134 -31 255 -57 262 -12 3 -27 31 -44 77 -30 81 -75 154 -85 138 -3 -6
-35 28 -70 74 -42 58 -68 84 -80 82 -10 -2 -50 27 -97 70 -79 72 -99 83 -106
60 -3 -8 -14 -5 -35 10 -17 12 -59 35 -94 52 -56 26 -65 28 -75 15 -10 -13
-16 -13 -55 4 -24 11 -72 27 -107 37 -56 16 -63 16 -75 2 -11 -15 -19 -15 -90
0 -74 16 -80 16 -91 -1 -11 -13 -28 -17 -86 -17 -63 0 -72 -2 -77 -20 -4 -15
-14 -20 -42 -20 -55 -1 -106 -15 -128 -37 -13 -13 -40 -22 -81 -27 -36 -4 -65
-13 -69 -21 -6 -10 -32 -15 -88 -17 -69 -3 -80 -6 -83 -22 -3 -11 9 -29 30
-46 19 -16 47 -47 63 -70 23 -34 26 -43 15 -50 -12 -8 -12 -14 -1 -47 8 -21
25 -55 37 -75 17 -26 22 -46 18 -65 -4 -22 3 -41 31 -81 28 -41 34 -56 25 -67
-15 -18 3 -52 65 -128 37 -46 43 -58 31 -63 -26 -10 -19 -23 54 -98 51 -53 68
-77 64 -92 -4 -15 8 -29 53 -62 32 -23 74 -50 93 -61 21 -11 34 -25 32 -35 -3
-17 29 -33 149 -72 65 -21 75 -28 75 -47 -1 -19 7 -24 54 -34 30 -6 79 -12
108 -12 45 -1 52 -4 52 -21 0 -13 9 -22 26 -26 25 -7 174 9 207 21 12 5 17 2
17 -9 0 -10 8 -16 23 -16 26 0 180 55 292 103 124 54 119 54 154 4 78 -114
139 -275 161 -428 24 -161 -13 -312 -132 -539 -169 -324 -359 -558 -658 -809
-125 -105 -359 -276 -455 -332 -58 -34 -60 -36 -63 -80 -3 -53 28 -108 70
-123 24 -8 37 -3 100 39 253 168 616 529 869 865 160 212 355 361 517 395 72
16 162 20 163 8 0 -5 4 -87 9 -183 8 -168 20 -238 39 -226 5 3 19 -20 32 -52
48 -122 78 -172 102 -172 18 0 35 -17 70 -68 59 -86 101 -127 122 -118 11 4
30 -8 58 -36 79 -80 108 -100 139 -94 19 4 53 -6 115 -35 68 -31 95 -39 120
-34 20 3 66 -3 118 -17 68 -18 88 -20 94 -10 6 10 27 11 84 6 68 -6 77 -5 77
10 0 20 -6 20 76 -5 79 -24 138 -56 173 -93 55 -59 71 -15 45 117 -19 95 -20
147 -2 158 7 5 7 22 0 55 -6 27 -14 70 -18 95 -5 41 -4 47 15 52 24 6 22 31
-11 126 -17 51 -17 55 0 67 16 12 14 18 -20 85 -27 54 -34 76 -27 86 12 13
-25 81 -82 154 -20 25 -25 39 -17 47 15 15 4 28 -65 79 -34 25 -62 52 -62 60
0 9 -34 34 -80 58 -44 24 -89 53 -100 64 -23 24 -111 48 -204 57 -41 4 -71 12
-78 21 -10 13 -31 15 -117 11 -86 -4 -106 -2 -111 10 -13 34 -203 -14 -312
-80 -30 -18 -74 -52 -98 -74 l-43 -42 -113 0 c-95 0 -128 -5 -196 -26 -45 -15
-105 -42 -133 -61 -29 -19 -53 -35 -55 -35 -2 0 16 44 40 97 23 54 64 157 90
228 65 180 106 263 174 347 80 99 339 328 484 427 58 40 45 47 217 -119 69
-66 133 -120 144 -120 10 0 35 -13 56 -30 70 -55 151 -92 188 -85 22 4 56 -2
106 -19 77 -27 136 -34 136 -16 0 7 40 8 120 4 106 -6 120 -5 120 9 0 16 14
19 150 32 79 8 106 20 90 41 -14 16 -13 17 70 34 30 6 77 19 103 27 43 13 48
18 43 38 -5 18 -1 24 20 29 14 4 57 21 96 38 62 28 69 34 65 55 -4 20 3 27 37
44 22 12 63 35 89 52 39 26 47 36 42 55 -4 18 7 34 60 84 44 41 65 67 62 79
-6 22 -2 27 56 74 32 25 47 44 44 56 -3 12 13 27 55 54 44 28 58 43 55 56 -4
14 17 29 94 69 54 29 103 58 109 65 14 17 -3 27 -112 61 -102 32 -135 49 -142
71 -3 10 -36 33 -72 52 -52 27 -65 38 -61 53 6 21 -16 38 -110 84 -45 22 -52
30 -47 49 5 19 -2 25 -38 43 -25 11 -69 28 -100 37 -38 11 -57 22 -61 35 -6
22 -53 37 -146 46 -50 6 -65 11 -68 25 -7 26 -57 33 -185 26 -68 -4 -108 -3
-108 3 0 17 -85 11 -155 -11 -63 -19 -68 -19 -79 -3 -13 16 -15 16 -57 0 -24
-10 -76 -35 -116 -57 -39 -21 -78 -36 -86 -33 -20 7 -57 -13 -137 -74 -49 -38
-69 -48 -82 -41 -13 7 -28 -4 -68 -49 -28 -31 -68 -83 -88 -114 -30 -47 -41
-56 -59 -52 -17 5 -27 -3 -49 -38 -38 -59 -96 -197 -122 -288 -17 -60 -42
-243 -42 -306 0 -6 -51 -44 -112 -82 -147 -92 -255 -180 -363 -294 -65 -69
-86 -86 -82 -68 3 14 17 75 31 135 45 189 76 503 83 826 l6 246 116 68 c118
69 229 141 267 172 27 23 47 60 39 74 -4 5 9 24 28 42 69 64 109 119 104 145
-3 17 5 39 28 71 45 64 65 105 65 137 0 15 18 72 40 125 44 108 47 126 25 143
-14 10 -13 20 5 90 24 95 26 144 5 152 -12 5 -15 28 -15 124 0 90 -3 119 -14
123 -9 4 -15 30 -18 79 -6 89 -23 130 -52 126 -18 -3 -22 4 -28 47 -4 28 -16
75 -26 105 -15 43 -24 55 -40 55 -20 1 -62 57 -109 148 -10 19 -21 27 -35 25
-12 -2 -25 5 -32 17 -6 11 -29 46 -50 78 -33 49 -44 58 -64 54 -18 -3 -34 7
-72 47 -60 63 -95 85 -112 68 -9 -9 -27 3 -74 48 -59 56 -94 75 -94 49 0 -7
-24 11 -54 39 -36 34 -60 50 -70 46 -10 -4 -40 16 -87 60 -60 55 -93 77 -100
64z m111 -123 c53 -49 70 -59 91 -57 4 1 30 -24 59 -54 48 -50 54 -54 69 -39
16 14 20 13 42 -11 13 -14 41 -39 61 -55 32 -26 39 -28 58 -17 19 12 25 9 68
-37 26 -27 58 -63 70 -80 20 -28 23 -29 36 -13 12 17 14 17 28 0 9 -9 32 -50
52 -89 37 -74 44 -81 63 -62 12 12 37 -24 84 -122 24 -50 33 -59 49 -54 16 5
21 -2 34 -47 8 -29 18 -73 23 -98 7 -38 12 -45 30 -43 27 3 31 -9 39 -110 4
-56 11 -86 22 -94 13 -11 14 -31 8 -128 -6 -111 -5 -115 14 -115 11 0 20 -1
20 -3 0 -1 -12 -43 -26 -92 -40 -139 -39 -135 -15 -135 11 0 21 -5 21 -11 0
-7 -23 -63 -52 -126 -38 -85 -48 -117 -39 -122 9 -6 -3 -31 -43 -91 -57 -85
-64 -100 -45 -100 20 0 3 -22 -81 -106 -69 -69 -82 -86 -70 -94 13 -9 11 -14
-12 -34 -14 -13 -61 -45 -105 -71 -43 -27 -121 -76 -174 -110 l-96 -62 -6
-245 c-7 -242 -34 -563 -62 -728 -11 -67 -70 -292 -102 -392 -10 -32 12 -19
49 30 118 156 275 301 470 432 l143 97 17 127 c23 167 47 253 110 387 l51 110
23 -22 22 -21 31 64 c35 70 133 197 139 179 7 -20 28 -12 73 27 75 66 135 102
147 90 7 -7 27 0 69 25 110 66 143 80 149 62 8 -21 20 -19 126 15 109 36 118
36 118 10 0 -19 4 -20 68 -13 115 14 207 10 207 -7 0 -12 23 -18 100 -27 55
-6 106 -12 112 -12 7 -1 12 -11 10 -22 -1 -16 5 -24 28 -31 173 -51 186 -57
179 -84 -5 -20 3 -27 75 -64 73 -36 80 -42 71 -60 -9 -17 -3 -23 60 -55 58
-29 70 -39 70 -60 0 -14 6 -25 13 -25 7 0 31 -8 53 -19 21 -10 70 -28 107 -41
38 -12 66 -25 62 -28 -3 -3 -45 -27 -93 -53 -66 -35 -87 -51 -85 -65 1 -13
-16 -31 -58 -58 -39 -25 -59 -45 -59 -58 0 -11 -22 -40 -50 -65 -38 -34 -50
-52 -50 -73 0 -22 -12 -39 -57 -76 -32 -27 -62 -51 -67 -56 -5 -4 -3 -14 5
-24 16 -20 8 -27 -87 -76 -54 -28 -64 -37 -64 -59 0 -24 -9 -30 -97 -66 -82
-33 -98 -43 -97 -61 0 -19 -10 -24 -90 -42 -126 -29 -126 -29 -126 -51 0 -10
-1 -19 -2 -20 -2 -1 -59 -6 -128 -13 -110 -10 -125 -13 -122 -28 4 -22 0 -22
-113 -2 -49 8 -94 16 -100 17 -5 1 -9 -6 -9 -15 2 -25 -10 -23 -117 17 -106
39 -119 41 -119 20 0 -21 -21 -10 -127 66 -45 33 -87 57 -95 54 -7 -3 -62 44
-128 110 -138 138 -155 147 -209 112 -109 -73 -307 -234 -406 -332 -156 -155
-189 -203 -240 -344 -44 -121 -80 -209 -167 -409 -27 -63 -47 -116 -44 -119 3
-3 36 15 73 40 132 86 242 119 404 120 107 1 208 -18 191 -35 -5 -5 -2 -24 9
-46 11 -22 29 -109 43 -210 14 -95 30 -180 36 -190 9 -14 10 -10 6 18 -3 19
-13 96 -21 170 -15 124 -26 186 -42 227 -7 18 0 16 119 -29 108 -41 115 -53
138 -231 10 -78 23 -163 29 -189 22 -98 94 -261 125 -288 19 -15 19 -16 -31
90 -48 104 -82 233 -102 395 -11 83 -18 151 -16 153 5 6 66 -28 147 -81 49
-32 83 -62 92 -81 8 -17 19 -80 26 -139 17 -161 73 -333 133 -409 29 -37 26
-16 -7 50 -50 98 -74 180 -91 311 -9 64 -20 131 -24 149 -5 17 -6 32 -3 32 12
-1 207 -182 229 -214 16 -22 26 -57 33 -115 11 -83 44 -187 75 -235 31 -48 35
-27 6 31 -16 32 -36 82 -45 112 -17 59 -22 151 -7 151 17 0 227 -248 291 -343
37 -54 46 -45 13 13 -38 69 -129 189 -210 279 -62 69 -65 74 -38 67 38 -10
154 -60 200 -87 19 -12 35 -16 35 -10 0 14 -133 81 -230 116 -68 24 -85 36
-190 137 l-115 110 97 -6 c104 -7 257 -41 334 -75 60 -27 70 -19 13 10 -101
51 -271 89 -402 89 -55 0 -102 16 -137 45 -8 7 -52 36 -98 63 l-83 51 38 10
c109 29 149 34 268 34 88 0 150 -5 193 -17 72 -18 82 -19 82 -8 0 18 -141 45
-260 49 -110 4 -140 2 -243 -22 l-117 -26 -63 26 c-34 14 -84 37 -110 51 -26
13 -52 22 -58 19 -5 -4 -9 -2 -9 4 0 15 214 81 315 98 102 16 118 23 54 23
-63 -1 -203 -33 -318 -75 -87 -31 -102 -34 -132 -24 -53 18 -53 24 -7 62 99
80 298 160 318 127 6 -10 37 -13 124 -11 67 1 116 -1 116 -7 0 -5 35 -12 78
-16 113 -11 171 -25 182 -46 5 -10 29 -25 52 -33 67 -22 133 -64 130 -80 -1
-9 22 -29 62 -51 74 -42 83 -51 65 -72 -10 -13 -8 -19 14 -40 48 -44 113 -137
99 -142 -19 -6 -15 -21 29 -95 37 -62 39 -70 24 -81 -16 -11 -16 -17 4 -80 25
-82 26 -96 5 -96 -13 0 -15 -7 -11 -27 3 -16 9 -57 13 -92 l7 -64 -32 6 c-38
8 -42 -12 -8 -40 15 -12 22 -29 23 -53 0 -19 7 -67 14 -107 8 -40 12 -75 9
-78 -4 -3 -26 6 -50 19 -49 27 -153 61 -211 70 -33 4 -38 2 -38 -15 0 -22 3
-22 -80 -4 -83 18 -90 18 -90 0 0 -19 7 -20 -80 10 -82 28 -106 31 -113 13 -3
-9 -33 1 -98 34 -69 35 -97 44 -106 36 -17 -14 -47 6 -124 83 -44 44 -65 58
-78 54 -15 -4 -31 11 -73 67 -30 40 -61 84 -67 96 -9 17 -19 22 -34 18 -19 -4
-26 4 -54 67 -17 40 -37 92 -44 116 -8 27 -20 46 -31 49 -12 3 -18 14 -19 36
-3 129 -16 334 -23 344 -9 15 -92 16 -172 1 -130 -24 -273 -101 -388 -209 -32
-30 -136 -152 -231 -270 -237 -295 -333 -397 -555 -595 -70 -62 -244 -195
-255 -195 -4 0 -4 12 -1 27 4 18 0 41 -13 64 l-19 35 47 29 c173 109 416 301
554 438 233 231 470 579 578 850 26 64 49 207 49 304 0 167 -90 430 -184 539
l-32 37 -75 -26 c-40 -14 -117 -43 -169 -65 -130 -53 -146 -57 -153 -33 -5 19
-7 19 -58 5 -30 -8 -86 -17 -126 -20 -68 -7 -72 -6 -67 13 5 18 -1 20 -82 27
-114 8 -132 14 -136 38 -4 26 -14 32 -120 63 -73 21 -88 29 -88 46 0 11 -8 23
-17 27 -10 4 -46 22 -80 41 -50 27 -63 39 -63 57 0 17 -23 46 -76 96 -66 63
-73 73 -57 81 10 6 20 11 21 13 2 1 -29 40 -68 86 -53 61 -68 84 -56 86 25 5
19 24 -25 87 -24 34 -37 61 -30 63 21 7 11 41 -31 107 -35 56 -40 70 -30 86
16 24 2 59 -49 127 l-40 52 71 0 c55 0 70 3 70 15 0 14 56 35 95 35 39 0 65
12 63 29 -3 13 11 17 82 21 78 5 85 7 88 27 3 21 6 22 83 16 71 -5 79 -4 79
12 0 19 4 19 113 -6 50 -11 59 -11 67 1 8 12 16 12 57 2 26 -7 70 -24 96 -37
57 -29 67 -31 67 -10 0 8 4 15 8 15 10 0 138 -76 171 -102 18 -14 27 -15 37
-7 11 9 31 -5 93 -66 44 -42 84 -74 89 -71 12 7 39 -24 87 -96 22 -34 42 -55
50 -52 14 6 39 -42 69 -134 10 -29 28 -64 41 -78 23 -25 45 -129 45 -215 0
-54 -18 -171 -37 -241 l-15 -57 29 -38 c49 -62 131 -213 163 -301 25 -69 60
-224 60 -265 0 -6 8 -4 17 6 17 17 34 72 92 292 71 270 109 583 114 925 l2
188 -27 24 c-15 13 -76 50 -135 82 -197 108 -248 141 -247 159 1 9 -14 26 -35
39 -20 12 -60 42 -89 66 -48 41 -51 46 -37 62 14 16 14 18 -1 31 -10 8 -44 45
-77 83 -54 63 -58 71 -42 82 16 12 15 16 -13 56 -31 46 -92 158 -92 171 0 4 7
7 16 7 19 0 17 16 -15 135 -18 69 -18 70 0 73 23 4 23 9 3 92 -33 140 -34 150
-10 147 20 -2 21 2 17 68 -9 130 -9 130 17 128 24 -3 24 -3 22 78 -2 87 8 127
34 131 19 3 22 12 28 78 10 95 16 112 29 87 14 -25 39 -4 39 32 0 15 7 50 15
79 14 45 18 51 41 49 25 -2 28 3 48 73 19 66 24 75 44 72 25 -4 36 18 47 92 6
39 10 46 26 41 25 -8 36 18 56 135 10 55 19 100 20 100 2 0 30 -25 63 -55z
m-1222 -5627 c4 -22 -16 -68 -33 -75 -38 -14 -63 86 -27 106 20 11 55 -7 60
-31z"/>
<path d="M2400 6299 c0 -3 18 -66 39 -140 79 -271 129 -479 113 -479 -16 0
-121 101 -187 181 -75 88 -99 98 -42 17 48 -69 94 -117 177 -183 82 -66 89
-81 129 -295 38 -201 38 -198 4 -167 -16 14 -75 63 -133 109 -101 80 -271 243
-317 304 -40 53 -24 7 20 -58 46 -67 145 -159 338 -314 66 -52 124 -105 128
-118 12 -30 45 -346 37 -353 -3 -4 -16 3 -29 14 -12 11 -83 61 -158 111 -74
49 -165 115 -201 146 -58 49 -171 174 -235 261 -35 48 -28 6 9 -51 45 -69 218
-240 311 -308 43 -32 125 -89 182 -126 56 -38 110 -79 119 -92 13 -18 16 -51
16 -174 0 -83 -3 -165 -6 -183 l-6 -31 -59 53 c-32 29 -138 111 -236 182 -106
77 -221 171 -285 234 -60 57 -108 99 -108 92 0 -23 226 -239 326 -312 377
-275 358 -256 350 -364 -7 -89 -16 -135 -27 -135 -30 0 -232 147 -344 251 -42
39 -79 68 -83 65 -17 -17 230 -229 359 -309 l69 -42 -5 -55 c-5 -40 -4 -51 4
-40 6 8 11 26 11 39 0 17 57 81 217 242 195 196 235 239 220 239 -2 0 -51 -46
-108 -103 -155 -154 -283 -270 -286 -260 -2 5 3 61 10 125 15 132 3 111 180
313 48 55 112 136 141 181 87 130 201 369 193 402 -3 12 -8 6 -17 -18 -8 -19
-47 -100 -87 -180 -77 -152 -174 -287 -321 -446 l-72 -79 2 196 3 195 102 155
c137 208 229 397 257 524 6 28 5 29 -9 11 -8 -10 -22 -42 -31 -70 -17 -52 -88
-202 -126 -266 -36 -61 -202 -309 -205 -307 -1 2 -9 59 -18 127 -8 69 -20 152
-26 185 -10 59 -9 62 29 140 108 220 155 366 150 461 -4 65 -8 56 -28 -61 -7
-38 -21 -95 -32 -125 -25 -70 -130 -290 -138 -290 -4 0 -15 39 -24 88 -10 48
-32 140 -50 205 -26 93 -30 121 -21 135 30 45 50 272 25 287 -6 4 -10 -20 -10
-65 0 -40 -8 -97 -17 -128 l-17 -57 -31 130 c-36 148 -99 343 -120 371 -8 10
-15 16 -15 13z"/>
<path d="M1028 4064 c53 -48 168 -201 158 -211 -1 -2 -38 12 -80 32 -171 78
-438 175 -416 152 3 -3 66 -30 140 -60 167 -68 370 -164 370 -175 0 -13 -139
-42 -200 -42 -30 0 -91 7 -135 15 -98 18 -107 18 -75 0 68 -38 258 -43 394
-10 41 10 66 11 85 4 76 -29 338 -176 329 -184 -8 -7 -213 -48 -298 -59 -92
-11 -249 -7 -297 8 -14 4 -23 3 -23 -3 0 -42 325 -41 513 3 94 22 125 25 148
17 28 -10 212 -142 223 -160 3 -4 -41 -21 -97 -36 -56 -15 -142 -39 -192 -53
-79 -22 -110 -25 -258 -26 -155 -1 -166 -2 -135 -15 22 -10 69 -14 143 -14
116 0 225 19 390 68 50 14 113 29 141 32 l52 6 81 -78 c45 -43 79 -80 77 -83
-5 -4 -195 -55 -391 -104 -96 -24 -101 -25 -93 -33 7 -7 114 16 278 58 74 19
158 38 185 42 92 13 97 32 69 221 -16 109 -74 295 -120 386 -36 71 -40 53 -6
-24 57 -124 103 -300 116 -445 6 -63 -1 -76 -24 -48 -7 8 -18 15 -24 15 -14 0
-150 137 -164 165 -5 11 -17 57 -27 103 -21 107 -53 198 -100 292 -39 77 -127
214 -145 225 -21 13 -9 -13 36 -76 86 -121 157 -285 188 -433 9 -44 14 -81 12
-83 -6 -7 -20 2 -140 92 l-107 80 -60 120 c-91 180 -242 394 -264 373 -5 -4
12 -29 36 -55 66 -70 126 -163 190 -293 32 -63 56 -116 54 -118 -2 -3 -281
148 -321 175 -13 8 -35 34 -49 58 -42 72 -141 191 -178 214 -57 35 -54 24 11
-35z"/>
<path d="M4315 3993 c-102 -66 -273 -261 -394 -451 -30 -45 -65 -89 -80 -96
-45 -23 -262 -98 -268 -93 -8 9 84 218 135 305 60 105 143 206 224 272 67 56
86 80 47 59 -42 -21 -142 -109 -192 -168 -68 -79 -120 -169 -197 -343 l-67
-150 -93 -44 c-51 -24 -94 -44 -96 -44 -13 0 82 274 126 359 12 24 19 45 16
48 -15 15 -96 -171 -151 -347 -22 -69 -34 -90 -61 -110 -18 -14 -33 -27 -34
-30 0 -3 31 -22 69 -42 62 -34 142 -94 259 -194 23 -20 45 -34 48 -31 10 9
-193 182 -261 221 -36 21 -65 41 -65 45 0 9 81 55 120 67 61 19 88 4 280 -151
119 -96 207 -149 313 -189 80 -30 64 -10 -26 32 -101 47 -148 78 -286 190 -57
46 -128 100 -159 120 l-54 36 63 29 c108 48 181 69 221 64 23 -3 69 -28 128
-68 193 -135 218 -151 320 -203 113 -58 235 -100 272 -94 15 3 -6 13 -66 32
-113 36 -283 121 -366 183 -36 27 -103 76 -150 108 -47 32 -89 62 -94 66 -11
9 130 54 248 79 108 23 106 24 263 -83 138 -94 229 -140 325 -167 80 -22 118
-25 118 -10 0 6 -12 10 -27 10 -84 1 -275 93 -419 202 -121 90 -121 82 7 107
62 13 145 25 184 28 68 5 72 4 121 -30 75 -52 200 -112 275 -132 102 -27 116
-13 17 18 -98 31 -256 107 -282 136 -18 19 -18 20 5 25 46 10 285 27 457 33
95 3 175 10 178 14 15 25 -228 22 -493 -6 -71 -7 -129 -12 -131 -10 -2 2 22
27 53 57 57 54 169 123 218 134 15 3 27 10 27 15 0 12 2 12 -66 -11 -71 -25
-145 -73 -223 -144 l-57 -52 -164 -27 c-91 -15 -169 -27 -173 -27 -4 0 19 35
52 78 78 103 221 237 306 287 76 44 73 61 -4 19 -115 -62 -245 -184 -348 -325
-23 -31 -54 -61 -70 -67 -35 -14 -285 -74 -289 -69 -8 7 178 276 238 344 67
77 168 168 206 186 12 5 22 14 22 19 0 13 -12 9 -55 -19z"/>
<path d="M3449 2141 c12 -8 51 -4 51 5 0 2 -15 4 -32 4 -23 0 -29 -3 -19 -9z"/>
</g>
</svg>
